Pretension2-Black.ufo
<glyph name="exclam" format="2">
  <advance width="780"/>
  <unicode hex="0021"/>
  <outline>
    <contour>
      <point x="208" y="466" type="line"/>
      <point x="178" y="1490" type="line"/>
      <point x="602" y="1490" type="line"/>
      <point x="572" y="466" type="line"/>
    </contour>
    <contour>
      <point x="390" y="-24" type="qcurve" smooth="yes"/>
      <point x="293" y="-24"/>
      <point x="176" y="83"/>
      <point x="176" y="175" type="qcurve" smooth="yes"/>
      <point x="176" y="267"/>
      <point x="293" y="374"/>
      <point x="390" y="374" type="qcurve" smooth="yes"/>
      <point x="488" y="374"/>
      <point x="604" y="267"/>
      <point x="604" y="175" type="qcurve" smooth="yes"/>
      <point x="604" y="83"/>
      <point x="488" y="-24"/>
    </contour>
  </outline>
</glyph>
<glyph name="percent" format="2">
  <advance width="1964"/>
  <unicode hex="0025"/>
  <outline>
    <contour>
      <point x="132" y="1084" type="curve" smooth="yes"/>
      <point x="132" y="1162" type="line" smooth="yes"/>
      <point x="132" y="1226"/>
      <point x="146" y="1285"/>
      <point x="174" y="1338" type="curve" smooth="yes"/>
      <point x="229" y="1445"/>
      <point x="336" y="1514"/>
      <point x="484" y="1514" type="curve" smooth="yes"/>
      <point x="561" y="1514"/>
      <point x="626" y="1498"/>
      <point x="679" y="1466" type="curve" smooth="yes"/>
      <point x="783" y="1402"/>
      <point x="838" y="1290"/>
      <point x="838" y="1162" type="curve" smooth="yes"/>
      <point x="838" y="1084" type="line" smooth="yes"/>
      <point x="838" y="1020"/>
      <point x="824" y="962"/>
      <point x="797" y="909" type="curve" smooth="yes"/>
      <point x="742" y="803"/>
      <point x="636" y="734"/>
      <point x="484" y="734" type="curve" smooth="yes"/>
      <point x="408" y="734"/>
      <point x="344" y="750"/>
      <point x="292" y="782" type="curve" smooth="yes"/>
      <point x="187" y="846"/>
      <point x="132" y="959"/>
    </contour>
    <contour>
      <point x="388" y="1162" type="curve" smooth="yes"/>
      <point x="388" y="1084" type="line" smooth="yes"/>
      <point x="388" y="1055"/>
      <point x="395" y="1027"/>
      <point x="408" y="1001" type="curve" smooth="yes"/>
      <point x="421" y="975"/>
      <point x="447" y="962"/>
      <point x="484" y="962" type="curve" smooth="yes"/>
      <point x="524" y="962"/>
      <point x="550" y="975"/>
      <point x="563" y="1001" type="curve" smooth="yes"/>
      <point x="576" y="1027"/>
      <point x="582" y="1055"/>
      <point x="582" y="1084" type="curve" smooth="yes"/>
      <point x="582" y="1162" type="line" smooth="yes"/>
      <point x="582" y="1191"/>
      <point x="576" y="1220"/>
      <point x="564" y="1247" type="curve" smooth="yes"/>
      <point x="552" y="1274"/>
      <point x="525" y="1288"/>
      <point x="484" y="1288" type="curve" smooth="yes"/>
      <point x="445" y="1288"/>
      <point x="420" y="1274"/>
      <point x="407" y="1246" type="curve" smooth="yes"/>
      <point x="394" y="1217"/>
      <point x="388" y="1189"/>
    </contour>
    <contour>
      <point x="1126" y="326" type="curve" smooth="yes"/>
      <point x="1126" y="404" type="line" smooth="yes"/>
      <point x="1126" y="468"/>
      <point x="1140" y="527"/>
      <point x="1168" y="580" type="curve" smooth="yes"/>
      <point x="1223" y="687"/>
      <point x="1330" y="756"/>
      <point x="1478" y="756" type="curve" smooth="yes"/>
      <point x="1555" y="756"/>
      <point x="1620" y="740"/>
      <point x="1673" y="708" type="curve" smooth="yes"/>
      <point x="1777" y="644"/>
      <point x="1832" y="532"/>
      <point x="1832" y="404" type="curve" smooth="yes"/>
      <point x="1832" y="326" type="line" smooth="yes"/>
      <point x="1832" y="262"/>
      <point x="1818" y="204"/>
      <point x="1791" y="151" type="curve" smooth="yes"/>
      <point x="1736" y="45"/>
      <point x="1630" y="-24"/>
      <point x="1478" y="-24" type="curve" smooth="yes"/>
      <point x="1402" y="-24"/>
      <point x="1338" y="-8"/>
      <point x="1286" y="24" type="curve" smooth="yes"/>
      <point x="1181" y="88"/>
      <point x="1126" y="201"/>
    </contour>
    <contour>
      <point x="1382" y="404" type="curve" smooth="yes"/>
      <point x="1382" y="326" type="line" smooth="yes"/>
      <point x="1382" y="297"/>
      <point x="1389" y="269"/>
      <point x="1402" y="243" type="curve" smooth="yes"/>
      <point x="1415" y="217"/>
      <point x="1441" y="204"/>
      <point x="1478" y="204" type="curve" smooth="yes"/>
      <point x="1518" y="204"/>
      <point x="1544" y="217"/>
      <point x="1557" y="243" type="curve" smooth="yes"/>
      <point x="1570" y="269"/>
      <point x="1576" y="297"/>
      <point x="1576" y="326" type="curve" smooth="yes"/>
      <point x="1576" y="404" type="line" smooth="yes"/>
      <point x="1576" y="433"/>
      <point x="1570" y="462"/>
      <point x="1558" y="489" type="curve" smooth="yes"/>
      <point x="1546" y="516"/>
      <point x="1519" y="530"/>
      <point x="1478" y="530" type="curve" smooth="yes"/>
      <point x="1439" y="530"/>
      <point x="1414" y="516"/>
      <point x="1401" y="488" type="curve" smooth="yes"/>
      <point x="1388" y="459"/>
      <point x="1382" y="431"/>
    </contour>
    <contour>
      <point x="350" y="0" type="line"/>
      <point x="1374" y="1490" type="line"/>
      <point x="1614" y="1490" type="line"/>
      <point x="590" y="0" type="line"/>
    </contour>
  </outline>
</glyph>
<glyph name="ampersand" format="2">
  <advance width="1424"/>
  <unicode hex="0026"/>
  <outline>
    <contour>
      <point x="578" y="-24" type="curve" smooth="yes"/>
      <point x="471" y="-24"/>
      <point x="379" y="-5"/>
      <point x="302" y="33" type="curve" smooth="yes"/>
      <point x="225" y="71"/>
      <point x="165" y="122"/>
      <point x="124" y="186" type="curve" smooth="yes"/>
      <point x="83" y="249"/>
      <point x="62" y="319"/>
      <point x="62" y="396" type="curve" smooth="yes"/>
      <point x="62" y="452"/>
      <point x="73" y="501"/>
      <point x="94" y="544" type="curve" smooth="yes"/>
      <point x="137" y="629"/>
      <point x="217" y="699"/>
      <point x="318" y="768" type="curve"/>
      <point x="656" y="978" type="line" smooth="yes"/>
      <point x="690" y="999"/>
      <point x="713" y="1021"/>
      <point x="726" y="1044" type="curve"/>
      <point x="738" y="1067"/>
      <point x="744" y="1087"/>
      <point x="744" y="1106" type="curve" smooth="yes"/>
      <point x="744" y="1129"/>
      <point x="735" y="1150"/>
      <point x="718" y="1169" type="curve"/>
      <point x="700" y="1187"/>
      <point x="673" y="1196"/>
      <point x="636" y="1196" type="curve" smooth="yes"/>
      <point x="613" y="1196"/>
      <point x="594" y="1192"/>
      <point x="578" y="1184" type="curve" smooth="yes"/>
      <point x="545" y="1167"/>
      <point x="526" y="1135"/>
      <point x="526" y="1094" type="curve" smooth="yes"/>
      <point x="526" y="1065"/>
      <point x="534" y="1036"/>
      <point x="551" y="1006" type="curve" smooth="yes"/>
      <point x="583" y="946"/>
      <point x="643" y="879"/>
      <point x="714" y="794" type="curve"/>
      <point x="1436" y="0" type="line"/>
      <point x="1034" y="0" type="line"/>
      <point x="430" y="640" type="line" smooth="yes"/>
      <point x="400" y="672"/>
      <point x="367" y="711"/>
      <point x="332" y="757" type="curve" smooth="yes"/>
      <point x="296" y="802"/>
      <point x="265" y="854"/>
      <point x="239" y="912" type="curve" smooth="yes"/>
      <point x="213" y="969"/>
      <point x="200" y="1032"/>
      <point x="200" y="1100" type="curve" smooth="yes"/>
      <point x="200" y="1176"/>
      <point x="218" y="1245"/>
      <point x="255" y="1308" type="curve" smooth="yes"/>
      <point x="327" y="1432"/>
      <point x="461" y="1512"/>
      <point x="636" y="1512" type="curve" smooth="yes"/>
      <point x="719" y="1512"/>
      <point x="791" y="1495"/>
      <point x="852" y="1461" type="curve" smooth="yes"/>
      <point x="972" y="1392"/>
      <point x="1040" y="1273"/>
      <point x="1040" y="1134" type="curve" smooth="yes"/>
      <point x="1040" y="1065"/>
      <point x="1023" y="1001"/>
      <point x="989" y="941" type="curve" smooth="yes"/>
      <point x="955" y="880"/>
      <point x="906" y="827"/>
      <point x="842" y="782" type="curve" smooth="yes"/>
      <point x="534" y="564" type="line" smooth="yes"/>
      <point x="511" y="547"/>
      <point x="490" y="528"/>
      <point x="473" y="507" type="curve"/>
      <point x="455" y="486"/>
      <point x="446" y="458"/>
      <point x="446" y="424" type="curve" smooth="yes"/>
      <point x="446" y="396"/>
      <point x="453" y="372"/>
      <point x="466" y="352" type="curve" smooth="yes"/>
      <point x="493" y="312"/>
      <point x="542" y="290"/>
      <point x="606" y="290" type="curve" smooth="yes"/>
      <point x="706" y="290"/>
      <point x="810" y="340"/>
      <point x="892" y="428" type="curve" smooth="yes"/>
      <point x="974" y="515"/>
      <point x="1028" y="636"/>
      <point x="1028" y="776" type="curve"/>
      <point x="1346" y="776" type="line"/>
      <point x="1346" y="690"/>
      <point x="1337" y="607"/>
      <point x="1319" y="527" type="curve" smooth="yes"/>
      <point x="1301" y="447"/>
      <point x="1272" y="374"/>
      <point x="1233" y="308" type="curve" smooth="yes"/>
      <point x="1193" y="241"/>
      <point x="1141" y="185"/>
      <point x="1076" y="140" type="curve"/>
      <point x="1035" y="119"/>
      <point x="997" y="102"/>
      <point x="956" y="82" type="curve"/>
      <point x="897" y="43"/>
      <point x="835" y="16"/>
      <point x="770" y="0" type="curve" smooth="yes"/>
      <point x="705" y="-16"/>
      <point x="641" y="-24"/>
    </contour>
  </outline>
</glyph>
<glyph name="parenleft" format="2">
  <advance width="794"/>
  <unicode hex="0028"/>
  <outline>
    <contour>
      <point x="128" y="607" type="qcurve" smooth="yes"/>
      <point x="128" y="775"/>
      <point x="194" y="1135"/>
      <point x="310" y="1463"/>
      <point x="386" y="1581" type="qcurve"/>
      <point x="752" y="1581" type="line"/>
      <point x="685" y="1428"/>
      <point x="589" y="1094"/>
      <point x="538" y="761"/>
      <point x="538" y="607" type="qcurve" smooth="yes"/>
      <point x="538" y="477"/>
      <point x="580" y="219"/>
      <point x="674" y="-83"/>
      <point x="752" y="-279" type="qcurve"/>
      <point x="386" y="-279" type="line"/>
      <point x="259" y="-74"/>
      <point x="128" y="378"/>
    </contour>
  </outline>
</glyph>
<glyph name="parenright" format="2">
  <advance width="794"/>
  <unicode hex="0029"/>
  <outline>
    <contour>
      <point x="42" y="-279" type="line"/>
      <point x="95" y="-148"/>
      <point x="137" y="-33"/>
      <point x="168" y="68" type="curve" smooth="yes"/>
      <point x="199" y="169"/>
      <point x="221" y="262"/>
      <point x="235" y="348" type="curve" smooth="yes"/>
      <point x="249" y="434"/>
      <point x="256" y="520"/>
      <point x="256" y="607" type="curve" smooth="yes"/>
      <point x="256" y="710"/>
      <point x="248" y="817"/>
      <point x="231" y="928" type="curve" smooth="yes"/>
      <point x="197" y="1150"/>
      <point x="133" y="1377"/>
      <point x="42" y="1581" type="curve"/>
      <point x="408" y="1581" type="line"/>
      <point x="459" y="1502"/>
      <point x="503" y="1408"/>
      <point x="542" y="1299" type="curve" smooth="yes"/>
      <point x="581" y="1190"/>
      <point x="611" y="1075"/>
      <point x="633" y="955" type="curve" smooth="yes"/>
      <point x="655" y="835"/>
      <point x="666" y="719"/>
      <point x="666" y="607" type="curve" smooth="yes"/>
      <point x="666" y="302"/>
      <point x="577" y="-6"/>
      <point x="408" y="-279" type="curve"/>
    </contour>
  </outline>
</glyph>
<glyph name="comma.ss07" format="2">
  <advance width="764"/>
  <unicode hex="002C"/>
  <unicode hex="E2AB"/>
  <outline>
    <contour>
      <point x="178" y="-354" type="line"/>
      <point x="178" y="-163" type="line"/>
      <point x="231" y="-163" type="line" smooth="yes"/>
      <point x="312" y="-163"/>
      <point x="382" y="-92"/>
      <point x="382" y="-10" type="qcurve" smooth="yes"/>
      <point x="382" y="60" type="line"/>
      <point x="428" y="0" type="line"/>
      <point x="178" y="0" type="line"/>
      <point x="178" y="384" type="line"/>
      <point x="586" y="384" type="line"/>
      <point x="586" y="8" type="line" smooth="yes"/>
      <point x="586" y="-174"/>
      <point x="406" y="-354"/>
      <point x="223" y="-354" type="qcurve" smooth="yes"/>
    </contour>
  </outline>
</glyph>
<glyph name="period" format="2">
  <advance width="764"/>
  <unicode hex="002E"/>
  <unicode hex="E2AA"/>
  <outline>
    <contour>
      <point x="178" y="0" type="line"/>
      <point x="178" y="384" type="line"/>
      <point x="586" y="384" type="line"/>
      <point x="586" y="0" type="line"/>
    </contour>
  </outline>
</glyph>
<glyph name="zero" format="2">
  <advance width="1456"/>
  <unicode hex="0030"/>
  <anchor x="798" y="1490" name="m.uni030F_1"/>
  <outline>
    <contour>
      <point x="728" y="-20" type="curve" smooth="yes"/>
      <point x="590" y="-20"/>
      <point x="472" y="10"/>
      <point x="374" y="71" type="curve" smooth="yes"/>
      <point x="178" y="192"/>
      <point x="70" y="423"/>
      <point x="70" y="744" type="curve" smooth="yes"/>
      <point x="70" y="905"/>
      <point x="96" y="1042"/>
      <point x="149" y="1157" type="curve" smooth="yes"/>
      <point x="253" y="1385"/>
      <point x="452" y="1510"/>
      <point x="728" y="1510" type="curve" smooth="yes"/>
      <point x="866" y="1510"/>
      <point x="984" y="1480"/>
      <point x="1083" y="1419" type="curve" smooth="yes"/>
      <point x="1279" y="1297"/>
      <point x="1386" y="1065"/>
      <point x="1386" y="744" type="curve" smooth="yes"/>
      <point x="1386" y="583"/>
      <point x="1360" y="446"/>
      <point x="1308" y="333" type="curve" smooth="yes"/>
      <point x="1204" y="105"/>
      <point x="1005" y="-20"/>
    </contour>
    <contour>
      <point x="728" y="308" type="curve" smooth="yes"/>
      <point x="779" y="308"/>
      <point x="823" y="325"/>
      <point x="858" y="358" type="curve" smooth="yes"/>
      <point x="929" y="425"/>
      <point x="966" y="556"/>
      <point x="966" y="744" type="curve" smooth="yes"/>
      <point x="966" y="839"/>
      <point x="957" y="919"/>
      <point x="939" y="984" type="curve" smooth="yes"/>
      <point x="902" y="1115"/>
      <point x="831" y="1184"/>
      <point x="728" y="1184" type="curve" smooth="yes"/>
      <point x="651" y="1184"/>
      <point x="593" y="1146"/>
      <point x="552" y="1070" type="curve" smooth="yes"/>
      <point x="511" y="994"/>
      <point x="490" y="885"/>
      <point x="490" y="744" type="curve" smooth="yes"/>
      <point x="490" y="650"/>
      <point x="499" y="571"/>
      <point x="517" y="506" type="curve" smooth="yes"/>
      <point x="553" y="376"/>
      <point x="625" y="308"/>
    </contour>
  </outline>
</glyph>
<glyph name="one.ss01" format="2">
  <advance width="926"/>
  <unicode hex="0031"/>
  <unicode hex="E06C"/>
  <outline>
    <contour>
      <point x="396" y="0" type="line"/>
      <point x="396" y="973" type="line"/>
      <point x="415" y="947" type="line"/>
      <point x="362" y="947"/>
      <point x="255" y="947"/>
      <point x="149" y="947"/>
      <point x="50" y="947" type="qcurve"/>
      <point x="50" y="1243" type="line"/>
      <point x="177" y="1243" type="line" smooth="yes"/>
      <point x="252" y="1243"/>
      <point x="367" y="1294"/>
      <point x="436" y="1402"/>
      <point x="442" y="1488" type="qcurve"/>
      <point x="796" y="1488" type="line"/>
      <point x="796" y="0" type="line"/>
    </contour>
  </outline>
</glyph>
<glyph name="two" format="2">
  <advance width="1324"/>
  <unicode hex="0032"/>
  <anchor x="739" y="1490" name="m.uni030F_1"/>
  <outline>
    <contour>
      <point x="98" y="0" type="line"/>
      <point x="98" y="290" type="line"/>
      <point x="654" y="750" type="line" smooth="yes"/>
      <point x="691" y="781"/>
      <point x="722" y="810"/>
      <point x="749" y="837" type="curve" smooth="yes"/>
      <point x="776" y="864"/>
      <point x="796" y="891"/>
      <point x="811" y="920" type="curve"/>
      <point x="825" y="949"/>
      <point x="832" y="981"/>
      <point x="832" y="1016" type="curve" smooth="yes"/>
      <point x="832" y="1054"/>
      <point x="824" y="1087"/>
      <point x="808" y="1114" type="curve" smooth="yes"/>
      <point x="775" y="1168"/>
      <point x="717" y="1198"/>
      <point x="642" y="1198" type="curve" smooth="yes"/>
      <point x="605" y="1198"/>
      <point x="572" y="1191"/>
      <point x="544" y="1176" type="curve" smooth="yes"/>
      <point x="487" y="1146"/>
      <point x="454" y="1088"/>
      <point x="454" y="1004" type="curve"/>
      <point x="70" y="1004" type="line"/>
      <point x="70" y="1109"/>
      <point x="94" y="1199"/>
      <point x="141" y="1274" type="curve" smooth="yes"/>
      <point x="235" y="1425"/>
      <point x="411" y="1510"/>
      <point x="642" y="1510" type="curve" smooth="yes"/>
      <point x="761" y="1510"/>
      <point x="865" y="1491"/>
      <point x="952" y="1453" type="curve" smooth="yes"/>
      <point x="1127" y="1377"/>
      <point x="1226" y="1235"/>
      <point x="1226" y="1050" type="curve" smooth="yes"/>
      <point x="1226" y="993"/>
      <point x="1214" y="936"/>
      <point x="1191" y="880" type="curve" smooth="yes"/>
      <point x="1167" y="823"/>
      <point x="1124" y="761"/>
      <point x="1063" y="692" type="curve" smooth="yes"/>
      <point x="1002" y="623"/>
      <point x="914" y="542"/>
      <point x="800" y="448" type="curve" smooth="yes"/>
      <point x="660" y="332" type="line"/>
      <point x="660" y="322" type="line"/>
      <point x="1242" y="322" type="line"/>
      <point x="1242" y="0" type="line"/>
    </contour>
  </outline>
</glyph>
<glyph name="three.1" format="2">
  <advance width="1382"/>
  <unicode hex="0033"/>
  <unicode hex="E06D"/>
  <outline>
    <contour>
      <point x="684" y="-20" type="qcurve" smooth="yes"/>
      <point x="500" y="-20"/>
      <point x="228" y="102"/>
      <point x="78" y="316"/>
      <point x="76" y="454" type="qcurve"/>
      <point x="482" y="454" type="line"/>
      <point x="484" y="411"/>
      <point x="538" y="344"/>
      <point x="628" y="306"/>
      <point x="684" y="306" type="qcurve" smooth="yes"/>
      <point x="742" y="306"/>
      <point x="826" y="349"/>
      <point x="872" y="430"/>
      <point x="872" y="486" type="qcurve" smooth="yes"/>
      <point x="872" y="535"/>
      <point x="818" y="616"/>
      <point x="722" y="664"/>
      <point x="660" y="664" type="qcurve" smooth="yes"/>
      <point x="464" y="664" type="line"/>
      <point x="464" y="912" type="line"/>
      <point x="766" y="1158" type="line"/>
      <point x="766" y="1166" type="line"/>
      <point x="152" y="1166" type="line"/>
      <point x="152" y="1490" type="line"/>
      <point x="1238" y="1490" type="line"/>
      <point x="1238" y="1198" type="line"/>
      <point x="723" y="780" type="line"/>
      <point x="723" y="873" type="line"/>
      <point x="893" y="900"/>
      <point x="1153" y="800"/>
      <point x="1300" y="591"/>
      <point x="1300" y="452" type="qcurve" smooth="yes"/>
      <point x="1300" y="305"/>
      <point x="1137" y="94"/>
      <point x="858" y="-20"/>
    </contour>
  </outline>
</glyph>
<glyph name="three.ss01" format="2">
  <advance width="1382"/>
  <unicode hex="0033"/>
  <unicode hex="E06D"/>
  <anchor x="749" y="1490" name="m.uni030F_1"/>
  <outline>
    <contour>
      <point x="684" y="-20" type="curve" smooth="yes"/>
      <point x="561" y="-20"/>
      <point x="455" y="0"/>
      <point x="364" y="41" type="curve" smooth="yes"/>
      <point x="183" y="122"/>
      <point x="79" y="270"/>
      <point x="76" y="454" type="curve"/>
      <point x="482" y="454" type="line"/>
      <point x="483" y="425"/>
      <point x="493" y="400"/>
      <point x="511" y="378" type="curve" smooth="yes"/>
      <point x="547" y="333"/>
      <point x="609" y="306"/>
      <point x="684" y="306" type="curve" smooth="yes"/>
      <point x="723" y="306"/>
      <point x="756" y="313"/>
      <point x="784" y="328" type="curve"/>
      <point x="840" y="356"/>
      <point x="872" y="411"/>
      <point x="872" y="486" type="curve" smooth="yes"/>
      <point x="872" y="519"/>
      <point x="863" y="549"/>
      <point x="845" y="576" type="curve" smooth="yes"/>
      <point x="809" y="630"/>
      <point x="743" y="664"/>
      <point x="660" y="664" type="curve" smooth="yes"/>
      <point x="464" y="664" type="line"/>
      <point x="464" y="912" type="line"/>
      <point x="766" y="1158" type="line"/>
      <point x="766" y="1166" type="line"/>
      <point x="152" y="1166" type="line"/>
      <point x="152" y="1490" type="line"/>
      <point x="1238" y="1490" type="line"/>
      <point x="1238" y="1198" type="line"/>
      <point x="723" y="780" type="line"/>
      <point x="723" y="873" type="line"/>
      <point x="836" y="891"/>
      <point x="936" y="883"/>
      <point x="1023" y="850" type="curve" smooth="yes"/>
      <point x="1110" y="817"/>
      <point x="1178" y="765"/>
      <point x="1227" y="696" type="curve" smooth="yes"/>
      <point x="1276" y="626"/>
      <point x="1300" y="545"/>
      <point x="1300" y="452" type="curve" smooth="yes"/>
      <point x="1300" y="354"/>
      <point x="1273" y="270"/>
      <point x="1219" y="200" type="curve" smooth="yes"/>
      <point x="1164" y="129"/>
      <point x="1091" y="75"/>
      <point x="998" y="37" type="curve" smooth="yes"/>
      <point x="905" y="-1"/>
      <point x="800" y="-20"/>
    </contour>
  </outline>
</glyph>
<glyph name="five" format="2">
  <advance width="1346"/>
  <unicode hex="0035"/>
  <outline>
    <contour>
      <point x="664" y="-20" type="curve" smooth="yes"/>
      <point x="488" y="-20"/>
      <point x="215" y="101"/>
      <point x="60" y="315"/>
      <point x="60" y="454" type="qcurve"/>
      <point x="466" y="454" type="line"/>
      <point x="466" y="411"/>
      <point x="518" y="344"/>
      <point x="610" y="306"/>
      <point x="668" y="306" type="qcurve" smooth="yes"/>
      <point x="796" y="306"/>
      <point x="874" y="377"/>
      <point x="874" y="500" type="curve" smooth="yes"/>
      <point x="874" y="622"/>
      <point x="797" y="724"/>
      <point x="669" y="724" type="curve" smooth="yes"/>
      <point x="584" y="724"/>
      <point x="495" y="688"/>
      <point x="468" y="600" type="curve"/>
      <point x="96" y="600" type="line"/>
      <point x="138" y="1490" type="line"/>
      <point x="1172" y="1490" type="line"/>
      <point x="1172" y="1166" type="line"/>
      <point x="502" y="1166" type="line"/>
      <point x="483" y="925" type="line"/>
      <point x="485" y="925" type="line"/>
      <point x="554" y="993"/>
      <point x="655" y="1017"/>
      <point x="749" y="1017" type="curve" smooth="yes"/>
      <point x="1023" y="1017"/>
      <point x="1264" y="788"/>
      <point x="1264" y="512" type="curve" smooth="yes"/>
      <point x="1264" y="165"/>
      <point x="990" y="-20"/>
    </contour>
  </outline>
</glyph>
<glyph name="six.ss01" format="2">
  <advance width="1316"/>
  <unicode hex="0036"/>
  <unicode hex="E06F"/>
  <outline>
    <contour>
      <point x="666" y="-20" type="curve" smooth="yes"/>
      <point x="561" y="-20"/>
      <point x="464" y="-1"/>
      <point x="374" y="37" type="curve" smooth="yes"/>
      <point x="283" y="75"/>
      <point x="210" y="132"/>
      <point x="154" y="208" type="curve" smooth="yes"/>
      <point x="98" y="284"/>
      <point x="70" y="379"/>
      <point x="70" y="492" type="curve" smooth="yes"/>
      <point x="70" y="576"/>
      <point x="86" y="657"/>
      <point x="118" y="734" type="curve" smooth="yes"/>
      <point x="149" y="811"/>
      <point x="191" y="889"/>
      <point x="244" y="968" type="curve" smooth="yes"/>
      <point x="596" y="1490" type="line"/>
      <point x="992" y="1490" type="line"/>
      <point x="550" y="840" type="line"/>
      <point x="412" y="840" type="line"/>
      <point x="427" y="861"/>
      <point x="451" y="882"/>
      <point x="485" y="903" type="curve" smooth="yes"/>
      <point x="553" y="945"/>
      <point x="653" y="976"/>
      <point x="774" y="976" type="curve" smooth="yes"/>
      <point x="867" y="976"/>
      <point x="948" y="958"/>
      <point x="1019" y="922" type="curve" smooth="yes"/>
      <point x="1090" y="885"/>
      <point x="1145" y="832"/>
      <point x="1186" y="763" type="curve" smooth="yes"/>
      <point x="1226" y="694"/>
      <point x="1246" y="610"/>
      <point x="1246" y="512" type="curve" smooth="yes"/>
      <point x="1246" y="403"/>
      <point x="1221" y="309"/>
      <point x="1171" y="230" type="curve" smooth="yes"/>
      <point x="1121" y="150"/>
      <point x="1052" y="88"/>
      <point x="965" y="45" type="curve" smooth="yes"/>
      <point x="878" y="2"/>
      <point x="778" y="-20"/>
    </contour>
    <contour>
      <point x="662" y="286" type="curve" smooth="yes"/>
      <point x="703" y="286"/>
      <point x="739" y="295"/>
      <point x="770" y="314" type="curve" smooth="yes"/>
      <point x="801" y="332"/>
      <point x="825" y="357"/>
      <point x="843" y="389" type="curve" smooth="yes"/>
      <point x="861" y="421"/>
      <point x="870" y="457"/>
      <point x="870" y="498" type="curve" smooth="yes"/>
      <point x="870" y="539"/>
      <point x="861" y="575"/>
      <point x="843" y="607" type="curve" smooth="yes"/>
      <point x="825" y="639"/>
      <point x="801" y="664"/>
      <point x="770" y="683" type="curve" smooth="yes"/>
      <point x="739" y="701"/>
      <point x="703" y="710"/>
      <point x="662" y="710" type="curve" smooth="yes"/>
      <point x="623" y="710"/>
      <point x="588" y="701"/>
      <point x="557" y="683" type="curve" smooth="yes"/>
      <point x="526" y="664"/>
      <point x="501" y="639"/>
      <point x="483" y="607" type="curve" smooth="yes"/>
      <point x="465" y="575"/>
      <point x="456" y="539"/>
      <point x="456" y="498" type="curve" smooth="yes"/>
      <point x="456" y="457"/>
      <point x="465" y="421"/>
      <point x="483" y="389" type="curve" smooth="yes"/>
      <point x="501" y="357"/>
      <point x="526" y="332"/>
      <point x="557" y="314" type="curve" smooth="yes"/>
      <point x="588" y="295"/>
      <point x="623" y="286"/>
    </contour>
  </outline>
</glyph>
<glyph name="eight" format="2">
  <advance width="1430"/>
  <unicode hex="0038"/>
  <outline>
    <contour>
      <point x="714" y="-20" type="qcurve" smooth="yes"/>
      <point x="534" y="-20"/>
      <point x="252" y="92"/>
      <point x="90" y="284"/>
      <point x="90" y="404" type="qcurve" smooth="yes"/>
      <point x="90" y="496"/>
      <point x="182" y="649"/>
      <point x="339" y="751"/>
      <point x="436" y="766" type="qcurve"/>
      <point x="436" y="776" type="line"/>
      <point x="309" y="799"/>
      <point x="144" y="982"/>
      <point x="144" y="1106" type="qcurve" smooth="yes"/>
      <point x="144" y="1223"/>
      <point x="292" y="1405"/>
      <point x="550" y="1510"/>
      <point x="714" y="1510" type="qcurve" smooth="yes"/>
      <point x="879" y="1510"/>
      <point x="1138" y="1405"/>
      <point x="1286" y="1222"/>
      <point x="1286" y="1106" type="qcurve" smooth="yes"/>
      <point x="1286" y="981"/>
      <point x="1119" y="799"/>
      <point x="994" y="776" type="qcurve"/>
      <point x="994" y="766" type="line"/>
      <point x="1090" y="751"/>
      <point x="1247" y="649"/>
      <point x="1340" y="496"/>
      <point x="1340" y="404" type="qcurve" smooth="yes"/>
      <point x="1340" y="284"/>
      <point x="1178" y="92"/>
      <point x="895" y="-20"/>
    </contour>
    <contour>
      <point x="714" y="258" type="qcurve" smooth="yes"/>
      <point x="772" y="258"/>
      <point x="861" y="305"/>
      <point x="912" y="388"/>
      <point x="912" y="440" type="qcurve" smooth="yes"/>
      <point x="912" y="491"/>
      <point x="861" y="570"/>
      <point x="772" y="616"/>
      <point x="714" y="616" type="qcurve" smooth="yes"/>
      <point x="658" y="616"/>
      <point x="569" y="571"/>
      <point x="518" y="492"/>
      <point x="518" y="440" type="qcurve" smooth="yes"/>
      <point x="518" y="388"/>
      <point x="569" y="306"/>
      <point x="658" y="258"/>
    </contour>
    <contour>
      <point x="714" y="896" type="qcurve" smooth="yes"/>
      <point x="765" y="896"/>
      <point x="844" y="938"/>
      <point x="890" y="1012"/>
      <point x="890" y="1058" type="qcurve" smooth="yes"/>
      <point x="890" y="1105"/>
      <point x="844" y="1177"/>
      <point x="765" y="1218"/>
      <point x="714" y="1218" type="qcurve" smooth="yes"/>
      <point x="664" y="1218"/>
      <point x="585" y="1177"/>
      <point x="540" y="1105"/>
      <point x="540" y="1058" type="qcurve" smooth="yes"/>
      <point x="540" y="1012"/>
      <point x="585" y="939"/>
      <point x="664" y="896"/>
    </contour>
  </outline>
</glyph>
<glyph name="nine" format="2">
  <advance width="1422"/>
  <unicode hex="0039"/>
  <outline>
    <contour>
      <point x="684" y="-24" type="qcurve" smooth="yes"/>
      <point x="520" y="-24"/>
      <point x="269" y="105"/>
      <point x="121" y="319"/>
      <point x="108" y="446" type="qcurve"/>
      <point x="506" y="446" type="line"/>
      <point x="520" y="382"/>
      <point x="620" y="320"/>
      <point x="684" y="320" type="qcurve" smooth="yes"/>
      <point x="769" y="320"/>
      <point x="878" y="422"/>
      <point x="930" y="604"/>
      <point x="930" y="724" type="qcurve"/>
      <point x="922" y="724" type="line"/>
      <point x="894" y="656"/>
      <point x="779" y="558"/>
      <point x="627" y="506"/>
      <point x="542" y="506" type="qcurve" smooth="yes"/>
      <point x="407" y="506"/>
      <point x="203" y="628"/>
      <point x="90" y="842"/>
      <point x="90" y="978" type="qcurve" smooth="yes"/>
      <point x="90" y="1139"/>
      <point x="242" y="1380"/>
      <point x="511" y="1514"/>
      <point x="686" y="1514" type="qcurve" smooth="yes"/>
      <point x="817" y="1514"/>
      <point x="1050" y="1431"/>
      <point x="1229" y="1252"/>
      <point x="1332" y="965"/>
      <point x="1332" y="762" type="qcurve" smooth="yes"/>
      <point x="1332" y="581"/>
      <point x="1240" y="291"/>
      <point x="1069" y="85"/>
      <point x="830" y="-24"/>
    </contour>
    <contour>
      <point x="690" y="780" type="qcurve" smooth="yes"/>
      <point x="750" y="780"/>
      <point x="843" y="835"/>
      <point x="896" y="931"/>
      <point x="896" y="992" type="qcurve" smooth="yes"/>
      <point x="896" y="1053"/>
      <point x="843" y="1149"/>
      <point x="750" y="1204"/>
      <point x="690" y="1204" type="qcurve" smooth="yes"/>
      <point x="631" y="1204"/>
      <point x="536" y="1149"/>
      <point x="482" y="1053"/>
      <point x="482" y="992" type="qcurve" smooth="yes"/>
      <point x="482" y="931"/>
      <point x="536" y="835"/>
      <point x="630" y="780"/>
    </contour>
  </outline>
</glyph>
<glyph name="nine.ss01" format="2">
  <advance width="1340"/>
  <unicode hex="0039"/>
  <unicode hex="E070"/>
  <outline>
    <contour>
      <point x="674" y="1510" type="curve" smooth="yes"/>
      <point x="779" y="1510"/>
      <point x="876" y="1491"/>
      <point x="967" y="1453" type="curve" smooth="yes"/>
      <point x="1057" y="1415"/>
      <point x="1130" y="1358"/>
      <point x="1186" y="1283" type="curve" smooth="yes"/>
      <point x="1242" y="1207"/>
      <point x="1270" y="1112"/>
      <point x="1270" y="998" type="curve" smooth="yes"/>
      <point x="1270" y="914"/>
      <point x="1254" y="833"/>
      <point x="1223" y="756" type="curve" smooth="yes"/>
      <point x="1192" y="679"/>
      <point x="1149" y="601"/>
      <point x="1096" y="522" type="curve" smooth="yes"/>
      <point x="744" y="0" type="line"/>
      <point x="348" y="0" type="line"/>
      <point x="790" y="650" type="line"/>
      <point x="928" y="650" type="line"/>
      <point x="913" y="629"/>
      <point x="889" y="609"/>
      <point x="856" y="588" type="curve" smooth="yes"/>
      <point x="788" y="546"/>
      <point x="687" y="514"/>
      <point x="566" y="514" type="curve" smooth="yes"/>
      <point x="474" y="514"/>
      <point x="393" y="532"/>
      <point x="322" y="569" type="curve" smooth="yes"/>
      <point x="251" y="605"/>
      <point x="195" y="658"/>
      <point x="155" y="727" type="curve" smooth="yes"/>
      <point x="114" y="796"/>
      <point x="94" y="880"/>
      <point x="94" y="978" type="curve" smooth="yes"/>
      <point x="94" y="1087"/>
      <point x="119" y="1181"/>
      <point x="169" y="1261" type="curve" smooth="yes"/>
      <point x="219" y="1340"/>
      <point x="288" y="1402"/>
      <point x="376" y="1445" type="curve" smooth="yes"/>
      <point x="463" y="1488"/>
      <point x="563" y="1510"/>
    </contour>
    <contour>
      <point x="678" y="1204" type="curve" smooth="yes"/>
      <point x="638" y="1204"/>
      <point x="602" y="1195"/>
      <point x="571" y="1177" type="curve" smooth="yes"/>
      <point x="540" y="1158"/>
      <point x="515" y="1133"/>
      <point x="497" y="1102" type="curve" smooth="yes"/>
      <point x="479" y="1070"/>
      <point x="470" y="1033"/>
      <point x="470" y="992" type="curve" smooth="yes"/>
      <point x="470" y="951"/>
      <point x="479" y="915"/>
      <point x="497" y="883" type="curve" smooth="yes"/>
      <point x="515" y="851"/>
      <point x="540" y="826"/>
      <point x="571" y="808" type="curve" smooth="yes"/>
      <point x="602" y="789"/>
      <point x="638" y="780"/>
      <point x="678" y="780" type="curve" smooth="yes"/>
      <point x="717" y="780"/>
      <point x="753" y="789"/>
      <point x="784" y="808" type="curve" smooth="yes"/>
      <point x="815" y="826"/>
      <point x="839" y="851"/>
      <point x="857" y="883" type="curve" smooth="yes"/>
      <point x="875" y="915"/>
      <point x="884" y="951"/>
      <point x="884" y="992" type="curve" smooth="yes"/>
      <point x="884" y="1033"/>
      <point x="875" y="1070"/>
      <point x="857" y="1102" type="curve" smooth="yes"/>
      <point x="839" y="1133"/>
      <point x="815" y="1158"/>
      <point x="784" y="1177" type="curve" smooth="yes"/>
      <point x="753" y="1195"/>
      <point x="717" y="1204"/>
    </contour>
  </outline>
</glyph>
<glyph name="question.ss07" format="2">
  <advance width="1230"/>
  <unicode hex="003F"/>
  <unicode hex="E2B0"/>
  <outline>
    <contour>
      <point x="396" y="466" type="line"/>
      <point x="396" y="500" type="line" smooth="yes"/>
      <point x="396" y="620"/>
      <point x="434" y="763"/>
      <point x="507" y="849"/>
      <point x="562" y="884" type="qcurve"/>
      <point x="631" y="930"/>
      <point x="724" y="1015"/>
      <point x="724" y="1076" type="qcurve" smooth="yes"/>
      <point x="724" y="1113"/>
      <point x="689" y="1167"/>
      <point x="630" y="1198"/>
      <point x="594" y="1198" type="qcurve" smooth="yes"/>
      <point x="555" y="1198"/>
      <point x="488" y="1162"/>
      <point x="448" y="1098"/>
      <point x="448" y="1056" type="qcurve"/>
      <point x="76" y="1056" type="line"/>
      <point x="76" y="1216"/>
      <point x="218" y="1416"/>
      <point x="455" y="1510"/>
      <point x="596" y="1510" type="qcurve" smooth="yes"/>
      <point x="752" y="1510"/>
      <point x="997" y="1419"/>
      <point x="1138" y="1237"/>
      <point x="1138" y="1100" type="qcurve" smooth="yes"/>
      <point x="1138" y="967"/>
      <point x="1005" y="798"/>
      <point x="898" y="736" type="qcurve" smooth="yes"/>
      <point x="846" y="705"/>
      <point x="774" y="640"/>
      <point x="738" y="558"/>
      <point x="738" y="500" type="qcurve" smooth="yes"/>
      <point x="738" y="466" type="line"/>
    </contour>
    <contour>
      <point x="363" y="0" type="line"/>
      <point x="363" y="351" type="line"/>
      <point x="771" y="351" type="line"/>
      <point x="771" y="0" type="line"/>
    </contour>
  </outline>
</glyph>
<glyph name="at" format="2">
  <advance width="2168"/>
  <unicode hex="0040"/>
  <outline>
    <contour>
      <point x="1078" y="-456" type="qcurve" smooth="yes"/>
      <point x="842" y="-456"/>
      <point x="469" y="-327"/>
      <point x="207" y="-79"/>
      <point x="70" y="279"/>
      <point x="70" y="508" type="qcurve" smooth="yes"/>
      <point x="70" y="726"/>
      <point x="198" y="1093"/>
      <point x="452" y="1364"/>
      <point x="831" y="1514"/>
      <point x="1081" y="1514" type="qcurve" smooth="yes"/>
      <point x="1307" y="1514"/>
      <point x="1680" y="1389"/>
      <point x="1951" y="1152"/>
      <point x="2098" y="816"/>
      <point x="2098" y="605" type="qcurve" smooth="yes"/>
      <point x="2098" y="464"/>
      <point x="2032" y="248"/>
      <point x="1908" y="100"/>
      <point x="1733" y="24"/>
      <point x="1625" y="24" type="qcurve" smooth="yes"/>
      <point x="1549" y="24"/>
      <point x="1438" y="62"/>
      <point x="1372" y="137"/>
      <point x="1362" y="191" type="qcurve"/>
      <point x="1354" y="191" type="line"/>
      <point x="1326" y="107"/>
      <point x="1149" y="16"/>
      <point x="1027" y="16" type="qcurve" smooth="yes"/>
      <point x="887" y="16"/>
      <point x="684" y="137"/>
      <point x="575" y="362"/>
      <point x="575" y="518" type="qcurve" smooth="yes"/>
      <point x="575" y="677"/>
      <point x="687" y="913"/>
      <point x="892" y="1043"/>
      <point x="1029" y="1043" type="qcurve" smooth="yes"/>
      <point x="1129" y="1043"/>
      <point x="1281" y="972"/>
      <point x="1312" y="903" type="qcurve"/>
      <point x="1323" y="903" type="line"/>
      <point x="1323" y="1021" type="line"/>
      <point x="1571" y="1021" type="line"/>
      <point x="1571" y="333" type="line" smooth="yes"/>
      <point x="1571" y="294"/>
      <point x="1594" y="267"/>
      <point x="1625" y="267" type="qcurve" smooth="yes"/>
      <point x="1680" y="267"/>
      <point x="1750" y="332"/>
      <point x="1784" y="465"/>
      <point x="1784" y="566" type="qcurve" smooth="yes"/>
      <point x="1784" y="731"/>
      <point x="1699" y="975"/>
      <point x="1531" y="1135"/>
      <point x="1282" y="1214"/>
      <point x="1119" y="1214" type="qcurve" smooth="yes"/>
      <point x="937" y="1214"/>
      <point x="666" y="1120"/>
      <point x="486" y="942"/>
      <point x="396" y="686"/>
      <point x="396" y="524" type="qcurve" smooth="yes"/>
      <point x="396" y="358"/>
      <point x="488" y="105"/>
      <point x="670" y="-67"/>
      <point x="938" y="-154"/>
      <point x="1114" y="-154" type="qcurve" smooth="yes"/>
      <point x="1198" y="-154"/>
      <point x="1346" y="-135"/>
      <point x="1473" y="-100"/>
      <point x="1524" y="-77" type="qcurve"/>
      <point x="1634" y="-342" type="line"/>
      <point x="1581" y="-370"/>
      <point x="1417" y="-423"/>
      <point x="1205" y="-456"/>
    </contour>
    <contour>
      <point x="1074" y="280" type="qcurve" smooth="yes"/>
      <point x="1144" y="280"/>
      <point x="1242" y="337"/>
      <point x="1294" y="444"/>
      <point x="1294" y="519" type="qcurve" smooth="yes"/>
      <point x="1294" y="595"/>
      <point x="1243" y="698"/>
      <point x="1145" y="751"/>
      <point x="1074" y="751" type="qcurve" smooth="yes"/>
      <point x="1004" y="751"/>
      <point x="905" y="698"/>
      <point x="854" y="596"/>
      <point x="854" y="520" type="qcurve" smooth="yes"/>
      <point x="854" y="444"/>
      <point x="905" y="337"/>
      <point x="1004" y="280"/>
    </contour>
  </outline>
</glyph>
<glyph name="A" format="2">
  <advance width="1628"/>
  <unicode hex="0041"/>
  <anchor x="921" y="0" name="m.uni0326"/>
  <anchor x="921" y="1490" name="m.uni030F_1"/>
  <anchor x="1829" y="0" name="m.uni0328_4"/>
  <outline>
    <contour>
      <point x="46" y="0" type="line"/>
      <point x="529" y="1490" type="line"/>
      <point x="1081" y="1490" type="line"/>
      <point x="1582" y="0" type="line"/>
      <point x="1124" y="0" type="line"/>
      <point x="951" y="578" type="line" smooth="yes"/>
      <point x="895" y="766"/>
      <point x="797" y="1171"/>
      <point x="753" y="1371" type="qcurve"/>
      <point x="845" y="1371" type="line"/>
      <point x="803" y="1171"/>
      <point x="717" y="766"/>
      <point x="663" y="578" type="qcurve" smooth="yes"/>
      <point x="498" y="0" type="line"/>
    </contour>
    <contour>
      <point x="404" y="286" type="line"/>
      <point x="404" y="588" type="line"/>
      <point x="1224" y="588" type="line"/>
      <point x="1224" y="286" type="line"/>
    </contour>
  </outline>
</glyph>
<glyph name="D" format="2">
  <advance width="1480"/>
  <unicode hex="0044"/>
  <anchor x="750" y="0" name="m.uni0326"/>
  <anchor x="596" y="1490" name="m.uni030F_1"/>
  <outline>
    <contour>
      <point x="670" y="0" type="curve" smooth="yes"/>
      <point x="262" y="0" type="line"/>
      <point x="262" y="344" type="line"/>
      <point x="654" y="344" type="line" smooth="yes"/>
      <point x="728" y="344"/>
      <point x="791" y="356"/>
      <point x="844" y="379" type="curve" smooth="yes"/>
      <point x="948" y="426"/>
      <point x="1004" y="537"/>
      <point x="1004" y="744" type="curve" smooth="yes"/>
      <point x="1004" y="848"/>
      <point x="990" y="929"/>
      <point x="962" y="988" type="curve" smooth="yes"/>
      <point x="906" y="1104"/>
      <point x="798" y="1146"/>
      <point x="642" y="1146" type="curve" smooth="yes"/>
      <point x="256" y="1146" type="line"/>
      <point x="256" y="1490" type="line"/>
      <point x="664" y="1490" type="line" smooth="yes"/>
      <point x="817" y="1490"/>
      <point x="950" y="1460"/>
      <point x="1061" y="1401" type="curve" smooth="yes"/>
      <point x="1284" y="1281"/>
      <point x="1410" y="1055"/>
      <point x="1410" y="744" type="curve" smooth="yes"/>
      <point x="1410" y="589"/>
      <point x="1380" y="456"/>
      <point x="1320" y="345" type="curve" smooth="yes"/>
      <point x="1199" y="122"/>
      <point x="973" y="0"/>
    </contour>
    <contour>
      <point x="500" y="1490" type="line"/>
      <point x="500" y="0" type="line"/>
      <point x="96" y="0" type="line"/>
      <point x="96" y="1490" type="line"/>
    </contour>
  </outline>
</glyph>
<glyph name="F" format="2">
  <advance width="1196"/>
  <unicode hex="0046"/>
  <outline>
    <contour>
      <point x="96" y="0" type="line"/>
      <point x="96" y="1490" type="line"/>
      <point x="1144" y="1490" type="line"/>
      <point x="1144" y="1164" type="line"/>
      <point x="500" y="1164" type="line"/>
      <point x="500" y="828" type="line"/>
      <point x="1080" y="828" type="line"/>
      <point x="1080" y="510" type="line"/>
      <point x="500" y="510" type="line"/>
      <point x="500" y="0" type="line"/>
    </contour>
  </outline>
</glyph>
<glyph name="G.1" format="2">
  <advance width="1582"/>
  <unicode hex="0047"/>
  <outline>
    <contour>
      <point x="772" y="-20" type="curve" smooth="yes"/>
      <point x="647" y="-20"/>
      <point x="532" y="11"/>
      <point x="429" y="73" type="curve" smooth="yes"/>
      <point x="326" y="134"/>
      <point x="243" y="222"/>
      <point x="182" y="336" type="curve" smooth="yes"/>
      <point x="121" y="450"/>
      <point x="90" y="585"/>
      <point x="90" y="742" type="curve" smooth="yes"/>
      <point x="90" y="906"/>
      <point x="123" y="1045"/>
      <point x="189" y="1160" type="curve" smooth="yes"/>
      <point x="254" y="1274"/>
      <point x="342" y="1361"/>
      <point x="452" y="1421" type="curve" smooth="yes"/>
      <point x="562" y="1480"/>
      <point x="684" y="1510"/>
      <point x="818" y="1510" type="curve" smooth="yes"/>
      <point x="994" y="1510"/>
      <point x="1148" y="1458"/>
      <point x="1265" y="1366" type="curve" smooth="yes"/>
      <point x="1382" y="1274"/>
      <point x="1456" y="1147"/>
      <point x="1472" y="998" type="curve"/>
      <point x="1064" y="998" type="line"/>
      <point x="1052" y="1049"/>
      <point x="1024" y="1089"/>
      <point x="984" y="1117" type="curve"/>
      <point x="943" y="1144"/>
      <point x="890" y="1158"/>
      <point x="826" y="1158" type="curve" smooth="yes"/>
      <point x="759" y="1158"/>
      <point x="701" y="1142"/>
      <point x="653" y="1110" type="curve" smooth="yes"/>
      <point x="605" y="1077"/>
      <point x="569" y="1030"/>
      <point x="544" y="969" type="curve" smooth="yes"/>
      <point x="519" y="908"/>
      <point x="506" y="834"/>
      <point x="506" y="748" type="curve" smooth="yes"/>
      <point x="506" y="661"/>
      <point x="518" y="586"/>
      <point x="543" y="524" type="curve" smooth="yes"/>
      <point x="567" y="462"/>
      <point x="603" y="415"/>
      <point x="652" y="382" type="curve" smooth="yes"/>
      <point x="700" y="349"/>
      <point x="760" y="332"/>
      <point x="832" y="332" type="curve" smooth="yes"/>
      <point x="889" y="332"/>
      <point x="937" y="341"/>
      <point x="977" y="359" type="curve" smooth="yes"/>
      <point x="1056" y="395"/>
      <point x="1100" y="463"/>
      <point x="1100" y="552" type="curve"/>
      <point x="1258" y="552" type="line"/>
      <point x="1258" y="444" type="line" smooth="yes"/>
      <point x="1258" y="308"/>
      <point x="1214" y="193"/>
      <point x="1131" y="110" type="curve" smooth="yes"/>
      <point x="1047" y="27"/>
      <point x="925" y="-20"/>
    </contour>
    <contour>
      <point x="1241" y="0" type="line"/>
      <point x="1186" y="336" type="line"/>
      <point x="1186" y="544" type="line"/>
      <point x="830" y="544" type="line"/>
      <point x="830" y="832" type="line"/>
      <point x="1490" y="832" type="line"/>
      <point x="1490" y="0" type="line"/>
    </contour>
  </outline>
</glyph>
<glyph name="H" format="2">
  <advance width="1536"/>
  <unicode hex="0048"/>
  <outline>
    <contour>
      <point x="96" y="0" type="line"/>
      <point x="96" y="1490" type="line"/>
      <point x="500" y="1490" type="line"/>
      <point x="500" y="924" type="line"/>
      <point x="1036" y="924" type="line"/>
      <point x="1036" y="1490" type="line"/>
      <point x="1440" y="1490" type="line"/>
      <point x="1440" y="0" type="line"/>
      <point x="1036" y="0" type="line"/>
      <point x="1036" y="598" type="line"/>
      <point x="500" y="598" type="line"/>
      <point x="500" y="0" type="line"/>
    </contour>
  </outline>
</glyph>
<glyph name="J" format="2">
  <advance width="1220"/>
  <unicode hex="004A"/>
  <anchor x="970" y="1490" name="m.uni030F_1"/>
  <outline>
    <contour>
      <point x="586" y="-20" type="curve" smooth="yes"/>
      <point x="411" y="-20"/>
      <point x="277" y="22"/>
      <point x="182" y="106" type="curve" smooth="yes"/>
      <point x="87" y="190"/>
      <point x="40" y="310"/>
      <point x="40" y="466" type="curve" smooth="yes"/>
      <point x="40" y="559" type="line"/>
      <point x="444" y="559" type="line"/>
      <point x="444" y="458" type="line" smooth="yes"/>
      <point x="444" y="403"/>
      <point x="456" y="362"/>
      <point x="481" y="335" type="curve" smooth="yes"/>
      <point x="506" y="308"/>
      <point x="541" y="294"/>
      <point x="586" y="294" type="curve" smooth="yes"/>
      <point x="631" y="294"/>
      <point x="666" y="308"/>
      <point x="690" y="335" type="curve" smooth="yes"/>
      <point x="714" y="362"/>
      <point x="726" y="404"/>
      <point x="726" y="460" type="curve" smooth="yes"/>
      <point x="726" y="1490" type="line"/>
      <point x="1124" y="1490" type="line"/>
      <point x="1124" y="468" type="line" smooth="yes"/>
      <point x="1124" y="311"/>
      <point x="1078" y="191"/>
      <point x="985" y="107" type="curve" smooth="yes"/>
      <point x="892" y="22"/>
      <point x="759" y="-20"/>
    </contour>
  </outline>
</glyph>
<glyph name="K" format="2">
  <advance width="1555"/>
  <unicode hex="004B"/>
  <anchor x="820" y="0" name="m.uni0326"/>
  <anchor x="820" y="1490" name="m.uni030F_1"/>
  <outline>
    <contour>
      <point x="403" y="261" type="line"/>
      <point x="403" y="603" type="line"/>
      <point x="430" y="666"/>
      <point x="457" y="722"/>
      <point x="483" y="773" type="curve" smooth="yes"/>
      <point x="509" y="823"/>
      <point x="540" y="874"/>
      <point x="575" y="926" type="curve" smooth="yes"/>
      <point x="610" y="978"/>
      <point x="653" y="1038"/>
      <point x="706" y="1107" type="curve" smooth="yes"/>
      <point x="1002" y="1490" type="line"/>
      <point x="1481" y="1490" type="line"/>
      <point x="858" y="723" type="line"/>
      <point x="820" y="739" type="line"/>
    </contour>
    <contour>
      <point x="96" y="0" type="line"/>
      <point x="96" y="1490" type="line"/>
      <point x="500" y="1490" type="line"/>
      <point x="500" y="1170" type="line"/>
      <point x="492" y="741" type="line"/>
      <point x="500" y="544" type="line"/>
      <point x="500" y="0" type="line"/>
    </contour>
    <contour>
      <point x="1033" y="0" type="line"/>
      <point x="674" y="599" type="line"/>
      <point x="930" y="895" type="line"/>
      <point x="1509" y="0" type="line"/>
    </contour>
  </outline>
</glyph>
<glyph name="L" format="2">
  <advance width="1158"/>
  <unicode hex="004C"/>
  <outline>
    <contour>
      <point x="96" y="0" type="line"/>
      <point x="96" y="1490" type="line"/>
      <point x="500" y="1490" type="line"/>
      <point x="500" y="326" type="line"/>
      <point x="1102" y="326" type="line"/>
      <point x="1102" y="0" type="line"/>
    </contour>
  </outline>
</glyph>
<glyph name="M" format="2">
  <advance width="1958"/>
  <unicode hex="004D"/>
  <anchor x="1048" y="0" name="m.uni0326"/>
  <anchor x="1048" y="1490" name="m.uni030F_1"/>
  <outline>
    <contour>
      <point x="96" y="0" type="line"/>
      <point x="96" y="1490" type="line"/>
      <point x="734" y="1490" type="line"/>
      <point x="868" y="1024" type="line" smooth="yes"/>
      <point x="879" y="984"/>
      <point x="892" y="931"/>
      <point x="907" y="865" type="curve" smooth="yes"/>
      <point x="922" y="799"/>
      <point x="936" y="728"/>
      <point x="951" y="653" type="curve" smooth="yes"/>
      <point x="965" y="577"/>
      <point x="978" y="504"/>
      <point x="990" y="435" type="curve" smooth="yes"/>
      <point x="1002" y="365"/>
      <point x="1011" y="306"/>
      <point x="1018" y="258" type="curve"/>
      <point x="943" y="258" type="line"/>
      <point x="950" y="306"/>
      <point x="959" y="365"/>
      <point x="971" y="435" type="curve" smooth="yes"/>
      <point x="982" y="504"/>
      <point x="995" y="577"/>
      <point x="1010" y="653" type="curve" smooth="yes"/>
      <point x="1024" y="728"/>
      <point x="1038" y="799"/>
      <point x="1053" y="865" type="curve" smooth="yes"/>
      <point x="1067" y="931"/>
      <point x="1080" y="984"/>
      <point x="1091" y="1024" type="curve" smooth="yes"/>
      <point x="1223" y="1490" type="line"/>
      <point x="1862" y="1490" type="line"/>
      <point x="1862" y="0" type="line"/>
      <point x="1454" y="0" type="line"/>
      <point x="1454" y="576" type="line" smooth="yes"/>
      <point x="1454" y="644"/>
      <point x="1458" y="762"/>
      <point x="1462" y="897" type="curve" smooth="yes"/>
      <point x="1466" y="1032"/>
      <point x="1470" y="1173"/>
      <point x="1470" y="1288" type="curve"/>
      <point x="1493" y="1288" type="line"/>
      <point x="1469" y="1161"/>
      <point x="1437" y="1021"/>
      <point x="1405" y="891" type="curve" smooth="yes"/>
      <point x="1373" y="761"/>
      <point x="1342" y="648"/>
      <point x="1321" y="576" type="curve" smooth="yes"/>
      <point x="1148" y="0" type="line"/>
      <point x="812" y="0" type="line"/>
      <point x="636" y="576" type="line" smooth="yes"/>
      <point x="615" y="648"/>
      <point x="583" y="761"/>
      <point x="550" y="891" type="curve" smooth="yes"/>
      <point x="517" y="1021"/>
      <point x="484" y="1161"/>
      <point x="459" y="1288" type="curve"/>
      <point x="488" y="1288" type="line"/>
      <point x="488" y="1173"/>
      <point x="492" y="1032"/>
      <point x="496" y="897" type="curve" smooth="yes"/>
      <point x="500" y="762"/>
      <point x="504" y="644"/>
      <point x="504" y="576" type="curve" smooth="yes"/>
      <point x="504" y="0" type="line"/>
    </contour>
  </outline>
</glyph>
<glyph name="N" format="2">
  <advance width="1576"/>
  <unicode hex="004E"/>
  <anchor x="819" y="0" name="m.uni0326"/>
  <anchor x="819" y="1490" name="m.uni030F_1"/>
  <outline>
    <contour>
      <point x="96" y="0" type="line"/>
      <point x="96" y="1490" type="line"/>
      <point x="536" y="1490" type="line"/>
      <point x="891" y="905" type="line" smooth="yes"/>
      <point x="937" y="829"/>
      <point x="1017" y="677"/>
      <point x="1092" y="494"/>
      <point x="1131" y="372" type="qcurve"/>
      <point x="1096" y="372" type="line"/>
      <point x="1091" y="453"/>
      <point x="1076" y="666"/>
      <point x="1064" y="873"/>
      <point x="1064" y="944" type="qcurve" smooth="yes"/>
      <point x="1064" y="1490" type="line"/>
      <point x="1480" y="1490" type="line"/>
      <point x="1480" y="0" type="line"/>
      <point x="1040" y="0" type="line"/>
      <point x="709" y="544" type="line" smooth="yes"/>
      <point x="653" y="637"/>
      <point x="568" y="798"/>
      <point x="489" y="978"/>
      <point x="438" y="1096" type="qcurve"/>
      <point x="480" y="1096" type="line"/>
      <point x="488" y="991"/>
      <point x="503" y="783"/>
      <point x="512" y="605"/>
      <point x="512" y="544" type="qcurve" smooth="yes"/>
      <point x="512" y="0" type="line"/>
    </contour>
  </outline>
</glyph>
<glyph name="P" format="2">
  <advance width="1344"/>
  <unicode hex="0050"/>
  <anchor x="654" y="1490" name="m.uni030F_1"/>
  <outline>
    <contour>
      <point x="96" y="0" type="line"/>
      <point x="96" y="1490" type="line"/>
      <point x="738" y="1490" type="line" smooth="yes"/>
      <point x="904" y="1490"/>
      <point x="1153" y="1359"/>
      <point x="1292" y="1121"/>
      <point x="1292" y="962" type="qcurve" smooth="yes"/>
      <point x="1292" y="802"/>
      <point x="1150" y="569"/>
      <point x="894" y="442"/>
      <point x="724" y="442" type="qcurve" smooth="yes"/>
      <point x="340" y="442" type="line"/>
      <point x="340" y="756" type="line"/>
      <point x="642" y="756" type="line" smooth="yes"/>
      <point x="714" y="756"/>
      <point x="816" y="807"/>
      <point x="870" y="899"/>
      <point x="870" y="962" type="qcurve" smooth="yes"/>
      <point x="870" y="1027"/>
      <point x="816" y="1118"/>
      <point x="714" y="1166"/>
      <point x="642" y="1166" type="qcurve" smooth="yes"/>
      <point x="500" y="1166" type="line"/>
      <point x="500" y="0" type="line"/>
    </contour>
  </outline>
</glyph>
<glyph name="Q" format="2">
  <advance width="1632"/>
  <unicode hex="0051"/>
  <anchor x="746" y="0" name="m.uni0326"/>
  <anchor x="746" y="1490" name="m.uni030F_1"/>
  <anchor x="1456" y="744" name="m.uni0328_4"/>
  <outline>
    <contour>
      <point x="672" y="552" type="line"/>
      <point x="986" y="552" type="line"/>
      <point x="1100" y="410" type="line"/>
      <point x="1292" y="192" type="line"/>
      <point x="1542" y="-110" type="line"/>
      <point x="1184" y="-110" type="line"/>
      <point x="1006" y="96" type="line"/>
      <point x="888" y="268" type="line"/>
    </contour>
    <contour>
      <point x="814" y="-20" type="qcurve" smooth="yes"/>
      <point x="611" y="-20"/>
      <point x="282" y="156"/>
      <point x="90" y="497"/>
      <point x="90" y="744" type="qcurve" smooth="yes"/>
      <point x="90" y="993"/>
      <point x="282" y="1335"/>
      <point x="611" y="1510"/>
      <point x="814" y="1510" type="qcurve" smooth="yes"/>
      <point x="1017" y="1510"/>
      <point x="1345" y="1335"/>
      <point x="1538" y="993"/>
      <point x="1538" y="744" type="qcurve" smooth="yes"/>
      <point x="1538" y="496"/>
      <point x="1345" y="155"/>
      <point x="1017" y="-20"/>
    </contour>
    <contour>
      <point x="814" y="332" type="qcurve" smooth="yes"/>
      <point x="915" y="332"/>
      <point x="1052" y="427"/>
      <point x="1122" y="611"/>
      <point x="1122" y="744" type="qcurve" smooth="yes"/>
      <point x="1122" y="878"/>
      <point x="1052" y="1063"/>
      <point x="915" y="1158"/>
      <point x="814" y="1158" type="qcurve" smooth="yes"/>
      <point x="714" y="1158"/>
      <point x="577" y="1063"/>
      <point x="506" y="878"/>
      <point x="506" y="744" type="qcurve" smooth="yes"/>
      <point x="506" y="611"/>
      <point x="577" y="427"/>
      <point x="714" y="332"/>
    </contour>
  </outline>
</glyph>
<glyph name="R" format="2">
  <advance width="1368"/>
  <unicode hex="0052"/>
  <anchor x="735" y="0" name="m.uni0326"/>
  <anchor x="712" y="1490" name="m.uni030F_1"/>
  <outline>
    <contour>
      <point x="96" y="0" type="line"/>
      <point x="96" y="1490" type="line"/>
      <point x="738" y="1490" type="line" smooth="yes"/>
      <point x="849" y="1490"/>
      <point x="946" y="1470"/>
      <point x="1029" y="1430" type="curve" smooth="yes"/>
      <point x="1195" y="1349"/>
      <point x="1292" y="1195"/>
      <point x="1292" y="984" type="curve" smooth="yes"/>
      <point x="1292" y="877"/>
      <point x="1268" y="787"/>
      <point x="1221" y="714" type="curve" smooth="yes"/>
      <point x="1126" y="567"/>
      <point x="951" y="492"/>
      <point x="724" y="492" type="curve" smooth="yes"/>
      <point x="340" y="492" type="line"/>
      <point x="340" y="806" type="line"/>
      <point x="642" y="806" type="line" smooth="yes"/>
      <point x="690" y="806"/>
      <point x="731" y="812"/>
      <point x="765" y="824" type="curve" smooth="yes"/>
      <point x="833" y="848"/>
      <point x="870" y="899"/>
      <point x="870" y="984" type="curve" smooth="yes"/>
      <point x="870" y="1027"/>
      <point x="861" y="1061"/>
      <point x="843" y="1088" type="curve" smooth="yes"/>
      <point x="807" y="1141"/>
      <point x="738" y="1166"/>
      <point x="642" y="1166" type="curve" smooth="yes"/>
      <point x="500" y="1166" type="line"/>
      <point x="500" y="0" type="line"/>
    </contour>
    <contour>
      <point x="902" y="0" type="line"/>
      <point x="538" y="684" type="line"/>
      <point x="968" y="684" type="line"/>
      <point x="1342" y="0" type="line"/>
    </contour>
  </outline>
</glyph>
<glyph name="S" format="2">
  <advance width="1364"/>
  <unicode hex="0053"/>
  <anchor x="761" y="0" name="m.uni0326"/>
  <anchor x="761" y="1490" name="m.uni030F_1"/>
  <anchor x="754" y="0" name="m.uni0327_3"/>
  <outline>
    <contour>
      <point x="702" y="-18" type="curve" smooth="yes"/>
      <point x="573" y="-18"/>
      <point x="460" y="1"/>
      <point x="364" y="40" type="curve" smooth="yes"/>
      <point x="171" y="116"/>
      <point x="59" y="275"/>
      <point x="58" y="524" type="curve"/>
      <point x="442" y="524" type="line"/>
      <point x="445" y="479"/>
      <point x="456" y="440"/>
      <point x="477" y="409" type="curve"/>
      <point x="517" y="346"/>
      <point x="592" y="314"/>
      <point x="696" y="314" type="curve" smooth="yes"/>
      <point x="739" y="314"/>
      <point x="776" y="319"/>
      <point x="805" y="330" type="curve" smooth="yes"/>
      <point x="864" y="351"/>
      <point x="894" y="391"/>
      <point x="894" y="440" type="curve" smooth="yes"/>
      <point x="894" y="463"/>
      <point x="887" y="483"/>
      <point x="873" y="500" type="curve" smooth="yes"/>
      <point x="844" y="534"/>
      <point x="781" y="561"/>
      <point x="670" y="584" type="curve" smooth="yes"/>
      <point x="520" y="616" type="line" smooth="yes"/>
      <point x="389" y="644"/>
      <point x="285" y="692"/>
      <point x="210" y="760" type="curve" smooth="yes"/>
      <point x="134" y="827"/>
      <point x="96" y="919"/>
      <point x="96" y="1036" type="curve" smooth="yes"/>
      <point x="96" y="1131"/>
      <point x="122" y="1214"/>
      <point x="173" y="1285" type="curve" smooth="yes"/>
      <point x="276" y="1427"/>
      <point x="462" y="1510"/>
      <point x="698" y="1510" type="curve" smooth="yes"/>
      <point x="819" y="1510"/>
      <point x="923" y="1490"/>
      <point x="1011" y="1450" type="curve" smooth="yes"/>
      <point x="1186" y="1369"/>
      <point x="1285" y="1219"/>
      <point x="1286" y="1024" type="curve"/>
      <point x="898" y="1024" type="line"/>
      <point x="895" y="1073"/>
      <point x="877" y="1111"/>
      <point x="845" y="1138" type="curve" smooth="yes"/>
      <point x="812" y="1165"/>
      <point x="763" y="1178"/>
      <point x="698" y="1178" type="curve" smooth="yes"/>
      <point x="657" y="1178"/>
      <point x="623" y="1173"/>
      <point x="596" y="1164" type="curve"/>
      <point x="543" y="1144"/>
      <point x="518" y="1108"/>
      <point x="518" y="1064" type="curve" smooth="yes"/>
      <point x="518" y="1041"/>
      <point x="525" y="1020"/>
      <point x="539" y="1003" type="curve"/>
      <point x="552" y="985"/>
      <point x="574" y="970"/>
      <point x="604" y="957" type="curve" smooth="yes"/>
      <point x="633" y="944"/>
      <point x="671" y="932"/>
      <point x="718" y="922" type="curve" smooth="yes"/>
      <point x="840" y="896" type="line" smooth="yes"/>
      <point x="1004" y="861"/>
      <point x="1121" y="803"/>
      <point x="1197" y="727" type="curve" smooth="yes"/>
      <point x="1272" y="650"/>
      <point x="1306" y="553"/>
      <point x="1306" y="440" type="curve" smooth="yes"/>
      <point x="1306" y="342"/>
      <point x="1282" y="259"/>
      <point x="1234" y="191" type="curve" smooth="yes"/>
      <point x="1137" y="54"/>
      <point x="954" y="-18"/>
    </contour>
  </outline>
</glyph>
<glyph name="T" format="2">
  <advance width="1406"/>
  <unicode hex="0054"/>
  <outline>
    <contour>
      <point x="56" y="1164" type="line"/>
      <point x="56" y="1490" type="line"/>
      <point x="1350" y="1490" type="line"/>
      <point x="1350" y="1164" type="line"/>
      <point x="905" y="1164" type="line"/>
      <point x="905" y="0" type="line"/>
      <point x="501" y="0" type="line"/>
      <point x="501" y="1164" type="line"/>
    </contour>
  </outline>
</glyph>
<glyph name="U" format="2">
  <advance width="1478"/>
  <unicode hex="0055"/>
  <anchor x="740" y="0" name="m.uni0326"/>
  <anchor x="740" y="1490" name="m.uni030F_1"/>
  <anchor x="1446" y="560" name="m.uni0328_4"/>
  <outline>
    <contour>
      <point x="738" y="-18" type="curve" smooth="yes"/>
      <point x="610" y="-18"/>
      <point x="498" y="5"/>
      <point x="402" y="50" type="curve" smooth="yes"/>
      <point x="305" y="95"/>
      <point x="230" y="159"/>
      <point x="177" y="242" type="curve" smooth="yes"/>
      <point x="123" y="325"/>
      <point x="96" y="423"/>
      <point x="96" y="536" type="curve" smooth="yes"/>
      <point x="96" y="1490" type="line"/>
      <point x="500" y="1490" type="line"/>
      <point x="500" y="570" type="line" smooth="yes"/>
      <point x="500" y="523"/>
      <point x="510" y="482"/>
      <point x="531" y="447" type="curve" smooth="yes"/>
      <point x="552" y="411"/>
      <point x="580" y="383"/>
      <point x="616" y="363" type="curve"/>
      <point x="651" y="342"/>
      <point x="692" y="332"/>
      <point x="738" y="332" type="curve" smooth="yes"/>
      <point x="785" y="332"/>
      <point x="826" y="342"/>
      <point x="862" y="363" type="curve" smooth="yes"/>
      <point x="898" y="383"/>
      <point x="926" y="411"/>
      <point x="947" y="447" type="curve" smooth="yes"/>
      <point x="968" y="482"/>
      <point x="978" y="523"/>
      <point x="978" y="570" type="curve" smooth="yes"/>
      <point x="978" y="1490" type="line"/>
      <point x="1382" y="1490" type="line"/>
      <point x="1382" y="536" type="line" smooth="yes"/>
      <point x="1382" y="423"/>
      <point x="1355" y="325"/>
      <point x="1301" y="242" type="curve" smooth="yes"/>
      <point x="1247" y="159"/>
      <point x="1172" y="95"/>
      <point x="1075" y="50" type="curve" smooth="yes"/>
      <point x="978" y="5"/>
      <point x="866" y="-18"/>
    </contour>
  </outline>
</glyph>
<glyph name="V" format="2">
  <advance width="1628"/>
  <unicode hex="0056"/>
  <outline>
    <contour>
      <point x="546" y="0" type="line"/>
      <point x="46" y="1490" type="line"/>
      <point x="504" y="1490" type="line"/>
      <point x="677" y="912" type="line" smooth="yes"/>
      <point x="733" y="724"/>
      <point x="827" y="335"/>
      <point x="871" y="135" type="qcurve"/>
      <point x="781" y="135" type="line"/>
      <point x="823" y="335"/>
      <point x="911" y="724"/>
      <point x="965" y="912" type="qcurve" smooth="yes"/>
      <point x="1130" y="1490" type="line"/>
      <point x="1582" y="1490" type="line"/>
      <point x="1098" y="0" type="line"/>
    </contour>
  </outline>
</glyph>
<glyph name="W" format="2">
  <advance width="2216"/>
  <unicode hex="0057"/>
  <anchor x="1198" y="0" name="m.uni0326"/>
  <anchor x="1198" y="1490" name="m.uni030F_1"/>
  <outline>
    <contour>
      <point x="441" y="0" type="line"/>
      <point x="46" y="1490" type="line"/>
      <point x="498" y="1490" type="line"/>
      <point x="617" y="912" type="line" smooth="yes"/>
      <point x="632" y="839"/>
      <point x="646" y="760"/>
      <point x="658" y="674" type="curve" smooth="yes"/>
      <point x="682" y="501"/>
      <point x="705" y="323"/>
      <point x="729" y="176" type="curve"/>
      <point x="649" y="176" type="line"/>
      <point x="663" y="249"/>
      <point x="676" y="329"/>
      <point x="689" y="415" type="curve" smooth="yes"/>
      <point x="714" y="587"/>
      <point x="741" y="767"/>
      <point x="774" y="912" type="curve" smooth="yes"/>
      <point x="906" y="1490" type="line"/>
      <point x="1310" y="1490" type="line"/>
      <point x="1442" y="912" type="line" smooth="yes"/>
      <point x="1459" y="839"/>
      <point x="1474" y="760"/>
      <point x="1488" y="674" type="curve" smooth="yes"/>
      <point x="1515" y="501"/>
      <point x="1539" y="323"/>
      <point x="1567" y="176" type="curve"/>
      <point x="1486" y="176" type="line"/>
      <point x="1499" y="249"/>
      <point x="1511" y="329"/>
      <point x="1522" y="415" type="curve" smooth="yes"/>
      <point x="1545" y="587"/>
      <point x="1569" y="767"/>
      <point x="1598" y="912" type="curve" smooth="yes"/>
      <point x="1718" y="1490" type="line"/>
      <point x="2170" y="1490" type="line"/>
      <point x="1775" y="0" type="line"/>
      <point x="1318" y="0" type="line"/>
      <point x="1170" y="607" type="line" smooth="yes"/>
      <point x="1145" y="712"/>
      <point x="1125" y="825"/>
      <point x="1110" y="946" type="curve" smooth="yes"/>
      <point x="1095" y="1067"/>
      <point x="1076" y="1184"/>
      <point x="1055" y="1296" type="curve"/>
      <point x="1161" y="1296" type="line"/>
      <point x="1136" y="1184"/>
      <point x="1117" y="1068"/>
      <point x="1105" y="947" type="curve" smooth="yes"/>
      <point x="1092" y="826"/>
      <point x="1073" y="713"/>
      <point x="1047" y="607" type="curve" smooth="yes"/>
      <point x="898" y="0" type="line"/>
    </contour>
  </outline>
</glyph>
<glyph name="X" format="2">
  <advance width="1610"/>
  <unicode hex="0058"/>
  <anchor x="901" y="-6" name="m.uni0326"/>
  <anchor x="901" y="1490" name="m.uni030F_1"/>
  <outline>
    <contour>
      <point x="46" y="0" type="line"/>
      <point x="688" y="911" type="line"/>
      <point x="688" y="602" type="line"/>
      <point x="106" y="1490" type="line"/>
      <point x="575" y="1490" type="line"/>
      <point x="694" y="1296" type="line" smooth="yes"/>
      <point x="723" y="1249"/>
      <point x="748" y="1204"/>
      <point x="767" y="1161" type="curve" smooth="yes"/>
      <point x="786" y="1118"/>
      <point x="803" y="1077"/>
      <point x="819" y="1039" type="curve"/>
      <point x="834" y="1000"/>
      <point x="851" y="964"/>
      <point x="870" y="931" type="curve"/>
      <point x="748" y="931" type="line"/>
      <point x="768" y="964"/>
      <point x="786" y="1000"/>
      <point x="802" y="1039" type="curve" smooth="yes"/>
      <point x="834" y="1115"/>
      <point x="869" y="1201"/>
      <point x="928" y="1296" type="curve" smooth="yes"/>
      <point x="1049" y="1490" type="line"/>
      <point x="1506" y="1490" type="line"/>
      <point x="942" y="626" type="line"/>
      <point x="942" y="915" type="line"/>
      <point x="1564" y="0" type="line"/>
      <point x="1081" y="0" type="line"/>
      <point x="919" y="256" type="line" smooth="yes"/>
      <point x="892" y="299"/>
      <point x="872" y="335"/>
      <point x="857" y="364" type="curve" smooth="yes"/>
      <point x="827" y="422"/>
      <point x="809" y="464"/>
      <point x="777" y="515" type="curve"/>
      <point x="831" y="515" type="line"/>
      <point x="816" y="490"/>
      <point x="802" y="465"/>
      <point x="791" y="442" type="curve" smooth="yes"/>
      <point x="768" y="394"/>
      <point x="743" y="340"/>
      <point x="687" y="256" type="curve" smooth="yes"/>
      <point x="516" y="0" type="line"/>
    </contour>
  </outline>
</glyph>
<glyph name="Y" format="2">
  <advance width="1588"/>
  <unicode hex="0059"/>
  <outline>
    <contour>
      <point x="601" y="0" type="line"/>
      <point x="601" y="518" type="line"/>
      <point x="46" y="1490" type="line"/>
      <point x="521" y="1490" type="line"/>
      <point x="736" y="1040" type="line" smooth="yes"/>
      <point x="765" y="979"/>
      <point x="811" y="850"/>
      <point x="835" y="768" type="qcurve"/>
      <point x="776" y="768" type="line"/>
      <point x="798" y="850"/>
      <point x="840" y="979"/>
      <point x="868" y="1040" type="qcurve" smooth="yes"/>
      <point x="1069" y="1490" type="line"/>
      <point x="1542" y="1490" type="line"/>
      <point x="1003" y="518" type="line"/>
      <point x="1003" y="0" type="line"/>
    </contour>
  </outline>
</glyph>
<glyph name="Z" format="2">
  <advance width="1422"/>
  <unicode hex="005A"/>
  <anchor x="748" y="0" name="m.uni0326"/>
  <anchor x="756" y="1490" name="m.uni030F_1"/>
  <outline>
    <contour>
      <point x="102" y="0" type="line"/>
      <point x="102" y="224" type="line"/>
      <point x="806" y="1164" type="line"/>
      <point x="104" y="1164" type="line"/>
      <point x="104" y="1490" type="line"/>
      <point x="1320" y="1490" type="line"/>
      <point x="1320" y="1266" type="line"/>
      <point x="616" y="326" type="line"/>
      <point x="1318" y="326" type="line"/>
      <point x="1318" y="0" type="line"/>
    </contour>
  </outline>
</glyph>
<glyph name="a" format="2">
  <advance width="1222"/>
  <unicode hex="0061"/>
  <outline>
    <contour>
      <point x="414" y="-18" type="curve" smooth="yes"/>
      <point x="343" y="-18"/>
      <point x="280" y="-6"/>
      <point x="225" y="18" type="curve" smooth="yes"/>
      <point x="115" y="65"/>
      <point x="50" y="160"/>
      <point x="50" y="308" type="curve" smooth="yes"/>
      <point x="50" y="431"/>
      <point x="93" y="516"/>
      <point x="168" y="572" type="curve" smooth="yes"/>
      <point x="243" y="627"/>
      <point x="344" y="656"/>
      <point x="460" y="664" type="curve" smooth="yes"/>
      <point x="718" y="682" type="line"/>
      <point x="718" y="766" type="line" smooth="yes"/>
      <point x="718" y="785"/>
      <point x="713" y="802"/>
      <point x="703" y="815" type="curve" smooth="yes"/>
      <point x="682" y="842"/>
      <point x="644" y="856"/>
      <point x="592" y="856" type="curve" smooth="yes"/>
      <point x="567" y="856"/>
      <point x="544" y="852"/>
      <point x="523" y="845" type="curve"/>
      <point x="482" y="830"/>
      <point x="453" y="801"/>
      <point x="444" y="756" type="curve"/>
      <point x="82" y="792" type="line"/>
      <point x="93" y="855"/>
      <point x="119" y="912"/>
      <point x="160" y="963" type="curve" smooth="yes"/>
      <point x="243" y="1066"/>
      <point x="389" y="1132"/>
      <point x="598" y="1132" type="curve" smooth="yes"/>
      <point x="677" y="1132"/>
      <point x="749" y="1123"/>
      <point x="814" y="1104" type="curve" smooth="yes"/>
      <point x="878" y="1085"/>
      <point x="933" y="1059"/>
      <point x="979" y="1026" type="curve" smooth="yes"/>
      <point x="1024" y="993"/>
      <point x="1059" y="954"/>
      <point x="1084" y="910" type="curve"/>
      <point x="1108" y="865"/>
      <point x="1120" y="817"/>
      <point x="1120" y="766" type="curve" smooth="yes"/>
      <point x="1120" y="421" type="line" smooth="yes"/>
      <point x="1120" y="359"/>
      <point x="1114" y="275"/>
      <point x="1170" y="275" type="curve" smooth="yes"/>
      <point x="1190" y="275" type="line"/>
      <point x="1190" y="0" type="line"/>
      <point x="1044" y="0" type="line" smooth="yes"/>
      <point x="825" y="0"/>
      <point x="744" y="110"/>
      <point x="744" y="158" type="curve"/>
      <point x="744" y="158" type="line"/>
      <point x="736" y="158" type="line"/>
      <point x="713" y="116"/>
      <point x="686" y="82"/>
      <point x="655" y="57" type="curve" smooth="yes"/>
      <point x="591" y="5"/>
      <point x="511" y="-18"/>
    </contour>
    <contour>
      <point x="544" y="236" type="curve" smooth="yes"/>
      <point x="575" y="236"/>
      <point x="604" y="242"/>
      <point x="631" y="255" type="curve" smooth="yes"/>
      <point x="685" y="280"/>
      <point x="722" y="328"/>
      <point x="722" y="396" type="curve" smooth="yes"/>
      <point x="722" y="473" type="line"/>
      <point x="562" y="448" type="line" smooth="yes"/>
      <point x="531" y="443"/>
      <point x="505" y="436"/>
      <point x="486" y="425" type="curve" smooth="yes"/>
      <point x="446" y="403"/>
      <point x="428" y="371"/>
      <point x="428" y="332" type="curve" smooth="yes"/>
      <point x="428" y="311"/>
      <point x="433" y="294"/>
      <point x="443" y="280" type="curve" smooth="yes"/>
      <point x="463" y="251"/>
      <point x="499" y="236"/>
    </contour>
  </outline>
</glyph>
<glyph name="b" format="2">
  <advance width="1322"/>
  <unicode hex="0062"/>
  <anchor x="634" y="0" name="m.uni0326"/>
  <anchor x="1014" y="1346" name="m.uni030F_1"/>
  <outline>
    <contour>
      <point x="820" y="-14" type="qcurve" smooth="yes"/>
      <point x="742" y="-14"/>
      <point x="619" y="38"/>
      <point x="533" y="127"/>
      <point x="510" y="184" type="qcurve"/>
      <point x="500" y="184" type="line"/>
      <point x="500" y="0" type="line"/>
      <point x="102" y="0" type="line"/>
      <point x="102" y="1490" type="line"/>
      <point x="504" y="1490" type="line"/>
      <point x="504" y="922" type="line"/>
      <point x="510" y="922" type="line"/>
      <point x="532" y="979"/>
      <point x="616" y="1075"/>
      <point x="741" y="1132"/>
      <point x="824" y="1132" type="qcurve" smooth="yes"/>
      <point x="935" y="1132"/>
      <point x="1134" y="1014"/>
      <point x="1260" y="761"/>
      <point x="1260" y="558" type="qcurve" smooth="yes"/>
      <point x="1260" y="365"/>
      <point x="1140" y="111"/>
      <point x="940" y="-14"/>
    </contour>
    <contour>
      <point x="672" y="294" type="qcurve" smooth="yes"/>
      <point x="728" y="294"/>
      <point x="805" y="357"/>
      <point x="846" y="476"/>
      <point x="846" y="558" type="qcurve" smooth="yes"/>
      <point x="846" y="641"/>
      <point x="805" y="760"/>
      <point x="728" y="824"/>
      <point x="672" y="824" type="qcurve" smooth="yes"/>
      <point x="617" y="824"/>
      <point x="537" y="760"/>
      <point x="494" y="641"/>
      <point x="494" y="558" type="qcurve" smooth="yes"/>
      <point x="494" y="477"/>
      <point x="537" y="359"/>
      <point x="617" y="294"/>
    </contour>
  </outline>
</glyph>
<glyph name="e" format="2">
  <advance width="1242"/>
  <unicode hex="0065"/>
  <anchor x="671" y="0" name="m.uni0326"/>
  <anchor x="671" y="1118" name="m.uni030F_1"/>
  <anchor x="680" y="0" name="m.uni0327_3"/>
  <anchor x="1304" y="336" name="m.uni0328_4"/>
  <outline>
    <contour>
      <point x="638" y="-20" type="curve" smooth="yes"/>
      <point x="519" y="-20"/>
      <point x="416" y="3"/>
      <point x="330" y="49" type="curve" smooth="yes"/>
      <point x="243" y="94"/>
      <point x="177" y="160"/>
      <point x="131" y="246" type="curve" smooth="yes"/>
      <point x="85" y="332"/>
      <point x="62" y="435"/>
      <point x="62" y="556" type="curve" smooth="yes"/>
      <point x="62" y="671"/>
      <point x="85" y="772"/>
      <point x="132" y="859" type="curve" smooth="yes"/>
      <point x="178" y="945"/>
      <point x="243" y="1012"/>
      <point x="328" y="1060" type="curve" smooth="yes"/>
      <point x="413" y="1108"/>
      <point x="513" y="1132"/>
      <point x="628" y="1132" type="curve" smooth="yes"/>
      <point x="797" y="1132"/>
      <point x="936" y="1078"/>
      <point x="1033" y="979" type="curve" smooth="yes"/>
      <point x="1130" y="879"/>
      <point x="1184" y="737"/>
      <point x="1184" y="558" type="curve" smooth="yes"/>
      <point x="1184" y="466" type="line"/>
      <point x="186" y="466" type="line"/>
      <point x="186" y="686" type="line"/>
      <point x="996" y="686" type="line"/>
      <point x="808" y="640" type="line"/>
      <point x="808" y="685"/>
      <point x="801" y="724"/>
      <point x="788" y="755" type="curve" smooth="yes"/>
      <point x="775" y="786"/>
      <point x="755" y="809"/>
      <point x="729" y="826" type="curve" smooth="yes"/>
      <point x="703" y="842"/>
      <point x="671" y="850"/>
      <point x="632" y="850" type="curve" smooth="yes"/>
      <point x="593" y="850"/>
      <point x="561" y="842"/>
      <point x="535" y="826" type="curve" smooth="yes"/>
      <point x="509" y="809"/>
      <point x="489" y="786"/>
      <point x="476" y="755" type="curve" smooth="yes"/>
      <point x="463" y="724"/>
      <point x="456" y="685"/>
      <point x="456" y="640" type="curve" smooth="yes"/>
      <point x="456" y="480" type="line" smooth="yes"/>
      <point x="456" y="431"/>
      <point x="464" y="390"/>
      <point x="480" y="358" type="curve"/>
      <point x="495" y="325"/>
      <point x="517" y="301"/>
      <point x="546" y="286" type="curve" smooth="yes"/>
      <point x="575" y="270"/>
      <point x="608" y="262"/>
      <point x="646" y="262" type="curve" smooth="yes"/>
      <point x="673" y="262"/>
      <point x="698" y="266"/>
      <point x="721" y="274" type="curve" smooth="yes"/>
      <point x="743" y="281"/>
      <point x="762" y="292"/>
      <point x="778" y="307" type="curve" smooth="yes"/>
      <point x="794" y="321"/>
      <point x="806" y="338"/>
      <point x="814" y="359" type="curve"/>
      <point x="1168" y="307" type="line"/>
      <point x="1149" y="240"/>
      <point x="1116" y="183"/>
      <point x="1069" y="134" type="curve" smooth="yes"/>
      <point x="1022" y="85"/>
      <point x="962" y="47"/>
      <point x="890" y="20" type="curve" smooth="yes"/>
      <point x="817" y="-7"/>
      <point x="733" y="-20"/>
    </contour>
  </outline>
</glyph>
<glyph name="f" format="2">
  <advance width="864"/>
  <unicode hex="0066"/>
  <outline>
    <contour>
      <point x="811" y="1118" type="line"/>
      <point x="811" y="826" type="line"/>
      <point x="20" y="826" type="line"/>
      <point x="20" y="1118" type="line"/>
    </contour>
    <contour>
      <point x="198" y="0" type="line"/>
      <point x="198" y="1150" type="line" smooth="yes"/>
      <point x="198" y="1288"/>
      <point x="296" y="1470"/>
      <point x="476" y="1560"/>
      <point x="598" y="1560" type="qcurve" smooth="yes"/>
      <point x="675" y="1560"/>
      <point x="820" y="1536"/>
      <point x="854" y="1528" type="qcurve"/>
      <point x="796" y="1240" type="line"/>
      <point x="774" y="1246"/>
      <point x="717" y="1254"/>
      <point x="694" y="1254" type="qcurve" smooth="yes"/>
      <point x="638" y="1254"/>
      <point x="598" y="1206"/>
      <point x="598" y="1166" type="qcurve" smooth="yes"/>
      <point x="598" y="0" type="line"/>
    </contour>
  </outline>
</glyph>
<glyph name="l" format="2">
  <advance width="606"/>
  <unicode hex="006C"/>
  <anchor x="325" y="0" name="m.uni0326"/>
  <anchor x="324" y="1490" name="m.uni030F_1"/>
  <outline>
    <contour>
      <point x="504" y="1490" type="line"/>
      <point x="504" y="0" type="line"/>
      <point x="102" y="0" type="line"/>
      <point x="102" y="1490" type="line"/>
    </contour>
  </outline>
</glyph>
<glyph name="l.ss02" format="2">
  <advance width="691"/>
  <unicode hex="006C"/>
  <unicode hex="E050"/>
  <outline>
    <contour>
      <point x="504" y="-6" type="qcurve" smooth="yes"/>
      <point x="294" y="-6"/>
      <point x="102" y="153"/>
      <point x="102" y="326" type="qcurve" smooth="yes"/>
      <point x="102" y="1490" type="line"/>
      <point x="504" y="1490" type="line"/>
      <point x="504" y="364" type="line" smooth="yes"/>
      <point x="504" y="330"/>
      <point x="542" y="294"/>
      <point x="578" y="294" type="qcurve" smooth="yes"/>
      <point x="598" y="294"/>
      <point x="621" y="297"/>
      <point x="628" y="300" type="qcurve"/>
      <point x="686" y="24" type="line"/>
      <point x="662" y="15"/>
      <point x="569" y="-6"/>
    </contour>
  </outline>
</glyph>
<glyph name="n" format="2">
  <advance width="1330"/>
  <unicode hex="006E"/>
  <anchor x="710" y="0" name="m.uni0326"/>
  <anchor x="712" y="1118" name="m.uni030F_1"/>
  <outline>
    <contour>
      <point x="504" y="628" type="qcurve" smooth="yes"/>
      <point x="504" y="0" type="line"/>
      <point x="102" y="0" type="line"/>
      <point x="102" y="1118" type="line"/>
      <point x="479" y="1118" type="line"/>
      <point x="487" y="832" type="line"/>
      <point x="475" y="832" type="line"/>
      <point x="513" y="959"/>
      <point x="684" y="1132"/>
      <point x="838" y="1132" type="qcurve" smooth="yes"/>
      <point x="957" y="1132"/>
      <point x="1132" y="1024"/>
      <point x="1228" y="834"/>
      <point x="1228" y="712" type="qcurve" smooth="yes"/>
      <point x="1228" y="0" type="line"/>
      <point x="826" y="0" type="line"/>
      <point x="826" y="628" type="line" smooth="yes"/>
      <point x="826" y="711"/>
      <point x="742" y="806"/>
      <point x="666" y="806" type="qcurve" smooth="yes"/>
      <point x="617" y="806"/>
      <point x="544" y="763"/>
      <point x="504" y="684"/>
    </contour>
  </outline>
</glyph>
<glyph name="o" format="2">
  <advance width="1280"/>
  <unicode hex="006F"/>
  <anchor x="700" y="0" name="m.uni0326"/>
  <anchor x="700" y="1118" name="m.uni030F_1"/>
  <anchor x="1364" y="558" name="m.uni0328_4"/>
  <outline>
    <contour>
      <point x="641" y="-20" type="curve" smooth="yes"/>
      <point x="520" y="-20"/>
      <point x="416" y="4"/>
      <point x="329" y="53" type="curve" smooth="yes"/>
      <point x="242" y="101"/>
      <point x="176" y="168"/>
      <point x="131" y="255" type="curve" smooth="yes"/>
      <point x="85" y="341"/>
      <point x="62" y="441"/>
      <point x="62" y="556" type="curve" smooth="yes"/>
      <point x="62" y="671"/>
      <point x="85" y="771"/>
      <point x="131" y="858" type="curve" smooth="yes"/>
      <point x="176" y="944"/>
      <point x="242" y="1011"/>
      <point x="329" y="1060" type="curve" smooth="yes"/>
      <point x="416" y="1108"/>
      <point x="520" y="1132"/>
      <point x="641" y="1132" type="curve" smooth="yes"/>
      <point x="762" y="1132"/>
      <point x="866" y="1108"/>
      <point x="952" y="1060" type="curve" smooth="yes"/>
      <point x="1038" y="1011"/>
      <point x="1104" y="944"/>
      <point x="1150" y="858" type="curve" smooth="yes"/>
      <point x="1195" y="771"/>
      <point x="1218" y="671"/>
      <point x="1218" y="556" type="curve" smooth="yes"/>
      <point x="1218" y="441"/>
      <point x="1195" y="341"/>
      <point x="1150" y="255" type="curve" smooth="yes"/>
      <point x="1104" y="168"/>
      <point x="1038" y="101"/>
      <point x="952" y="53" type="curve" smooth="yes"/>
      <point x="866" y="4"/>
      <point x="762" y="-20"/>
    </contour>
    <contour>
      <point x="641" y="280" type="curve" smooth="yes"/>
      <point x="676" y="280"/>
      <point x="706" y="291"/>
      <point x="731" y="313" type="curve" smooth="yes"/>
      <point x="756" y="335"/>
      <point x="775" y="367"/>
      <point x="788" y="409" type="curve" smooth="yes"/>
      <point x="801" y="450"/>
      <point x="808" y="500"/>
      <point x="808" y="558" type="curve" smooth="yes"/>
      <point x="808" y="617"/>
      <point x="801" y="666"/>
      <point x="788" y="707" type="curve" smooth="yes"/>
      <point x="775" y="748"/>
      <point x="756" y="779"/>
      <point x="731" y="800" type="curve" smooth="yes"/>
      <point x="706" y="821"/>
      <point x="676" y="832"/>
      <point x="641" y="832" type="curve" smooth="yes"/>
      <point x="606" y="832"/>
      <point x="575" y="821"/>
      <point x="550" y="800" type="curve" smooth="yes"/>
      <point x="525" y="779"/>
      <point x="505" y="748"/>
      <point x="492" y="707" type="curve" smooth="yes"/>
      <point x="479" y="666"/>
      <point x="472" y="617"/>
      <point x="472" y="558" type="curve" smooth="yes"/>
      <point x="472" y="500"/>
      <point x="479" y="450"/>
      <point x="492" y="409" type="curve" smooth="yes"/>
      <point x="505" y="367"/>
      <point x="525" y="335"/>
      <point x="550" y="313" type="curve" smooth="yes"/>
      <point x="575" y="291"/>
      <point x="606" y="280"/>
    </contour>
  </outline>
</glyph>
<glyph name="p" format="2">
  <advance width="1322"/>
  <unicode hex="0070"/>
  <anchor x="382" y="-402" name="m.uni0326"/>
  <anchor x="721" y="1118" name="m.uni030F_1"/>
  <outline>
    <contour>
      <point x="102" y="-418" type="line"/>
      <point x="102" y="1118" type="line"/>
      <point x="500" y="1118" type="line"/>
      <point x="500" y="922" type="line"/>
      <point x="510" y="922" type="line"/>
      <point x="525" y="960"/>
      <point x="546" y="995"/>
      <point x="574" y="1027" type="curve" smooth="yes"/>
      <point x="602" y="1059"/>
      <point x="637" y="1085"/>
      <point x="679" y="1104" type="curve" smooth="yes"/>
      <point x="720" y="1123"/>
      <point x="769" y="1132"/>
      <point x="824" y="1132" type="curve" smooth="yes"/>
      <point x="898" y="1132"/>
      <point x="968" y="1112"/>
      <point x="1035" y="1073" type="curve" smooth="yes"/>
      <point x="1101" y="1034"/>
      <point x="1155" y="972"/>
      <point x="1197" y="888" type="curve" smooth="yes"/>
      <point x="1239" y="803"/>
      <point x="1260" y="693"/>
      <point x="1260" y="558" type="curve" smooth="yes"/>
      <point x="1260" y="429"/>
      <point x="1240" y="323"/>
      <point x="1200" y="238" type="curve" smooth="yes"/>
      <point x="1120" y="69"/>
      <point x="980" y="-14"/>
      <point x="820" y="-14" type="curve" smooth="yes"/>
      <point x="768" y="-14"/>
      <point x="722" y="-5"/>
      <point x="681" y="12" type="curve" smooth="yes"/>
      <point x="640" y="29"/>
      <point x="605" y="53"/>
      <point x="576" y="83" type="curve" smooth="yes"/>
      <point x="547" y="112"/>
      <point x="525" y="146"/>
      <point x="510" y="184" type="curve"/>
      <point x="504" y="184" type="line"/>
      <point x="504" y="-418" type="line"/>
    </contour>
    <contour>
      <point x="672" y="294" type="curve" smooth="yes"/>
      <point x="709" y="294"/>
      <point x="741" y="305"/>
      <point x="767" y="326" type="curve" smooth="yes"/>
      <point x="818" y="368"/>
      <point x="846" y="449"/>
      <point x="846" y="558" type="curve" smooth="yes"/>
      <point x="846" y="613"/>
      <point x="839" y="661"/>
      <point x="826" y="701" type="curve"/>
      <point x="798" y="780"/>
      <point x="747" y="824"/>
      <point x="672" y="824" type="curve" smooth="yes"/>
      <point x="635" y="824"/>
      <point x="604" y="813"/>
      <point x="577" y="792" type="curve" smooth="yes"/>
      <point x="524" y="749"/>
      <point x="494" y="669"/>
      <point x="494" y="558" type="curve" smooth="yes"/>
      <point x="494" y="504"/>
      <point x="501" y="457"/>
      <point x="516" y="418" type="curve"/>
      <point x="544" y="339"/>
      <point x="599" y="294"/>
    </contour>
  </outline>
</glyph>
<glyph name="t" format="2">
  <advance width="818"/>
  <unicode hex="0074"/>
  <anchor x="553" y="0" name="m.uni0326"/>
  <anchor x="473" y="1384" name="m.uni030F_1"/>
  <anchor x="634" y="0" name="m.uni0327_3"/>
  <outline>
    <contour>
      <point x="756" y="1118" type="line"/>
      <point x="756" y="826" type="line"/>
      <point x="20" y="826" type="line"/>
      <point x="20" y="1118" type="line"/>
    </contour>
    <contour>
      <point x="162" y="1384" type="line"/>
      <point x="564" y="1384" type="line"/>
      <point x="564" y="359" type="line" smooth="yes"/>
      <point x="564" y="336"/>
      <point x="570" y="318"/>
      <point x="582" y="307" type="curve" smooth="yes"/>
      <point x="594" y="295"/>
      <point x="613" y="289"/>
      <point x="640" y="289" type="curve" smooth="yes"/>
      <point x="652" y="289"/>
      <point x="670" y="291"/>
      <point x="693" y="294" type="curve" smooth="yes"/>
      <point x="716" y="297"/>
      <point x="731" y="299"/>
      <point x="738" y="302" type="curve"/>
      <point x="786" y="15" type="line"/>
      <point x="694" y="-10"/>
      <point x="613" y="-17"/>
      <point x="541" y="-17" type="curve" smooth="yes"/>
      <point x="416" y="-17"/>
      <point x="321" y="12"/>
      <point x="258" y="69" type="curve" smooth="yes"/>
      <point x="194" y="126"/>
      <point x="162" y="211"/>
      <point x="162" y="322" type="curve" smooth="yes"/>
    </contour>
  </outline>
</glyph>
<glyph name="u" format="2">
  <advance width="1330"/>
  <unicode hex="0075"/>
  <outline>
    <contour>
      <point x="492" y="-14" type="qcurve" smooth="yes"/>
      <point x="374" y="-14"/>
      <point x="198" y="94"/>
      <point x="102" y="284"/>
      <point x="102" y="406" type="qcurve" smooth="yes"/>
      <point x="102" y="1118" type="line"/>
      <point x="504" y="1118" type="line"/>
      <point x="504" y="490" type="line" smooth="yes"/>
      <point x="504" y="407"/>
      <point x="588" y="312"/>
      <point x="664" y="312" type="qcurve" smooth="yes"/>
      <point x="714" y="312"/>
      <point x="786" y="355"/>
      <point x="826" y="435"/>
      <point x="826" y="490" type="qcurve" smooth="yes"/>
      <point x="826" y="1118" type="line"/>
      <point x="1228" y="1118" type="line"/>
      <point x="1228" y="0" type="line"/>
      <point x="851" y="0" type="line"/>
      <point x="843" y="286" type="line"/>
      <point x="855" y="286" type="line"/>
      <point x="817" y="159"/>
      <point x="646" y="-14"/>
    </contour>
  </outline>
</glyph>
<glyph name="v" format="2">
  <advance width="1294"/>
  <unicode hex="0076"/>
  <anchor x="727" y="0" name="m.uni0326"/>
  <anchor x="727" y="1118" name="m.uni030F_1"/>
  <outline>
    <contour>
      <point x="410" y="0" type="line"/>
      <point x="12" y="1118" type="line"/>
      <point x="434" y="1118" type="line"/>
      <point x="579" y="608" type="line" smooth="yes"/>
      <point x="622" y="457"/>
      <point x="652" y="304"/>
      <point x="685" y="120" type="curve"/>
      <point x="622" y="120" type="line"/>
      <point x="654" y="304"/>
      <point x="684" y="456"/>
      <point x="725" y="608" type="curve" smooth="yes"/>
      <point x="866" y="1118" type="line"/>
      <point x="1282" y="1118" type="line"/>
      <point x="882" y="0" type="line"/>
    </contour>
  </outline>
</glyph>
<glyph name="w" format="2">
  <advance width="1796"/>
  <unicode hex="0077"/>
  <anchor x="1014" y="0" name="m.uni0326"/>
  <anchor x="1022" y="1118" name="m.uni030F_1"/>
  <outline>
    <contour>
      <point x="320" y="0" type="line"/>
      <point x="-2" y="1118" type="line"/>
      <point x="418" y="1118" type="line"/>
      <point x="482" y="768" type="line" smooth="yes"/>
      <point x="511" y="608"/>
      <point x="551" y="432"/>
      <point x="576" y="224" type="curve"/>
      <point x="539" y="224" type="line"/>
      <point x="570" y="432"/>
      <point x="616" y="609"/>
      <point x="649" y="768" type="curve" smooth="yes"/>
      <point x="724" y="1118" type="line"/>
      <point x="1072" y="1118" type="line"/>
      <point x="1143" y="768" type="line" smooth="yes"/>
      <point x="1175" y="608"/>
      <point x="1222" y="432"/>
      <point x="1253" y="224" type="curve"/>
      <point x="1218" y="224" type="line"/>
      <point x="1242" y="432"/>
      <point x="1277" y="608"/>
      <point x="1306" y="768" type="curve" smooth="yes"/>
      <point x="1370" y="1118" type="line"/>
      <point x="1798" y="1118" type="line"/>
      <point x="1472" y="0" type="line"/>
      <point x="1060" y="0" type="line"/>
      <point x="954" y="368" type="line" smooth="yes"/>
      <point x="944" y="403"/>
      <point x="934" y="447"/>
      <point x="924" y="499" type="curve" smooth="yes"/>
      <point x="913" y="550"/>
      <point x="903" y="603"/>
      <point x="894" y="656" type="curve" smooth="yes"/>
      <point x="884" y="709"/>
      <point x="874" y="754"/>
      <point x="864" y="792" type="curve"/>
      <point x="928" y="792" type="line"/>
      <point x="919" y="754"/>
      <point x="909" y="709"/>
      <point x="899" y="656" type="curve" smooth="yes"/>
      <point x="879" y="550"/>
      <point x="859" y="439"/>
      <point x="838" y="368" type="curve" smooth="yes"/>
      <point x="732" y="0" type="line"/>
    </contour>
  </outline>
</glyph>
<glyph name="x" format="2">
  <advance width="1248"/>
  <unicode hex="0078"/>
  <anchor x="680" y="0" name="m.uni0326"/>
  <anchor x="680" y="1118" name="m.uni030F_1"/>
  <outline>
    <contour>
      <point x="23" y="0" type="line"/>
      <point x="448" y="731" type="line"/>
      <point x="448" y="417" type="line"/>
      <point x="43" y="1118" type="line"/>
      <point x="464" y="1118" type="line"/>
      <point x="533" y="976" type="line" smooth="yes"/>
      <point x="590" y="859"/>
      <point x="640" y="728"/>
      <point x="689" y="609" type="curve"/>
      <point x="558" y="609" type="line"/>
      <point x="585" y="668"/>
      <point x="611" y="729"/>
      <point x="638" y="793" type="curve" smooth="yes"/>
      <point x="665" y="856"/>
      <point x="693" y="917"/>
      <point x="724" y="976" type="curve" smooth="yes"/>
      <point x="798" y="1118" type="line"/>
      <point x="1211" y="1118" type="line"/>
      <point x="794" y="418" type="line"/>
      <point x="794" y="731" type="line"/>
      <point x="1225" y="0" type="line"/>
      <point x="807" y="0" type="line"/>
      <point x="717" y="176" type="line" smooth="yes"/>
      <point x="656" y="295"/>
      <point x="603" y="429"/>
      <point x="550" y="548" type="curve"/>
      <point x="681" y="548" type="line"/>
      <point x="656" y="489"/>
      <point x="631" y="427"/>
      <point x="605" y="362" type="curve" smooth="yes"/>
      <point x="579" y="297"/>
      <point x="551" y="235"/>
      <point x="522" y="176" type="curve" smooth="yes"/>
      <point x="435" y="0" type="line"/>
    </contour>
  </outline>
</glyph>
<glyph name="z" format="2">
  <advance width="1208"/>
  <unicode hex="007A"/>
  <anchor x="663" y="0" name="m.uni0326"/>
  <anchor x="661" y="1118" name="m.uni030F_1"/>
  <outline>
    <contour>
      <point x="114" y="0" type="line"/>
      <point x="114" y="222" type="line"/>
      <point x="602" y="806" type="line"/>
      <point x="602" y="812" type="line"/>
      <point x="130" y="812" type="line"/>
      <point x="130" y="1118" type="line"/>
      <point x="1076" y="1118" type="line"/>
      <point x="1076" y="872" type="line"/>
      <point x="632" y="312" type="line"/>
      <point x="632" y="306" type="line"/>
      <point x="1094" y="306" type="line"/>
      <point x="1094" y="0" type="line"/>
    </contour>
  </outline>
</glyph>
<glyph name="braceleft" format="2">
  <advance width="1035"/>
  <unicode hex="007B"/>
  <outline>
    <contour>
      <point x="137" y="627" type="curve"/>
      <point x="137" y="825" type="line"/>
      <point x="222" y="825"/>
      <point x="281" y="842"/>
      <point x="314" y="876" type="curve" smooth="yes"/>
      <point x="347" y="909"/>
      <point x="363" y="962"/>
      <point x="363" y="1033" type="curve" smooth="yes"/>
      <point x="363" y="1161" type="line" smooth="yes"/>
      <point x="363" y="1266"/>
      <point x="379" y="1347"/>
      <point x="412" y="1405" type="curve" smooth="yes"/>
      <point x="445" y="1462"/>
      <point x="489" y="1503"/>
      <point x="545" y="1528" type="curve" smooth="yes"/>
      <point x="600" y="1553"/>
      <point x="663" y="1568"/>
      <point x="734" y="1573" type="curve" smooth="yes"/>
      <point x="804" y="1578"/>
      <point x="876" y="1581"/>
      <point x="951" y="1581" type="curve"/>
      <point x="951" y="1289" type="line"/>
      <point x="864" y="1289"/>
      <point x="806" y="1274"/>
      <point x="779" y="1245" type="curve" smooth="yes"/>
      <point x="751" y="1216"/>
      <point x="737" y="1170"/>
      <point x="737" y="1109" type="curve" smooth="yes"/>
      <point x="737" y="949" type="line" smooth="yes"/>
      <point x="737" y="877"/>
      <point x="714" y="797"/>
      <point x="631" y="734" type="curve" smooth="yes"/>
      <point x="589" y="702"/>
      <point x="529" y="676"/>
      <point x="450" y="657" type="curve" smooth="yes"/>
      <point x="371" y="637"/>
      <point x="266" y="627"/>
    </contour>
    <contour>
      <point x="951" y="-279" type="line"/>
      <point x="876" y="-279"/>
      <point x="804" y="-276"/>
      <point x="734" y="-271" type="curve" smooth="yes"/>
      <point x="663" y="-266"/>
      <point x="600" y="-251"/>
      <point x="545" y="-226" type="curve" smooth="yes"/>
      <point x="489" y="-201"/>
      <point x="445" y="-160"/>
      <point x="412" y="-103" type="curve" smooth="yes"/>
      <point x="379" y="-45"/>
      <point x="363" y="36"/>
      <point x="363" y="141" type="curve" smooth="yes"/>
      <point x="363" y="269" type="line" smooth="yes"/>
      <point x="363" y="340"/>
      <point x="347" y="393"/>
      <point x="314" y="427" type="curve" smooth="yes"/>
      <point x="281" y="460"/>
      <point x="222" y="477"/>
      <point x="137" y="477" type="curve"/>
      <point x="137" y="675" type="line"/>
      <point x="266" y="675"/>
      <point x="371" y="665"/>
      <point x="450" y="646" type="curve" smooth="yes"/>
      <point x="529" y="626"/>
      <point x="589" y="600"/>
      <point x="631" y="569" type="curve"/>
      <point x="714" y="505"/>
      <point x="737" y="425"/>
      <point x="737" y="353" type="curve" smooth="yes"/>
      <point x="737" y="193" type="line" smooth="yes"/>
      <point x="737" y="132"/>
      <point x="751" y="87"/>
      <point x="779" y="58" type="curve"/>
      <point x="806" y="28"/>
      <point x="864" y="13"/>
      <point x="951" y="13" type="curve"/>
    </contour>
    <contour>
      <point x="137" y="477" type="line"/>
      <point x="137" y="825" type="line"/>
      <point x="477" y="825" type="line"/>
      <point x="477" y="477" type="line"/>
    </contour>
  </outline>
</glyph>
<glyph name="braceright" format="2">
  <advance width="1035"/>
  <unicode hex="007D"/>
  <outline>
    <contour>
      <point x="898" y="627" type="line"/>
      <point x="705" y="627"/>
      <point x="467" y="686"/>
      <point x="342" y="781"/>
      <point x="298" y="895"/>
      <point x="298" y="949" type="qcurve" smooth="yes"/>
      <point x="298" y="1109" type="line" smooth="yes"/>
      <point x="298" y="1201"/>
      <point x="215" y="1289"/>
      <point x="84" y="1289" type="qcurve"/>
      <point x="84" y="1581" type="line"/>
      <point x="197" y="1581"/>
      <point x="407" y="1565"/>
      <point x="574" y="1491"/>
      <point x="672" y="1318"/>
      <point x="672" y="1161" type="qcurve" smooth="yes"/>
      <point x="672" y="1033" type="line" smooth="yes"/>
      <point x="672" y="926"/>
      <point x="771" y="825"/>
      <point x="898" y="825" type="qcurve"/>
    </contour>
    <contour>
      <point x="84" y="-279" type="qcurve"/>
      <point x="84" y="13" type="line"/>
      <point x="215" y="13"/>
      <point x="298" y="102"/>
      <point x="298" y="193" type="qcurve" smooth="yes"/>
      <point x="298" y="353" type="line" smooth="yes"/>
      <point x="298" y="407"/>
      <point x="342" y="521"/>
      <point x="467" y="616"/>
      <point x="705" y="675"/>
      <point x="898" y="675" type="qcurve"/>
      <point x="898" y="477" type="line"/>
      <point x="771" y="477"/>
      <point x="672" y="376"/>
      <point x="672" y="269" type="qcurve" smooth="yes"/>
      <point x="672" y="141" type="line" smooth="yes"/>
      <point x="672" y="-16"/>
      <point x="574" y="-189"/>
      <point x="407" y="-263"/>
      <point x="197" y="-279"/>
    </contour>
    <contour>
      <point x="898" y="477" type="line"/>
      <point x="558" y="477" type="line"/>
      <point x="558" y="825" type="line"/>
      <point x="898" y="825" type="line"/>
    </contour>
  </outline>
</glyph>
<glyph name="asciitilde" format="2">
  <advance width="1420"/>
  <unicode hex="007E"/>
  <outline>
    <contour>
      <point x="148" y="376" type="line"/>
      <point x="142" y="525"/>
      <point x="213" y="744"/>
      <point x="365" y="864"/>
      <point x="480" y="864" type="qcurve" smooth="yes"/>
      <point x="545" y="864"/>
      <point x="671" y="813"/>
      <point x="750" y="742" type="qcurve"/>
      <point x="785" y="712"/>
      <point x="838" y="672"/>
      <point x="876" y="672" type="qcurve" smooth="yes"/>
      <point x="920" y="672"/>
      <point x="983" y="747"/>
      <point x="980" y="834" type="qcurve"/>
      <point x="1272" y="834" type="line"/>
      <point x="1278" y="686"/>
      <point x="1203" y="466"/>
      <point x="1051" y="346"/>
      <point x="940" y="346" type="qcurve" smooth="yes"/>
      <point x="869" y="346"/>
      <point x="740" y="403"/>
      <point x="666" y="468" type="qcurve" smooth="yes"/>
      <point x="626" y="504"/>
      <point x="581" y="538"/>
      <point x="544" y="538" type="qcurve" smooth="yes"/>
      <point x="498" y="538"/>
      <point x="437" y="463"/>
      <point x="440" y="376" type="qcurve"/>
    </contour>
  </outline>
</glyph>
<glyph name="exclamdown" format="2">
  <advance width="756"/>
  <unicode hex="00A1"/>
  <outline>
    <contour>
      <point x="174" y="-376" type="line"/>
      <point x="212" y="648" type="line"/>
      <point x="544" y="648" type="line"/>
      <point x="582" y="-376" type="line"/>
    </contour>
    <contour>
      <point x="378" y="1138" type="qcurve"/>
      <point x="458" y="1137"/>
      <point x="581" y="1019"/>
      <point x="582" y="934" type="qcurve"/>
      <point x="581" y="851"/>
      <point x="458" y="732"/>
      <point x="378" y="732" type="qcurve" smooth="yes"/>
      <point x="293" y="732"/>
      <point x="174" y="851"/>
      <point x="174" y="934" type="qcurve" smooth="yes"/>
      <point x="174" y="1019"/>
      <point x="293" y="1137"/>
    </contour>
  </outline>
</glyph>
<glyph name="cent" format="2">
  <advance width="1235"/>
  <unicode hex="00A2"/>
  <anchor x="656" y="192" name="m.uni0326"/>
  <anchor x="656" y="1310" name="m.uni030F_1"/>
  <anchor x="656" y="192" name="m.uni0327_3"/>
  <outline>
    <contour>
      <point x="584" y="0" type="line"/>
      <point x="584" y="1490" type="line"/>
      <point x="704" y="1490" type="line"/>
      <point x="704" y="0" type="line"/>
    </contour>
    <contour>
      <point x="640" y="170" type="qcurve" smooth="yes"/>
      <point x="458" y="170"/>
      <point x="199" y="315"/>
      <point x="62" y="574"/>
      <point x="62" y="746" type="qcurve" smooth="yes"/>
      <point x="62" y="918"/>
      <point x="199" y="1177"/>
      <point x="458" y="1322"/>
      <point x="640" y="1322" type="qcurve" smooth="yes"/>
      <point x="756" y="1322"/>
      <point x="944" y="1262"/>
      <point x="1083" y="1151"/>
      <point x="1165" y="994"/>
      <point x="1175" y="897" type="qcurve"/>
      <point x="806" y="842" type="line"/>
      <point x="799" y="886"/>
      <point x="772" y="953"/>
      <point x="732" y="999"/>
      <point x="679" y="1022"/>
      <point x="646" y="1022" type="qcurve" smooth="yes"/>
      <point x="593" y="1022"/>
      <point x="515" y="962"/>
      <point x="472" y="840"/>
      <point x="472" y="748" type="qcurve" smooth="yes"/>
      <point x="472" y="657"/>
      <point x="515" y="533"/>
      <point x="593" y="470"/>
      <point x="646" y="470" type="qcurve" smooth="yes"/>
      <point x="679" y="470"/>
      <point x="732" y="494"/>
      <point x="773" y="541"/>
      <point x="800" y="611"/>
      <point x="806" y="656" type="qcurve"/>
      <point x="1175" y="602" type="line"/>
      <point x="1165" y="502"/>
      <point x="1083" y="343"/>
      <point x="945" y="230"/>
      <point x="756" y="170"/>
    </contour>
  </outline>
</glyph>
<glyph name="sterling" format="2">
  <advance width="1379"/>
  <unicode hex="00A3"/>
  <outline>
    <contour>
      <point x="81" y="282" type="curve"/>
      <point x="81" y="328" type="line"/>
      <point x="133" y="328"/>
      <point x="176" y="338"/>
      <point x="209" y="358" type="curve" smooth="yes"/>
      <point x="242" y="378"/>
      <point x="256" y="408"/>
      <point x="253" y="448" type="curve" smooth="yes"/>
      <point x="216" y="964" type="line" smooth="yes"/>
      <point x="207" y="1085"/>
      <point x="226" y="1186"/>
      <point x="272" y="1267" type="curve" smooth="yes"/>
      <point x="318" y="1348"/>
      <point x="383" y="1410"/>
      <point x="466" y="1452" type="curve" smooth="yes"/>
      <point x="549" y="1493"/>
      <point x="641" y="1514"/>
      <point x="744" y="1514" type="curve" smooth="yes"/>
      <point x="836" y="1514"/>
      <point x="919" y="1497"/>
      <point x="994" y="1463" type="curve" smooth="yes"/>
      <point x="1142" y="1395"/>
      <point x="1243" y="1266"/>
      <point x="1274" y="1089" type="curve"/>
      <point x="900" y="1032" type="line"/>
      <point x="893" y="1085"/>
      <point x="878" y="1124"/>
      <point x="855" y="1149" type="curve" smooth="yes"/>
      <point x="831" y="1174"/>
      <point x="797" y="1186"/>
      <point x="752" y="1186" type="curve" smooth="yes"/>
      <point x="715" y="1186"/>
      <point x="684" y="1179"/>
      <point x="661" y="1166" type="curve" smooth="yes"/>
      <point x="614" y="1138"/>
      <point x="595" y="1080"/>
      <point x="598" y="988" type="curve" smooth="yes"/>
      <point x="615" y="524" type="line" smooth="yes"/>
      <point x="617" y="467"/>
      <point x="603" y="423"/>
      <point x="572" y="390" type="curve" smooth="yes"/>
      <point x="541" y="357"/>
      <point x="502" y="332"/>
      <point x="454" y="317" type="curve" smooth="yes"/>
      <point x="405" y="301"/>
      <point x="355" y="291"/>
      <point x="304" y="286" type="curve" smooth="yes"/>
      <point x="252" y="281"/>
      <point x="206" y="280"/>
      <point x="165" y="281" type="curve" smooth="yes"/>
      <point x="124" y="282"/>
      <point x="96" y="282"/>
    </contour>
    <contour>
      <point x="80" y="0" type="line"/>
      <point x="80" y="328" type="line"/>
      <point x="1299" y="328" type="line"/>
      <point x="1299" y="0" type="line"/>
    </contour>
    <contour>
      <point x="80" y="630" type="line"/>
      <point x="80" y="860" type="line"/>
      <point x="918" y="860" type="line"/>
      <point x="918" y="630" type="line"/>
    </contour>
  </outline>
</glyph>
<glyph name="currency" format="2">
  <advance width="1624"/>
  <unicode hex="00A4"/>
  <outline>
    <contour>
      <point x="814" y="-20" type="qcurve" smooth="yes"/>
      <point x="685" y="-20"/>
      <point x="458" y="75"/>
      <point x="286" y="246"/>
      <point x="189" y="475"/>
      <point x="190" y="608" type="qcurve"/>
      <point x="189" y="741"/>
      <point x="286" y="969"/>
      <point x="458" y="1139"/>
      <point x="685" y="1234"/>
      <point x="814" y="1234" type="qcurve" smooth="yes"/>
      <point x="941" y="1234"/>
      <point x="1166" y="1139"/>
      <point x="1339" y="969"/>
      <point x="1437" y="741"/>
      <point x="1438" y="608" type="qcurve"/>
      <point x="1437" y="475"/>
      <point x="1339" y="246"/>
      <point x="1166" y="75"/>
      <point x="941" y="-20"/>
    </contour>
    <contour>
      <point x="814" y="190" type="qcurve" smooth="yes"/>
      <point x="930" y="190"/>
      <point x="1122" y="299"/>
      <point x="1236" y="489"/>
      <point x="1236" y="608" type="qcurve" smooth="yes"/>
      <point x="1236" y="729"/>
      <point x="1122" y="917"/>
      <point x="930" y="1026"/>
      <point x="814" y="1026" type="qcurve" smooth="yes"/>
      <point x="695" y="1026"/>
      <point x="503" y="917"/>
      <point x="392" y="729"/>
      <point x="392" y="608" type="qcurve" smooth="yes"/>
      <point x="392" y="489"/>
      <point x="503" y="299"/>
      <point x="695" y="190"/>
    </contour>
    <contour>
      <point x="1272" y="908" type="line"/>
      <point x="1118" y="1064" type="line"/>
      <point x="1326" y="1272" type="line"/>
      <point x="1484" y="1114" type="line"/>
    </contour>
    <contour>
      <point x="1326" y="-32" type="line"/>
      <point x="1118" y="174" type="line"/>
      <point x="1272" y="328" type="line"/>
      <point x="1484" y="126" type="line"/>
    </contour>
    <contour>
      <point x="302" y="-32" type="line"/>
      <point x="148" y="126" type="line"/>
      <point x="358" y="328" type="line"/>
      <point x="514" y="174" type="line"/>
    </contour>
    <contour>
      <point x="358" y="908" type="line"/>
      <point x="148" y="1114" type="line"/>
      <point x="302" y="1272" type="line"/>
      <point x="514" y="1064" type="line"/>
    </contour>
  </outline>
</glyph>
<glyph name="section" format="2">
  <advance width="1272"/>
  <unicode hex="00A7"/>
  <outline>
    <contour>
      <point x="1086" y="1108" type="curve"/>
      <point x="742" y="1108" type="line"/>
      <point x="741" y="1129"/>
      <point x="731" y="1146"/>
      <point x="710" y="1161" type="curve" smooth="yes"/>
      <point x="689" y="1175"/>
      <point x="659" y="1182"/>
      <point x="620" y="1182" type="curve" smooth="yes"/>
      <point x="606" y="1182"/>
      <point x="590" y="1181"/>
      <point x="572" y="1179" type="curve" smooth="yes"/>
      <point x="536" y="1175"/>
      <point x="506" y="1159"/>
      <point x="506" y="1114" type="curve" smooth="yes"/>
      <point x="506" y="1095"/>
      <point x="513" y="1078"/>
      <point x="527" y="1063" type="curve" smooth="yes"/>
      <point x="555" y="1034"/>
      <point x="599" y="1014"/>
      <point x="632" y="1006" type="curve"/>
      <point x="908" y="902" type="line" smooth="yes"/>
      <point x="947" y="887"/>
      <point x="1012" y="858"/>
      <point x="1069" y="805" type="curve" smooth="yes"/>
      <point x="1126" y="752"/>
      <point x="1165" y="672"/>
      <point x="1150" y="556" type="curve" smooth="yes"/>
      <point x="1144" y="513"/>
      <point x="1130" y="480"/>
      <point x="1107" y="457" type="curve" smooth="yes"/>
      <point x="1084" y="434"/>
      <point x="1060" y="419"/>
      <point x="1035" y="410" type="curve" smooth="yes"/>
      <point x="1010" y="401"/>
      <point x="992" y="395"/>
      <point x="980" y="392" type="curve"/>
      <point x="974" y="390" type="line"/>
      <point x="1019" y="351"/>
      <point x="1054" y="307"/>
      <point x="1078" y="260" type="curve" smooth="yes"/>
      <point x="1102" y="212"/>
      <point x="1114" y="157"/>
      <point x="1114" y="96" type="curve" smooth="yes"/>
      <point x="1114" y="17"/>
      <point x="1094" y="-53"/>
      <point x="1054" y="-113" type="curve" smooth="yes"/>
      <point x="974" y="-232"/>
      <point x="829" y="-300"/>
      <point x="642" y="-300" type="curve" smooth="yes"/>
      <point x="544" y="-300"/>
      <point x="458" y="-283"/>
      <point x="385" y="-248" type="curve" smooth="yes"/>
      <point x="238" y="-179"/>
      <point x="152" y="-51"/>
      <point x="152" y="116" type="curve"/>
      <point x="494" y="116" type="line"/>
      <point x="494" y="87"/>
      <point x="507" y="65"/>
      <point x="533" y="49" type="curve" smooth="yes"/>
      <point x="559" y="33"/>
      <point x="597" y="27"/>
      <point x="648" y="32" type="curve"/>
      <point x="674" y="33"/>
      <point x="700" y="39"/>
      <point x="726" y="48" type="curve" smooth="yes"/>
      <point x="752" y="57"/>
      <point x="765" y="73"/>
      <point x="766" y="96" type="curve"/>
      <point x="765" y="113"/>
      <point x="758" y="129"/>
      <point x="744" y="143" type="curve" smooth="yes"/>
      <point x="716" y="171"/>
      <point x="675" y="192"/>
      <point x="646" y="204" type="curve"/>
      <point x="370" y="306" type="line" smooth="yes"/>
      <point x="329" y="321"/>
      <point x="262" y="350"/>
      <point x="206" y="403" type="curve" smooth="yes"/>
      <point x="149" y="456"/>
      <point x="110" y="537"/>
      <point x="126" y="654" type="curve"/>
      <point x="131" y="699"/>
      <point x="145" y="732"/>
      <point x="167" y="754" type="curve" smooth="yes"/>
      <point x="188" y="776"/>
      <point x="212" y="791"/>
      <point x="237" y="800" type="curve" smooth="yes"/>
      <point x="262" y="808"/>
      <point x="281" y="814"/>
      <point x="296" y="818" type="curve"/>
      <point x="296" y="818" type="line"/>
      <point x="215" y="897"/>
      <point x="160" y="989"/>
      <point x="160" y="1114" type="curve" smooth="yes"/>
      <point x="160" y="1190"/>
      <point x="180" y="1258"/>
      <point x="219" y="1318" type="curve" smooth="yes"/>
      <point x="297" y="1437"/>
      <point x="439" y="1510"/>
      <point x="620" y="1510" type="curve" smooth="yes"/>
      <point x="712" y="1510"/>
      <point x="793" y="1493"/>
      <point x="863" y="1458" type="curve" smooth="yes"/>
      <point x="1002" y="1388"/>
      <point x="1085" y="1261"/>
    </contour>
    <contour>
      <point x="832" y="530" type="curve" smooth="yes"/>
      <point x="836" y="539"/>
      <point x="836" y="548"/>
      <point x="831" y="559" type="curve" smooth="yes"/>
      <point x="826" y="569"/>
      <point x="815" y="580"/>
      <point x="799" y="591" type="curve" smooth="yes"/>
      <point x="782" y="602"/>
      <point x="759" y="612"/>
      <point x="728" y="622" type="curve" smooth="yes"/>
      <point x="512" y="696" type="line" smooth="yes"/>
      <point x="497" y="701"/>
      <point x="485" y="703"/>
      <point x="476" y="703" type="curve" smooth="yes"/>
      <point x="457" y="703"/>
      <point x="447" y="695"/>
      <point x="440" y="680" type="curve"/>
      <point x="433" y="669"/>
      <point x="438" y="654"/>
      <point x="454" y="637" type="curve" smooth="yes"/>
      <point x="470" y="619"/>
      <point x="500" y="603"/>
      <point x="544" y="588" type="curve" smooth="yes"/>
      <point x="768" y="512" type="line" smooth="yes"/>
      <point x="779" y="508"/>
      <point x="789" y="506"/>
      <point x="797" y="506" type="curve" smooth="yes"/>
      <point x="805" y="506"/>
      <point x="812" y="508"/>
      <point x="818" y="512" type="curve" smooth="yes"/>
      <point x="823" y="516"/>
      <point x="828" y="522"/>
    </contour>
  </outline>
</glyph>
<glyph name="copyright" format="2">
  <advance width="1874"/>
  <unicode hex="00A9"/>
  <outline>
    <contour>
      <point x="546" y="744" type="curve" smooth="yes"/>
      <point x="546" y="817"/>
      <point x="564" y="884"/>
      <point x="599" y="944" type="curve" smooth="yes"/>
      <point x="634" y="1003"/>
      <point x="682" y="1051"/>
      <point x="743" y="1087" type="curve" smooth="yes"/>
      <point x="803" y="1122"/>
      <point x="869" y="1140"/>
      <point x="942" y="1140" type="curve" smooth="yes"/>
      <point x="1007" y="1140"/>
      <point x="1066" y="1126"/>
      <point x="1121" y="1097" type="curve" smooth="yes"/>
      <point x="1229" y="1040"/>
      <point x="1304" y="938"/>
      <point x="1316" y="814" type="curve"/>
      <point x="1074" y="814" type="line"/>
      <point x="1068" y="842"/>
      <point x="1053" y="865"/>
      <point x="1028" y="882" type="curve" smooth="yes"/>
      <point x="1003" y="899"/>
      <point x="974" y="908"/>
      <point x="942" y="908" type="curve" smooth="yes"/>
      <point x="912" y="908"/>
      <point x="885" y="901"/>
      <point x="860" y="887" type="curve" smooth="yes"/>
      <point x="811" y="858"/>
      <point x="778" y="806"/>
      <point x="778" y="746" type="curve" smooth="yes"/>
      <point x="778" y="716"/>
      <point x="786" y="689"/>
      <point x="801" y="664" type="curve" smooth="yes"/>
      <point x="816" y="639"/>
      <point x="835" y="620"/>
      <point x="860" y="605" type="curve" smooth="yes"/>
      <point x="885" y="590"/>
      <point x="912" y="582"/>
      <point x="942" y="582" type="curve" smooth="yes"/>
      <point x="974" y="582"/>
      <point x="1003" y="591"/>
      <point x="1028" y="608" type="curve" smooth="yes"/>
      <point x="1053" y="625"/>
      <point x="1068" y="647"/>
      <point x="1074" y="674" type="curve"/>
      <point x="1316" y="674" type="line"/>
      <point x="1310" y="613"/>
      <point x="1290" y="558"/>
      <point x="1255" y="509" type="curve" smooth="yes"/>
      <point x="1185" y="411"/>
      <point x="1071" y="350"/>
      <point x="942" y="350" type="curve" smooth="yes"/>
      <point x="869" y="350"/>
      <point x="803" y="368"/>
      <point x="743" y="404" type="curve" smooth="yes"/>
      <point x="682" y="439"/>
      <point x="634" y="487"/>
      <point x="599" y="547" type="curve" smooth="yes"/>
      <point x="564" y="606"/>
      <point x="546" y="672"/>
    </contour>
    <contour>
      <point x="936" y="-24" type="curve" smooth="yes"/>
      <point x="725" y="-24"/>
      <point x="535" y="61"/>
      <point x="394" y="202" type="curve" smooth="yes"/>
      <point x="253" y="342"/>
      <point x="168" y="532"/>
      <point x="168" y="744" type="curve"/>
      <point x="169" y="956"/>
      <point x="254" y="1147"/>
      <point x="395" y="1288" type="curve" smooth="yes"/>
      <point x="535" y="1428"/>
      <point x="725" y="1512"/>
      <point x="936" y="1512" type="curve" smooth="yes"/>
      <point x="1149" y="1512"/>
      <point x="1339" y="1428"/>
      <point x="1480" y="1288" type="curve" smooth="yes"/>
      <point x="1620" y="1147"/>
      <point x="1704" y="956"/>
      <point x="1704" y="744" type="curve"/>
      <point x="1705" y="532"/>
      <point x="1621" y="342"/>
      <point x="1481" y="202" type="curve" smooth="yes"/>
      <point x="1340" y="61"/>
      <point x="1149" y="-24"/>
    </contour>
    <contour>
      <point x="936" y="268" type="curve" smooth="yes"/>
      <point x="1068" y="268"/>
      <point x="1187" y="320"/>
      <point x="1275" y="408" type="curve" smooth="yes"/>
      <point x="1362" y="495"/>
      <point x="1414" y="612"/>
      <point x="1414" y="744" type="curve" smooth="yes"/>
      <point x="1414" y="876"/>
      <point x="1362" y="995"/>
      <point x="1275" y="1083" type="curve" smooth="yes"/>
      <point x="1187" y="1170"/>
      <point x="1068" y="1222"/>
      <point x="936" y="1222" type="curve" smooth="yes"/>
      <point x="805" y="1222"/>
      <point x="688" y="1169"/>
      <point x="600" y="1082" type="curve" smooth="yes"/>
      <point x="512" y="994"/>
      <point x="460" y="876"/>
      <point x="460" y="744" type="curve" smooth="yes"/>
      <point x="460" y="613"/>
      <point x="512" y="495"/>
      <point x="600" y="408" type="curve" smooth="yes"/>
      <point x="687" y="320"/>
      <point x="804" y="268"/>
    </contour>
  </outline>
</glyph>
<glyph name="ordfeminine" format="2">
  <advance width="1050"/>
  <unicode hex="00AA"/>
  <outline>
    <contour>
      <point x="924" y="604" type="line"/>
      <point x="924" y="402" type="line"/>
      <point x="190" y="402" type="line"/>
      <point x="190" y="604" type="line"/>
    </contour>
    <contour>
      <point x="420" y="690" type="curve" smooth="yes"/>
      <point x="345" y="690"/>
      <point x="284" y="709"/>
      <point x="235" y="747" type="curve" smooth="yes"/>
      <point x="186" y="785"/>
      <point x="162" y="842"/>
      <point x="162" y="918" type="curve" smooth="yes"/>
      <point x="162" y="1015"/>
      <point x="204" y="1073"/>
      <point x="262" y="1105" type="curve" smooth="yes"/>
      <point x="320" y="1137"/>
      <point x="389" y="1148"/>
      <point x="442" y="1152" type="curve" smooth="yes"/>
      <point x="616" y="1164" type="line"/>
      <point x="616" y="1196" type="line" smooth="yes"/>
      <point x="616" y="1217"/>
      <point x="611" y="1233"/>
      <point x="600" y="1246" type="curve"/>
      <point x="589" y="1258"/>
      <point x="569" y="1264"/>
      <point x="540" y="1264" type="curve" smooth="yes"/>
      <point x="503" y="1264"/>
      <point x="477" y="1256"/>
      <point x="462" y="1240" type="curve" smooth="yes"/>
      <point x="447" y="1224"/>
      <point x="437" y="1209"/>
      <point x="432" y="1194" type="curve"/>
      <point x="188" y="1216" type="line"/>
      <point x="205" y="1293"/>
      <point x="245" y="1353"/>
      <point x="306" y="1395" type="curve" smooth="yes"/>
      <point x="367" y="1437"/>
      <point x="445" y="1458"/>
      <point x="540" y="1458" type="curve" smooth="yes"/>
      <point x="591" y="1458"/>
      <point x="643" y="1451"/>
      <point x="696" y="1436" type="curve" smooth="yes"/>
      <point x="748" y="1421"/>
      <point x="792" y="1394"/>
      <point x="827" y="1355" type="curve" smooth="yes"/>
      <point x="862" y="1316"/>
      <point x="880" y="1260"/>
      <point x="880" y="1188" type="curve" smooth="yes"/>
      <point x="880" y="839" type="line" smooth="yes"/>
      <point x="880" y="786"/>
      <point x="887" y="748"/>
      <point x="890" y="704" type="curve"/>
      <point x="640" y="704" type="line"/>
      <point x="637" y="731"/>
      <point x="630" y="756"/>
      <point x="630" y="786" type="curve"/>
      <point x="624" y="786" type="line"/>
      <point x="609" y="761"/>
      <point x="586" y="739"/>
      <point x="554" y="720" type="curve" smooth="yes"/>
      <point x="522" y="700"/>
      <point x="477" y="690"/>
    </contour>
    <contour>
      <point x="496" y="874" type="curve"/>
      <point x="535" y="873"/>
      <point x="566" y="881"/>
      <point x="587" y="898" type="curve" smooth="yes"/>
      <point x="608" y="915"/>
      <point x="618" y="932"/>
      <point x="618" y="950" type="curve" smooth="yes"/>
      <point x="618" y="1014" type="line"/>
      <point x="482" y="990" type="line"/>
      <point x="475" y="989"/>
      <point x="462" y="983"/>
      <point x="444" y="974" type="curve" smooth="yes"/>
      <point x="425" y="965"/>
      <point x="416" y="947"/>
      <point x="416" y="922" type="curve" smooth="yes"/>
      <point x="416" y="903"/>
      <point x="424" y="891"/>
      <point x="439" y="884" type="curve" smooth="yes"/>
      <point x="454" y="877"/>
      <point x="473" y="873"/>
    </contour>
  </outline>
</glyph>
<glyph name="registered" format="2">
  <advance width="1350"/>
  <unicode hex="00AE"/>
  <outline>
    <contour>
      <point x="460" y="666" type="line"/>
      <point x="460" y="1202" type="line"/>
      <point x="716" y="1202" type="line"/>
      <point x="758" y="1203"/>
      <point x="794" y="1196"/>
      <point x="824" y="1181" type="curve" smooth="yes"/>
      <point x="884" y="1151"/>
      <point x="916" y="1095"/>
      <point x="916" y="1022" type="curve" smooth="yes"/>
      <point x="916" y="985"/>
      <point x="908" y="953"/>
      <point x="892" y="927" type="curve" smooth="yes"/>
      <point x="859" y="874"/>
      <point x="797" y="846"/>
      <point x="712" y="846" type="curve" smooth="yes"/>
      <point x="542" y="846" type="line"/>
      <point x="542" y="956" type="line"/>
      <point x="686" y="956" type="line" smooth="yes"/>
      <point x="709" y="956"/>
      <point x="727" y="962"/>
      <point x="740" y="973" type="curve" smooth="yes"/>
      <point x="752" y="984"/>
      <point x="758" y="1000"/>
      <point x="758" y="1022" type="curve" smooth="yes"/>
      <point x="758" y="1044"/>
      <point x="752" y="1061"/>
      <point x="740" y="1073" type="curve"/>
      <point x="727" y="1084"/>
      <point x="709" y="1090"/>
      <point x="686" y="1090" type="curve" smooth="yes"/>
      <point x="614" y="1090" type="line"/>
      <point x="614" y="666" type="line"/>
    </contour>
    <contour>
      <point x="814" y="910" type="line"/>
      <point x="930" y="666" type="line"/>
      <point x="760" y="666" type="line"/>
      <point x="658" y="910" type="line"/>
    </contour>
    <contour>
      <point x="674" y="346" type="curve" smooth="yes"/>
      <point x="514" y="346"/>
      <point x="370" y="410"/>
      <point x="264" y="517" type="curve" smooth="yes"/>
      <point x="158" y="624"/>
      <point x="94" y="768"/>
      <point x="94" y="928" type="curve" smooth="yes"/>
      <point x="94" y="1088"/>
      <point x="158" y="1232"/>
      <point x="264" y="1339" type="curve" smooth="yes"/>
      <point x="370" y="1446"/>
      <point x="514" y="1510"/>
      <point x="674" y="1510" type="curve" smooth="yes"/>
      <point x="835" y="1510"/>
      <point x="979" y="1446"/>
      <point x="1086" y="1339" type="curve" smooth="yes"/>
      <point x="1193" y="1232"/>
      <point x="1256" y="1088"/>
      <point x="1256" y="928" type="curve" smooth="yes"/>
      <point x="1256" y="768"/>
      <point x="1193" y="624"/>
      <point x="1086" y="517" type="curve" smooth="yes"/>
      <point x="979" y="410"/>
      <point x="835" y="346"/>
    </contour>
    <contour>
      <point x="674" y="510" type="curve" smooth="yes"/>
      <point x="752" y="510"/>
      <point x="823" y="529"/>
      <point x="886" y="566" type="curve" smooth="yes"/>
      <point x="949" y="603"/>
      <point x="1000" y="654"/>
      <point x="1038" y="717" type="curve" smooth="yes"/>
      <point x="1075" y="780"/>
      <point x="1094" y="851"/>
      <point x="1094" y="928" type="curve" smooth="yes"/>
      <point x="1094" y="1005"/>
      <point x="1075" y="1076"/>
      <point x="1038" y="1139" type="curve" smooth="yes"/>
      <point x="1000" y="1202"/>
      <point x="949" y="1252"/>
      <point x="886" y="1290" type="curve" smooth="yes"/>
      <point x="822" y="1327"/>
      <point x="751" y="1346"/>
      <point x="674" y="1346" type="curve" smooth="yes"/>
      <point x="597" y="1346"/>
      <point x="527" y="1327"/>
      <point x="464" y="1290" type="curve" smooth="yes"/>
      <point x="401" y="1252"/>
      <point x="350" y="1202"/>
      <point x="313" y="1139" type="curve" smooth="yes"/>
      <point x="275" y="1076"/>
      <point x="256" y="1005"/>
      <point x="256" y="928" type="curve" smooth="yes"/>
      <point x="256" y="851"/>
      <point x="275" y="781"/>
      <point x="313" y="718" type="curve" smooth="yes"/>
      <point x="350" y="654"/>
      <point x="401" y="603"/>
      <point x="464" y="566" type="curve" smooth="yes"/>
      <point x="527" y="529"/>
      <point x="597" y="510"/>
    </contour>
  </outline>
</glyph>
<glyph name="degree" format="2">
  <advance width="948"/>
  <unicode hex="00B0"/>
  <outline>
    <contour>
      <point x="474" y="754" type="curve" smooth="yes"/>
      <point x="405" y="754"/>
      <point x="343" y="771"/>
      <point x="287" y="804" type="curve" smooth="yes"/>
      <point x="174" y="871"/>
      <point x="102" y="989"/>
      <point x="102" y="1126" type="curve" smooth="yes"/>
      <point x="102" y="1195"/>
      <point x="119" y="1257"/>
      <point x="152" y="1314" type="curve" smooth="yes"/>
      <point x="219" y="1426"/>
      <point x="337" y="1498"/>
      <point x="474" y="1498" type="curve" smooth="yes"/>
      <point x="543" y="1498"/>
      <point x="605" y="1481"/>
      <point x="662" y="1448" type="curve" smooth="yes"/>
      <point x="774" y="1381"/>
      <point x="846" y="1263"/>
      <point x="846" y="1126" type="curve" smooth="yes"/>
      <point x="846" y="1057"/>
      <point x="829" y="995"/>
      <point x="796" y="939" type="curve" smooth="yes"/>
      <point x="729" y="826"/>
      <point x="611" y="754"/>
    </contour>
    <contour>
      <point x="474" y="1000" type="curve"/>
      <point x="497" y="1001"/>
      <point x="519" y="1007"/>
      <point x="538" y="1018" type="curve" smooth="yes"/>
      <point x="576" y="1041"/>
      <point x="600" y="1081"/>
      <point x="600" y="1126" type="curve" smooth="yes"/>
      <point x="600" y="1149"/>
      <point x="594" y="1170"/>
      <point x="583" y="1189" type="curve"/>
      <point x="560" y="1226"/>
      <point x="521" y="1250"/>
      <point x="474" y="1250" type="curve" smooth="yes"/>
      <point x="451" y="1250"/>
      <point x="431" y="1245"/>
      <point x="412" y="1234" type="curve" smooth="yes"/>
      <point x="374" y="1212"/>
      <point x="350" y="1173"/>
      <point x="350" y="1126" type="curve" smooth="yes"/>
      <point x="350" y="1103"/>
      <point x="356" y="1083"/>
      <point x="367" y="1064" type="curve" smooth="yes"/>
      <point x="389" y="1026"/>
      <point x="429" y="1001"/>
    </contour>
  </outline>
</glyph>
<glyph name="twosuperior" format="2">
  <advance width="973"/>
  <unicode hex="00B2"/>
  <anchor x="447" y="1714" name="m.uni030F_1"/>
  <outline>
    <contour>
      <point x="110" y="886" type="line"/>
      <point x="110" y="1088" type="line"/>
      <point x="481" y="1332" type="line" smooth="yes"/>
      <point x="506" y="1348"/>
      <point x="526" y="1362"/>
      <point x="541" y="1374" type="curve" smooth="yes"/>
      <point x="571" y="1397"/>
      <point x="585" y="1417"/>
      <point x="585" y="1442" type="curve" smooth="yes"/>
      <point x="585" y="1469"/>
      <point x="574" y="1490"/>
      <point x="551" y="1505" type="curve"/>
      <point x="528" y="1519"/>
      <point x="500" y="1526"/>
      <point x="465" y="1526" type="curve" smooth="yes"/>
      <point x="431" y="1526"/>
      <point x="404" y="1521"/>
      <point x="384" y="1510" type="curve" smooth="yes"/>
      <point x="364" y="1499"/>
      <point x="354" y="1481"/>
      <point x="354" y="1456" type="curve"/>
      <point x="84" y="1456" type="line"/>
      <point x="84" y="1545"/>
      <point x="119" y="1615"/>
      <point x="189" y="1664" type="curve" smooth="yes"/>
      <point x="258" y="1713"/>
      <point x="350" y="1738"/>
      <point x="464" y="1738" type="curve" smooth="yes"/>
      <point x="591" y="1738"/>
      <point x="689" y="1714"/>
      <point x="760" y="1666" type="curve" smooth="yes"/>
      <point x="830" y="1617"/>
      <point x="865" y="1553"/>
      <point x="865" y="1472" type="curve" smooth="yes"/>
      <point x="865" y="1424"/>
      <point x="858" y="1371"/>
      <point x="815" y="1314" type="curve" smooth="yes"/>
      <point x="772" y="1257"/>
      <point x="685" y="1194"/>
      <point x="525" y="1126" type="curve" smooth="yes"/>
      <point x="504" y="1117" type="line"/>
      <point x="504" y="1108" type="line"/>
      <point x="879" y="1108" type="line"/>
      <point x="879" y="886" type="line"/>
    </contour>
  </outline>
</glyph>
<glyph name="three.sups.ss01" format="2">
  <advance width="1017"/>
  <unicode hex="00B3"/>
  <anchor x="507" y="1728" name="t.uni030F_1"/>
  <outline>
    <contour>
      <point x="501" y="876" type="qcurve" smooth="yes"/>
      <point x="385" y="876"/>
      <point x="201" y="939"/>
      <point x="92" y="1056"/>
      <point x="90" y="1137" type="qcurve"/>
      <point x="381" y="1137" type="line"/>
      <point x="384" y="1125"/>
      <point x="453" y="1107"/>
      <point x="501" y="1107" type="qcurve" smooth="yes"/>
      <point x="554" y="1107"/>
      <point x="609" y="1139"/>
      <point x="609" y="1173" type="qcurve" smooth="yes"/>
      <point x="609" y="1197"/>
      <point x="536" y="1241"/>
      <point x="484" y="1241" type="qcurve" smooth="yes"/>
      <point x="358" y="1241" type="line"/>
      <point x="358" y="1419" type="line"/>
      <point x="554" y="1497" type="line"/>
      <point x="554" y="1504" type="line"/>
      <point x="142" y="1504" type="line"/>
      <point x="142" y="1728" type="line"/>
      <point x="884" y="1728" type="line"/>
      <point x="884" y="1529" type="line"/>
      <point x="517" y="1323" type="line"/>
      <point x="517" y="1391" type="line"/>
      <point x="626" y="1412"/>
      <point x="810" y="1355"/>
      <point x="922" y="1228"/>
      <point x="922" y="1141" type="qcurve" smooth="yes"/>
      <point x="922" y="1053"/>
      <point x="804" y="935"/>
      <point x="613" y="876"/>
    </contour>
  </outline>
</glyph>
<glyph name="threesuperior" format="2">
  <advance width="1017"/>
  <unicode hex="00B3"/>
  <anchor x="477" y="1714" name="m.uni030F_1"/>
  <outline>
    <contour>
      <point x="501" y="876" type="curve" smooth="yes"/>
      <point x="424" y="876"/>
      <point x="354" y="889"/>
      <point x="292" y="914" type="curve" smooth="yes"/>
      <point x="168" y="964"/>
      <point x="90" y="1053"/>
      <point x="90" y="1161" type="curve"/>
      <point x="381" y="1161" type="line"/>
      <point x="386" y="1141"/>
      <point x="399" y="1126"/>
      <point x="420" y="1115" type="curve" smooth="yes"/>
      <point x="441" y="1104"/>
      <point x="467" y="1099"/>
      <point x="500" y="1099" type="curve" smooth="yes"/>
      <point x="535" y="1099"/>
      <point x="562" y="1106"/>
      <point x="581" y="1119" type="curve" smooth="yes"/>
      <point x="600" y="1132"/>
      <point x="609" y="1150"/>
      <point x="609" y="1175" type="curve" smooth="yes"/>
      <point x="609" y="1200"/>
      <point x="599" y="1220"/>
      <point x="579" y="1235" type="curve" smooth="yes"/>
      <point x="559" y="1250"/>
      <point x="530" y="1257"/>
      <point x="492" y="1257" type="curve" smooth="yes"/>
      <point x="358" y="1257" type="line"/>
      <point x="358" y="1419" type="line"/>
      <point x="554" y="1497" type="line"/>
      <point x="554" y="1504" type="line"/>
      <point x="142" y="1504" type="line"/>
      <point x="142" y="1728" type="line"/>
      <point x="884" y="1728" type="line"/>
      <point x="884" y="1529" type="line"/>
      <point x="517" y="1347" type="line"/>
      <point x="517" y="1375" type="line"/>
      <point x="590" y="1389"/>
      <point x="657" y="1388"/>
      <point x="718" y="1372" type="curve" smooth="yes"/>
      <point x="841" y="1339"/>
      <point x="922" y="1257"/>
      <point x="922" y="1141" type="curve" smooth="yes"/>
      <point x="922" y="1082"/>
      <point x="902" y="1033"/>
      <point x="863" y="994" type="curve" smooth="yes"/>
      <point x="784" y="915"/>
      <point x="650" y="876"/>
    </contour>
  </outline>
</glyph>
<glyph name="micro" format="2">
  <advance width="1360"/>
  <unicode hex="00B5"/>
  <outline>
    <contour>
      <point x="102" y="-418" type="line"/>
      <point x="102" y="1118" type="line"/>
      <point x="502" y="1118" type="line"/>
      <point x="502" y="472" type="line" smooth="yes"/>
      <point x="502" y="436"/>
      <point x="509" y="405"/>
      <point x="523" y="379" type="curve" smooth="yes"/>
      <point x="550" y="327"/>
      <point x="601" y="298"/>
      <point x="665" y="298" type="curve" smooth="yes"/>
      <point x="698" y="298"/>
      <point x="726" y="305"/>
      <point x="751" y="319" type="curve" smooth="yes"/>
      <point x="799" y="347"/>
      <point x="828" y="400"/>
      <point x="828" y="472" type="curve" smooth="yes"/>
      <point x="828" y="1118" type="line"/>
      <point x="1228" y="1118" type="line"/>
      <point x="1228" y="370" type="line" smooth="yes"/>
      <point x="1228" y="329"/>
      <point x="1251" y="304"/>
      <point x="1292" y="304" type="curve" smooth="yes"/>
      <point x="1350" y="304" type="line"/>
      <point x="1350" y="0" type="line"/>
      <point x="1146" y="0" type="line" smooth="yes"/>
      <point x="945" y="0"/>
      <point x="848" y="113"/>
      <point x="848" y="316" type="curve" smooth="yes"/>
      <point x="848" y="417" type="line"/>
      <point x="904" y="417" type="line"/>
      <point x="904" y="268"/>
      <point x="876" y="171"/>
      <point x="833" y="113" type="curve" smooth="yes"/>
      <point x="789" y="55"/>
      <point x="734" y="32"/>
      <point x="681" y="32" type="curve" smooth="yes"/>
      <point x="624" y="32"/>
      <point x="566" y="55"/>
      <point x="521" y="113" type="curve" smooth="yes"/>
      <point x="476" y="171"/>
      <point x="446" y="268"/>
      <point x="446" y="417" type="curve"/>
      <point x="502" y="417" type="line"/>
      <point x="502" y="-418" type="line"/>
    </contour>
  </outline>
</glyph>
<glyph name="uni00B5" format="2">
  <advance width="1360"/>
  <unicode hex="00B5"/>
  <outline>
    <contour>
      <point x="102" y="-418" type="line"/>
      <point x="102" y="1118" type="line"/>
      <point x="502" y="1118" type="line"/>
      <point x="502" y="472" type="line" smooth="yes"/>
      <point x="502" y="418"/>
      <point x="543" y="340"/>
      <point x="617" y="298"/>
      <point x="665" y="298" type="qcurve" smooth="yes"/>
      <point x="714" y="298"/>
      <point x="787" y="340"/>
      <point x="828" y="418"/>
      <point x="828" y="472" type="qcurve" smooth="yes"/>
      <point x="828" y="1118" type="line"/>
      <point x="1228" y="1118" type="line"/>
      <point x="1228" y="370" type="line" smooth="yes"/>
      <point x="1228" y="339"/>
      <point x="1261" y="304"/>
      <point x="1292" y="304" type="qcurve" smooth="yes"/>
      <point x="1350" y="304" type="line"/>
      <point x="1350" y="0" type="line"/>
      <point x="1146" y="0" type="line" smooth="yes"/>
      <point x="995" y="0"/>
      <point x="848" y="164"/>
      <point x="848" y="316" type="qcurve" smooth="yes"/>
      <point x="848" y="417" type="line"/>
      <point x="904" y="417" type="line"/>
      <point x="904" y="305"/>
      <point x="865" y="156"/>
      <point x="800" y="69"/>
      <point x="721" y="32"/>
      <point x="681" y="32" type="qcurve" smooth="yes"/>
      <point x="638" y="32"/>
      <point x="555" y="69"/>
      <point x="487" y="156"/>
      <point x="446" y="305"/>
      <point x="446" y="417" type="qcurve"/>
      <point x="502" y="417" type="line"/>
      <point x="502" y="-418" type="line"/>
    </contour>
  </outline>
</glyph>
<glyph name="paragraph" format="2">
  <advance width="1220"/>
  <unicode hex="00B6"/>
  <outline>
    <contour>
      <point x="1104" y="1198" type="line"/>
      <point x="654" y="1198" type="line"/>
      <point x="654" y="552" type="line"/>
      <point x="566" y="552" type="line" smooth="yes"/>
      <point x="455" y="552"/>
      <point x="361" y="572"/>
      <point x="284" y="613" type="curve" smooth="yes"/>
      <point x="131" y="694"/>
      <point x="52" y="842"/>
      <point x="52" y="1022" type="curve" smooth="yes"/>
      <point x="52" y="1111"/>
      <point x="72" y="1191"/>
      <point x="111" y="1262" type="curve" smooth="yes"/>
      <point x="189" y="1402"/>
      <point x="343" y="1490"/>
      <point x="566" y="1490" type="curve" smooth="yes"/>
      <point x="1104" y="1490" type="line"/>
    </contour>
    <contour>
      <point x="834" y="0" type="line"/>
      <point x="834" y="1490" type="line"/>
      <point x="1124" y="1490" type="line"/>
      <point x="1124" y="0" type="line"/>
    </contour>
  </outline>
</glyph>
<glyph name="one.sups" format="2">
  <advance width="668"/>
  <unicode hex="00B9"/>
  <outline>
    <contour>
      <point x="278" y="744" type="line"/>
      <point x="278" y="1406" type="line"/>
      <point x="274" y="1406" type="line"/>
      <point x="70" y="1282" type="line"/>
      <point x="70" y="1498" type="line"/>
      <point x="298" y="1638" type="line"/>
      <point x="530" y="1638" type="line"/>
      <point x="530" y="744" type="line"/>
    </contour>
  </outline>
</glyph>
<glyph name="one.sups.ss01" format="2">
  <advance width="733"/>
  <unicode hex="00B9"/>
  <outline>
    <contour>
      <point x="315" y="854" type="line"/>
      <point x="315" y="1366" type="line"/>
      <point x="326" y="1350" type="line"/>
      <point x="293" y="1354"/>
      <point x="228" y="1357"/>
      <point x="165" y="1359"/>
      <point x="105" y="1359" type="qcurve"/>
      <point x="105" y="1554" type="line"/>
      <point x="191" y="1554" type="line" smooth="yes"/>
      <point x="256" y="1554"/>
      <point x="341" y="1620"/>
      <point x="345" y="1694" type="qcurve"/>
      <point x="581" y="1694" type="line"/>
      <point x="581" y="854" type="line"/>
    </contour>
  </outline>
</glyph>
<glyph name="ordmasculine" format="2">
  <advance width="1042"/>
  <unicode hex="00BA"/>
  <outline>
    <contour>
      <point x="158" y="1044" type="qcurve"/>
      <point x="158" y="1120" type="line" smooth="yes"/>
      <point x="158" y="1225"/>
      <point x="247" y="1386"/>
      <point x="410" y="1478"/>
      <point x="520" y="1478" type="qcurve" smooth="yes"/>
      <point x="689" y="1478"/>
      <point x="884" y="1277"/>
      <point x="884" y="1120" type="qcurve" smooth="yes"/>
      <point x="884" y="1044" type="line" smooth="yes"/>
      <point x="884" y="890"/>
      <point x="692" y="690"/>
      <point x="524" y="690" type="qcurve" smooth="yes"/>
      <point x="354" y="690"/>
      <point x="157" y="890"/>
    </contour>
    <contour>
      <point x="340" y="1120" type="qcurve" smooth="yes"/>
      <point x="340" y="1044" type="line" smooth="yes"/>
      <point x="340" y="955"/>
      <point x="432" y="838"/>
      <point x="524" y="838" type="qcurve" smooth="yes"/>
      <point x="613" y="838"/>
      <point x="702" y="955"/>
      <point x="702" y="1044" type="qcurve" smooth="yes"/>
      <point x="702" y="1120" type="line"/>
      <point x="701" y="1207"/>
      <point x="612" y="1330"/>
      <point x="520" y="1330" type="qcurve" smooth="yes"/>
      <point x="431" y="1330"/>
      <point x="340" y="1207"/>
    </contour>
  </outline>
</glyph>
<glyph name="questiondown" format="2">
  <advance width="1230"/>
  <unicode hex="00BF"/>
  <outline>
    <contour>
      <point x="492" y="652" type="line"/>
      <point x="492" y="618" type="line" smooth="yes"/>
      <point x="492" y="502"/>
      <point x="437" y="444"/>
      <point x="332" y="382" type="curve" smooth="yes"/>
      <point x="189" y="299"/>
      <point x="92" y="195"/>
      <point x="92" y="18" type="curve" smooth="yes"/>
      <point x="92" y="-255"/>
      <point x="323" y="-392"/>
      <point x="634" y="-392" type="curve" smooth="yes"/>
      <point x="917" y="-392"/>
      <point x="1154" y="-258"/>
      <point x="1154" y="62" type="curve"/>
      <point x="782" y="62" type="line"/>
      <point x="782" y="-22"/>
      <point x="715" y="-80"/>
      <point x="636" y="-80" type="curve" smooth="yes"/>
      <point x="564" y="-80"/>
      <point x="506" y="-31"/>
      <point x="506" y="42" type="curve" smooth="yes"/>
      <point x="506" y="123"/>
      <point x="576" y="173"/>
      <point x="668" y="234" type="curve" smooth="yes"/>
      <point x="777" y="304"/>
      <point x="834" y="378"/>
      <point x="834" y="618" type="curve" smooth="yes"/>
      <point x="834" y="652" type="line"/>
    </contour>
    <contour>
      <point x="459" y="1118" type="line"/>
      <point x="459" y="767" type="line"/>
      <point x="867" y="767" type="line"/>
      <point x="867" y="1118" type="line"/>
    </contour>
  </outline>
</glyph>
<glyph name="AE" format="2">
  <advance width="2164"/>
  <unicode hex="00C6"/>
  <outline>
    <contour>
      <point x="46" y="0" type="line"/>
      <point x="628" y="1490" type="line"/>
      <point x="2060" y="1490" type="line"/>
      <point x="2060" y="1164" type="line"/>
      <point x="1390" y="1164" type="line"/>
      <point x="1390" y="908" type="line"/>
      <point x="2004" y="908" type="line"/>
      <point x="2004" y="582" type="line"/>
      <point x="1390" y="582" type="line"/>
      <point x="1390" y="326" type="line"/>
      <point x="2056" y="326" type="line"/>
      <point x="2056" y="0" type="line"/>
      <point x="986" y="0" type="line"/>
      <point x="986" y="1080" type="line"/>
      <point x="884" y="1080" type="line"/>
      <point x="492" y="0" type="line"/>
    </contour>
    <contour>
      <point x="404" y="286" type="line"/>
      <point x="404" y="588" type="line"/>
      <point x="1224" y="588" type="line"/>
      <point x="1224" y="286" type="line"/>
    </contour>
  </outline>
</glyph>
<glyph name="Thorn" format="2">
  <advance width="1428"/>
  <unicode hex="00DE"/>
  <outline>
    <contour>
      <point x="98" y="1490" type="line"/>
      <point x="504" y="1490" type="line"/>
      <point x="504" y="0" type="line"/>
      <point x="98" y="0" type="line"/>
    </contour>
    <contour>
      <point x="286" y="1240" type="line"/>
      <point x="674" y="1240" type="line" smooth="yes"/>
      <point x="803" y="1240"/>
      <point x="913" y="1220"/>
      <point x="1002" y="1179" type="curve" smooth="yes"/>
      <point x="1181" y="1098"/>
      <point x="1274" y="951"/>
      <point x="1274" y="766" type="curve" smooth="yes"/>
      <point x="1274" y="673"/>
      <point x="1251" y="591"/>
      <point x="1205" y="520" type="curve" smooth="yes"/>
      <point x="1113" y="378"/>
      <point x="933" y="294"/>
      <point x="674" y="294" type="curve" smooth="yes"/>
      <point x="286" y="294" type="line"/>
      <point x="286" y="590" type="line"/>
      <point x="674" y="590" type="line"/>
      <point x="728" y="591"/>
      <point x="771" y="600"/>
      <point x="802" y="618" type="curve" smooth="yes"/>
      <point x="864" y="653"/>
      <point x="888" y="710"/>
      <point x="888" y="762" type="curve" smooth="yes"/>
      <point x="888" y="789"/>
      <point x="881" y="817"/>
      <point x="868" y="844" type="curve" smooth="yes"/>
      <point x="841" y="899"/>
      <point x="782" y="940"/>
      <point x="674" y="940" type="curve" smooth="yes"/>
      <point x="286" y="940" type="line"/>
    </contour>
  </outline>
</glyph>
<glyph name="germandbls" format="2">
  <advance width="1418"/>
  <unicode hex="00DF"/>
  <outline>
    <contour>
      <point x="96" y="0" type="line"/>
      <point x="96" y="1088" type="line" smooth="yes"/>
      <point x="96" y="1176"/>
      <point x="119" y="1252"/>
      <point x="166" y="1315" type="curve" smooth="yes"/>
      <point x="258" y="1441"/>
      <point x="431" y="1510"/>
      <point x="664" y="1510" type="curve" smooth="yes"/>
      <point x="770" y="1510"/>
      <point x="868" y="1495"/>
      <point x="959" y="1465" type="curve" smooth="yes"/>
      <point x="1049" y="1435"/>
      <point x="1122" y="1389"/>
      <point x="1177" y="1328" type="curve" smooth="yes"/>
      <point x="1232" y="1267"/>
      <point x="1260" y="1189"/>
      <point x="1260" y="1094" type="curve" smooth="yes"/>
      <point x="1260" y="1023"/>
      <point x="1243" y="961"/>
      <point x="1208" y="908" type="curve" smooth="yes"/>
      <point x="1173" y="855"/>
      <point x="1123" y="821"/>
      <point x="1058" y="806" type="curve"/>
      <point x="1058" y="788" type="line"/>
      <point x="1157" y="783"/>
      <point x="1233" y="746"/>
      <point x="1288" y="675" type="curve" smooth="yes"/>
      <point x="1343" y="604"/>
      <point x="1370" y="515"/>
      <point x="1370" y="410" type="curve" smooth="yes"/>
      <point x="1370" y="317"/>
      <point x="1348" y="241"/>
      <point x="1305" y="180" type="curve" smooth="yes"/>
      <point x="1217" y="59"/>
      <point x="1059" y="0"/>
      <point x="862" y="0" type="curve" smooth="yes"/>
      <point x="642" y="0" type="line"/>
      <point x="642" y="314" type="line"/>
      <point x="776" y="314" type="line" smooth="yes"/>
      <point x="833" y="314"/>
      <point x="879" y="327"/>
      <point x="912" y="353" type="curve" smooth="yes"/>
      <point x="945" y="379"/>
      <point x="962" y="415"/>
      <point x="962" y="460" type="curve" smooth="yes"/>
      <point x="962" y="506"/>
      <point x="943" y="542"/>
      <point x="906" y="568" type="curve" smooth="yes"/>
      <point x="869" y="593"/>
      <point x="818" y="606"/>
      <point x="754" y="606" type="curve" smooth="yes"/>
      <point x="648" y="606" type="line"/>
      <point x="648" y="898" type="line"/>
      <point x="716" y="898" type="line" smooth="yes"/>
      <point x="742" y="898"/>
      <point x="765" y="904"/>
      <point x="784" y="916" type="curve" smooth="yes"/>
      <point x="823" y="940"/>
      <point x="846" y="983"/>
      <point x="846" y="1036" type="curve" smooth="yes"/>
      <point x="846" y="1080"/>
      <point x="831" y="1116"/>
      <point x="802" y="1143" type="curve" smooth="yes"/>
      <point x="773" y="1170"/>
      <point x="731" y="1184"/>
      <point x="678" y="1184" type="curve" smooth="yes"/>
      <point x="622" y="1184"/>
      <point x="578" y="1169"/>
      <point x="546" y="1138" type="curve" smooth="yes"/>
      <point x="514" y="1107"/>
      <point x="498" y="1065"/>
      <point x="498" y="1012" type="curve" smooth="yes"/>
      <point x="498" y="0" type="line"/>
    </contour>
  </outline>
</glyph>
<glyph name="ae" format="2">
  <advance width="1856"/>
  <unicode hex="00E6"/>
  <anchor x="902" y="1303" name="m.uni030F_1"/>
  <outline>
    <contour>
      <point x="442" y="-17" type="curve" smooth="yes"/>
      <point x="361" y="-17"/>
      <point x="292" y="-5"/>
      <point x="233" y="18" type="curve" smooth="yes"/>
      <point x="115" y="65"/>
      <point x="49" y="161"/>
      <point x="49" y="308" type="curve" smooth="yes"/>
      <point x="49" y="431"/>
      <point x="93" y="515"/>
      <point x="169" y="571" type="curve" smooth="yes"/>
      <point x="244" y="626"/>
      <point x="345" y="654"/>
      <point x="460" y="663" type="curve" smooth="yes"/>
      <point x="719" y="685" type="line"/>
      <point x="719" y="765" type="line" smooth="yes"/>
      <point x="719" y="794"/>
      <point x="708" y="817"/>
      <point x="686" y="832" type="curve" smooth="yes"/>
      <point x="663" y="847"/>
      <point x="634" y="855"/>
      <point x="599" y="855" type="curve" smooth="yes"/>
      <point x="562" y="855"/>
      <point x="531" y="847"/>
      <point x="506" y="831" type="curve"/>
      <point x="481" y="814"/>
      <point x="467" y="788"/>
      <point x="463" y="753" type="curve"/>
      <point x="102" y="792" type="line"/>
      <point x="106" y="834"/>
      <point x="126" y="884"/>
      <point x="162" y="942" type="curve" smooth="yes"/>
      <point x="233" y="1057"/>
      <point x="383" y="1132"/>
      <point x="614" y="1132" type="curve" smooth="yes"/>
      <point x="689" y="1132"/>
      <point x="751" y="1117"/>
      <point x="803" y="1092" type="curve" smooth="yes"/>
      <point x="854" y="1067"/>
      <point x="892" y="1030"/>
      <point x="916" y="983" type="curve"/>
      <point x="899" y="169" type="line"/>
      <point x="876" y="169" type="line"/>
      <point x="853" y="127"/>
      <point x="819" y="92"/>
      <point x="775" y="65" type="curve" smooth="yes"/>
      <point x="686" y="9"/>
      <point x="567" y="-17"/>
    </contour>
    <contour>
      <point x="544" y="236" type="curve" smooth="yes"/>
      <point x="575" y="236"/>
      <point x="604" y="242"/>
      <point x="631" y="255" type="curve"/>
      <point x="685" y="279"/>
      <point x="721" y="328"/>
      <point x="721" y="396" type="curve" smooth="yes"/>
      <point x="721" y="470" type="line"/>
      <point x="561" y="448" type="line" smooth="yes"/>
      <point x="530" y="444"/>
      <point x="505" y="436"/>
      <point x="486" y="425" type="curve" smooth="yes"/>
      <point x="446" y="402"/>
      <point x="428" y="371"/>
      <point x="428" y="332" type="curve" smooth="yes"/>
      <point x="428" y="301"/>
      <point x="439" y="277"/>
      <point x="461" y="261" type="curve"/>
      <point x="482" y="244"/>
      <point x="510" y="236"/>
    </contour>
    <contour>
      <point x="1280" y="-20" type="curve" smooth="yes"/>
      <point x="1189" y="-20"/>
      <point x="1107" y="-3"/>
      <point x="1032" y="32" type="curve" smooth="yes"/>
      <point x="957" y="67"/>
      <point x="902" y="121"/>
      <point x="867" y="195" type="curve"/>
      <point x="829" y="919" type="line"/>
      <point x="882" y="998"/>
      <point x="942" y="1053"/>
      <point x="1010" y="1085" type="curve" smooth="yes"/>
      <point x="1077" y="1116"/>
      <point x="1154" y="1132"/>
      <point x="1239" y="1132" type="curve" smooth="yes"/>
      <point x="1408" y="1132"/>
      <point x="1547" y="1078"/>
      <point x="1644" y="979" type="curve" smooth="yes"/>
      <point x="1740" y="879"/>
      <point x="1795" y="736"/>
      <point x="1795" y="559" type="curve" smooth="yes"/>
      <point x="1795" y="465" type="line"/>
      <point x="835" y="465" type="line"/>
      <point x="835" y="687" type="line"/>
      <point x="1425" y="687" type="line"/>
      <point x="1424" y="719"/>
      <point x="1416" y="747"/>
      <point x="1401" y="772" type="curve"/>
      <point x="1385" y="796"/>
      <point x="1364" y="815"/>
      <point x="1337" y="829" type="curve"/>
      <point x="1310" y="842"/>
      <point x="1281" y="849"/>
      <point x="1248" y="849" type="curve" smooth="yes"/>
      <point x="1215" y="849"/>
      <point x="1186" y="842"/>
      <point x="1159" y="829" type="curve"/>
      <point x="1132" y="815"/>
      <point x="1110" y="796"/>
      <point x="1094" y="772" type="curve" smooth="yes"/>
      <point x="1077" y="747"/>
      <point x="1069" y="719"/>
      <point x="1068" y="687" type="curve"/>
      <point x="1068" y="448" type="line" smooth="yes"/>
      <point x="1068" y="412"/>
      <point x="1076" y="380"/>
      <point x="1091" y="352" type="curve" smooth="yes"/>
      <point x="1106" y="324"/>
      <point x="1127" y="302"/>
      <point x="1155" y="286" type="curve" smooth="yes"/>
      <point x="1183" y="270"/>
      <point x="1217" y="262"/>
      <point x="1257" y="262" type="curve" smooth="yes"/>
      <point x="1284" y="262"/>
      <point x="1310" y="266"/>
      <point x="1333" y="274" type="curve"/>
      <point x="1356" y="281"/>
      <point x="1375" y="292"/>
      <point x="1392" y="307" type="curve" smooth="yes"/>
      <point x="1409" y="322"/>
      <point x="1421" y="340"/>
      <point x="1428" y="361" type="curve"/>
      <point x="1782" y="309" type="line"/>
      <point x="1773" y="266"/>
      <point x="1747" y="216"/>
      <point x="1702" y="159" type="curve" smooth="yes"/>
      <point x="1657" y="102"/>
      <point x="1599" y="58"/>
      <point x="1526" y="27" type="curve" smooth="yes"/>
      <point x="1453" y="-5"/>
      <point x="1371" y="-20"/>
    </contour>
  </outline>
</glyph>
<glyph name="eth" format="2">
  <advance width="1256"/>
  <unicode hex="00F0"/>
  <outline>
    <contour>
      <point x="942" y="1394" type="line"/>
      <point x="204" y="1006" type="line"/>
      <point x="204" y="1170" type="line"/>
      <point x="942" y="1556" type="line"/>
    </contour>
    <contour>
      <point x="620" y="-24" type="curve" smooth="yes"/>
      <point x="509" y="-23"/>
      <point x="412" y="-1"/>
      <point x="328" y="44" type="curve" smooth="yes"/>
      <point x="244" y="88"/>
      <point x="179" y="150"/>
      <point x="132" y="231" type="curve" smooth="yes"/>
      <point x="85" y="311"/>
      <point x="62" y="405"/>
      <point x="62" y="512" type="curve" smooth="yes"/>
      <point x="62" y="606"/>
      <point x="81" y="692"/>
      <point x="118" y="770" type="curve" smooth="yes"/>
      <point x="155" y="848"/>
      <point x="207" y="910"/>
      <point x="276" y="957" type="curve" smooth="yes"/>
      <point x="344" y="1003"/>
      <point x="425" y="1026"/>
      <point x="520" y="1026" type="curve" smooth="yes"/>
      <point x="558" y="1026"/>
      <point x="593" y="1022"/>
      <point x="626" y="1015" type="curve"/>
      <point x="691" y="999"/>
      <point x="747" y="970"/>
      <point x="788" y="930" type="curve"/>
      <point x="804" y="930" type="line"/>
      <point x="766" y="1005"/>
      <point x="713" y="1072"/>
      <point x="644" y="1131" type="curve" smooth="yes"/>
      <point x="575" y="1190"/>
      <point x="501" y="1239"/>
      <point x="423" y="1280" type="curve" smooth="yes"/>
      <point x="344" y="1321"/>
      <point x="271" y="1351"/>
      <point x="204" y="1370" type="curve"/>
      <point x="204" y="1564" type="line"/>
      <point x="334" y="1547"/>
      <point x="458" y="1513"/>
      <point x="577" y="1461" type="curve" smooth="yes"/>
      <point x="696" y="1408"/>
      <point x="801" y="1340"/>
      <point x="894" y="1256" type="curve" smooth="yes"/>
      <point x="987" y="1172"/>
      <point x="1060" y="1074"/>
      <point x="1114" y="962" type="curve" smooth="yes"/>
      <point x="1167" y="850"/>
      <point x="1194" y="726"/>
      <point x="1194" y="590" type="curve" smooth="yes"/>
      <point x="1194" y="469"/>
      <point x="1171" y="362"/>
      <point x="1126" y="270" type="curve" smooth="yes"/>
      <point x="1034" y="85"/>
      <point x="860" y="-23"/>
    </contour>
    <contour>
      <point x="632" y="270" type="curve" smooth="yes"/>
      <point x="671" y="270"/>
      <point x="706" y="281"/>
      <point x="735" y="302" type="curve" smooth="yes"/>
      <point x="764" y="323"/>
      <point x="786" y="354"/>
      <point x="802" y="395" type="curve" smooth="yes"/>
      <point x="818" y="436"/>
      <point x="826" y="485"/>
      <point x="826" y="542" type="curve" smooth="yes"/>
      <point x="826" y="596"/>
      <point x="819" y="642"/>
      <point x="804" y="681" type="curve" smooth="yes"/>
      <point x="789" y="719"/>
      <point x="768" y="748"/>
      <point x="739" y="768" type="curve" smooth="yes"/>
      <point x="710" y="788"/>
      <point x="675" y="798"/>
      <point x="632" y="798" type="curve" smooth="yes"/>
      <point x="589" y="798"/>
      <point x="554" y="788"/>
      <point x="526" y="768" type="curve" smooth="yes"/>
      <point x="497" y="747"/>
      <point x="476" y="718"/>
      <point x="462" y="680" type="curve" smooth="yes"/>
      <point x="447" y="642"/>
      <point x="440" y="596"/>
      <point x="440" y="542" type="curve" smooth="yes"/>
      <point x="440" y="485"/>
      <point x="448" y="437"/>
      <point x="464" y="396" type="curve" smooth="yes"/>
      <point x="479" y="355"/>
      <point x="502" y="323"/>
      <point x="531" y="302" type="curve" smooth="yes"/>
      <point x="560" y="281"/>
      <point x="593" y="270"/>
    </contour>
  </outline>
</glyph>
<glyph name="divide" format="2">
  <advance width="1420"/>
  <unicode hex="00F7"/>
  <outline>
    <contour>
      <point x="1248" y="756" type="line"/>
      <point x="1248" y="454" type="line"/>
      <point x="172" y="454" type="line"/>
      <point x="172" y="756" type="line"/>
    </contour>
    <contour>
      <point x="710" y="-24" type="curve"/>
      <point x="653" y="-23"/>
      <point x="604" y="-3"/>
      <point x="564" y="37" type="curve" smooth="yes"/>
      <point x="524" y="77"/>
      <point x="504" y="126"/>
      <point x="504" y="184" type="curve" smooth="yes"/>
      <point x="504" y="239"/>
      <point x="524" y="287"/>
      <point x="564" y="327" type="curve" smooth="yes"/>
      <point x="604" y="366"/>
      <point x="653" y="386"/>
      <point x="710" y="386" type="curve" smooth="yes"/>
      <point x="766" y="386"/>
      <point x="814" y="366"/>
      <point x="854" y="327" type="curve" smooth="yes"/>
      <point x="894" y="287"/>
      <point x="914" y="239"/>
      <point x="914" y="184" type="curve" smooth="yes"/>
      <point x="914" y="126"/>
      <point x="894" y="77"/>
      <point x="854" y="37" type="curve" smooth="yes"/>
      <point x="814" y="-3"/>
      <point x="766" y="-23"/>
    </contour>
    <contour>
      <point x="710" y="824" type="curve"/>
      <point x="653" y="823"/>
      <point x="605" y="843"/>
      <point x="565" y="884" type="curve" smooth="yes"/>
      <point x="524" y="925"/>
      <point x="504" y="973"/>
      <point x="504" y="1030" type="curve" smooth="yes"/>
      <point x="504" y="1087"/>
      <point x="524" y="1135"/>
      <point x="565" y="1175" type="curve" smooth="yes"/>
      <point x="605" y="1214"/>
      <point x="653" y="1234"/>
      <point x="710" y="1234" type="curve" smooth="yes"/>
      <point x="767" y="1234"/>
      <point x="815" y="1214"/>
      <point x="855" y="1175" type="curve" smooth="yes"/>
      <point x="894" y="1135"/>
      <point x="914" y="1087"/>
      <point x="914" y="1030" type="curve" smooth="yes"/>
      <point x="914" y="973"/>
      <point x="894" y="925"/>
      <point x="855" y="884" type="curve" smooth="yes"/>
      <point x="815" y="843"/>
      <point x="767" y="823"/>
    </contour>
  </outline>
</glyph>
<glyph name="Hbar" format="2">
  <advance width="1706"/>
  <unicode hex="0126"/>
  <outline>
    <contour>
      <point x="1650" y="1268" type="line"/>
      <point x="1650" y="1076" type="line"/>
      <point x="56" y="1076" type="line"/>
      <point x="56" y="1268" type="line"/>
    </contour>
    <contour>
      <point x="180" y="0" type="line"/>
      <point x="180" y="1490" type="line"/>
      <point x="584" y="1490" type="line"/>
      <point x="584" y="924" type="line"/>
      <point x="1120" y="924" type="line"/>
      <point x="1120" y="1490" type="line"/>
      <point x="1524" y="1490" type="line"/>
      <point x="1524" y="0" type="line"/>
      <point x="1120" y="0" type="line"/>
      <point x="1120" y="598" type="line"/>
      <point x="584" y="598" type="line"/>
      <point x="584" y="0" type="line"/>
    </contour>
  </outline>
</glyph>
<glyph name="dotlessi" format="2">
  <advance width="606"/>
  <unicode hex="0131"/>
  <anchor x="327" y="0" name="m.uni0326"/>
  <anchor x="323" y="1118" name="m.uni030F_1"/>
  <anchor x="578" y="0" name="m.uni0328_4"/>
  <outline>
    <contour>
      <point x="102" y="0" type="line"/>
      <point x="102" y="1118" type="line"/>
      <point x="504" y="1118" type="line"/>
      <point x="504" y="0" type="line"/>
    </contour>
  </outline>
</glyph>
<glyph name="kgreenlandic" format="2">
  <advance width="1308"/>
  <unicode hex="0138"/>
  <outline>
    <contour>
      <point x="504" y="1118" type="line"/>
      <point x="504" y="0" type="line"/>
      <point x="102" y="0" type="line"/>
      <point x="102" y="1118" type="line"/>
    </contour>
    <contour>
      <point x="1316" y="1118" type="line"/>
      <point x="816" y="368" type="line"/>
      <point x="460" y="368" type="line"/>
      <point x="420" y="740" type="line"/>
      <point x="614" y="740" type="line"/>
      <point x="830" y="1118" type="line"/>
    </contour>
    <contour>
      <point x="816" y="0" type="line"/>
      <point x="600" y="424" type="line"/>
      <point x="940" y="588" type="line"/>
      <point x="1298" y="0" type="line"/>
    </contour>
  </outline>
</glyph>
<glyph name="Eng" format="2">
  <advance width="1576"/>
  <unicode hex="014A"/>
  <outline>
    <contour>
      <point x="858" y="-417" type="qcurve"/>
      <point x="858" y="-120" type="line"/>
      <point x="888" y="-124"/>
      <point x="944" y="-129"/>
      <point x="973" y="-129" type="qcurve" smooth="yes"/>
      <point x="1032" y="-129"/>
      <point x="1076" y="-94"/>
      <point x="1076" y="-49" type="qcurve" smooth="yes"/>
      <point x="1076" y="128" type="line"/>
      <point x="1480" y="128" type="line"/>
      <point x="1480" y="-73" type="line" smooth="yes"/>
      <point x="1480" y="-257"/>
      <point x="1267" y="-441"/>
      <point x="1056" y="-441" type="qcurve" smooth="yes"/>
      <point x="1001" y="-441"/>
      <point x="902" y="-429"/>
    </contour>
    <contour>
      <point x="96" y="0" type="line"/>
      <point x="96" y="1490" type="line"/>
      <point x="536" y="1490" type="line"/>
      <point x="891" y="905" type="line" smooth="yes"/>
      <point x="937" y="829"/>
      <point x="1017" y="677"/>
      <point x="1092" y="494"/>
      <point x="1131" y="372" type="qcurve"/>
      <point x="1096" y="372" type="line"/>
      <point x="1091" y="453"/>
      <point x="1076" y="666"/>
      <point x="1064" y="873"/>
      <point x="1064" y="944" type="qcurve" smooth="yes"/>
      <point x="1064" y="1490" type="line"/>
      <point x="1480" y="1490" type="line"/>
      <point x="1480" y="0" type="line"/>
      <point x="1040" y="0" type="line"/>
      <point x="709" y="544" type="line" smooth="yes"/>
      <point x="653" y="637"/>
      <point x="568" y="798"/>
      <point x="489" y="978"/>
      <point x="438" y="1096" type="qcurve"/>
      <point x="480" y="1096" type="line"/>
      <point x="488" y="991"/>
      <point x="503" y="783"/>
      <point x="512" y="605"/>
      <point x="512" y="544" type="qcurve" smooth="yes"/>
      <point x="512" y="0" type="line"/>
    </contour>
  </outline>
</glyph>
<glyph name="eng" format="2">
  <advance width="1330"/>
  <unicode hex="014B"/>
  <outline>
    <contour>
      <point x="606" y="-417" type="qcurve"/>
      <point x="606" y="-120" type="line"/>
      <point x="636" y="-124"/>
      <point x="692" y="-129"/>
      <point x="721" y="-129" type="qcurve" smooth="yes"/>
      <point x="780" y="-129"/>
      <point x="826" y="-94"/>
      <point x="826" y="-49" type="qcurve" smooth="yes"/>
      <point x="826" y="0" type="line"/>
      <point x="1228" y="0" type="line"/>
      <point x="1228" y="-73" type="line" smooth="yes"/>
      <point x="1228" y="-257"/>
      <point x="1015" y="-441"/>
      <point x="804" y="-441" type="qcurve" smooth="yes"/>
      <point x="749" y="-441"/>
      <point x="650" y="-429"/>
    </contour>
    <contour>
      <point x="504" y="628" type="qcurve" smooth="yes"/>
      <point x="504" y="0" type="line"/>
      <point x="102" y="0" type="line"/>
      <point x="102" y="1118" type="line"/>
      <point x="479" y="1118" type="line"/>
      <point x="487" y="832" type="line"/>
      <point x="475" y="832" type="line"/>
      <point x="513" y="959"/>
      <point x="684" y="1132"/>
      <point x="838" y="1132" type="qcurve" smooth="yes"/>
      <point x="957" y="1132"/>
      <point x="1132" y="1024"/>
      <point x="1228" y="834"/>
      <point x="1228" y="712" type="qcurve" smooth="yes"/>
      <point x="1228" y="0" type="line"/>
      <point x="826" y="0" type="line"/>
      <point x="826" y="628" type="line" smooth="yes"/>
      <point x="826" y="711"/>
      <point x="742" y="806"/>
      <point x="666" y="806" type="qcurve" smooth="yes"/>
      <point x="617" y="806"/>
      <point x="544" y="763"/>
      <point x="504" y="684"/>
    </contour>
  </outline>
</glyph>
<glyph name="OE" format="2">
  <advance width="2107"/>
  <unicode hex="0152"/>
  <anchor x="1554" y="0" name="m.uni0326"/>
  <anchor x="1554" y="1490" name="m.uni030F_1"/>
  <anchor x="1543" y="0" name="m.uni0327_3"/>
  <anchor x="2179" y="0" name="m.uni0328_4"/>
  <outline>
    <contour>
      <point x="810" y="0" type="line" smooth="yes"/>
      <point x="659" y="0"/>
      <point x="529" y="30"/>
      <point x="418" y="89" type="curve" smooth="yes"/>
      <point x="307" y="148"/>
      <point x="221" y="234"/>
      <point x="161" y="345" type="curve" smooth="yes"/>
      <point x="100" y="456"/>
      <point x="70" y="589"/>
      <point x="70" y="744" type="curve" smooth="yes"/>
      <point x="70" y="899"/>
      <point x="100" y="1033"/>
      <point x="161" y="1144" type="curve" smooth="yes"/>
      <point x="222" y="1255"/>
      <point x="308" y="1341"/>
      <point x="420" y="1401" type="curve" smooth="yes"/>
      <point x="531" y="1460"/>
      <point x="663" y="1490"/>
      <point x="816" y="1490" type="curve" smooth="yes"/>
      <point x="1192" y="1490" type="line"/>
      <point x="1192" y="1146" type="line"/>
      <point x="838" y="1146" type="line" smooth="yes"/>
      <point x="760" y="1146"/>
      <point x="694" y="1134"/>
      <point x="641" y="1111" type="curve" smooth="yes"/>
      <point x="587" y="1087"/>
      <point x="546" y="1046"/>
      <point x="518" y="988" type="curve" smooth="yes"/>
      <point x="490" y="929"/>
      <point x="476" y="848"/>
      <point x="476" y="744" type="curve" smooth="yes"/>
      <point x="476" y="641"/>
      <point x="490" y="560"/>
      <point x="518" y="502" type="curve" smooth="yes"/>
      <point x="545" y="443"/>
      <point x="585" y="402"/>
      <point x="637" y="379" type="curve" smooth="yes"/>
      <point x="689" y="356"/>
      <point x="752" y="344"/>
      <point x="826" y="344" type="curve" smooth="yes"/>
      <point x="1186" y="344" type="line"/>
      <point x="1186" y="0" type="line"/>
    </contour>
    <contour>
      <point x="948" y="0" type="line"/>
      <point x="948" y="1490" type="line"/>
      <point x="2022" y="1490" type="line"/>
      <point x="2022" y="1164" type="line"/>
      <point x="1352" y="1164" type="line"/>
      <point x="1352" y="912" type="line"/>
      <point x="1966" y="912" type="line"/>
      <point x="1966" y="594" type="line"/>
      <point x="1352" y="594" type="line"/>
      <point x="1352" y="326" type="line"/>
      <point x="2018" y="326" type="line"/>
      <point x="2018" y="0" type="line"/>
    </contour>
  </outline>
</glyph>
<glyph name="tbar" format="2">
  <advance width="818"/>
  <unicode hex="0167"/>
  <anchor x="553" y="0" name="m.uni0326"/>
  <anchor x="473" y="1384" name="m.uni030F_1"/>
  <anchor x="634" y="0" name="m.uni0327_3"/>
  <outline>
    <contour>
      <point x="756" y="703" type="line"/>
      <point x="756" y="483" type="line"/>
      <point x="20" y="483" type="line"/>
      <point x="20" y="703" type="line"/>
    </contour>
    <contour>
      <point x="162" y="1384" type="line"/>
      <point x="564" y="1384" type="line"/>
      <point x="564" y="359" type="line" smooth="yes"/>
      <point x="564" y="324"/>
      <point x="600" y="289"/>
      <point x="640" y="289" type="qcurve" smooth="yes"/>
      <point x="658" y="289"/>
      <point x="727" y="298"/>
      <point x="738" y="302" type="qcurve"/>
      <point x="786" y="15" type="line"/>
      <point x="717" y="-4"/>
      <point x="595" y="-17"/>
      <point x="541" y="-17" type="qcurve" smooth="yes"/>
      <point x="353" y="-17"/>
      <point x="162" y="155"/>
      <point x="162" y="322" type="qcurve" smooth="yes"/>
    </contour>
    <contour>
      <point x="756" y="1118" type="line"/>
      <point x="756" y="826" type="line"/>
      <point x="20" y="826" type="line"/>
      <point x="20" y="1118" type="line"/>
    </contour>
  </outline>
</glyph>
<glyph name="longs" format="2">
  <advance width="840"/>
  <unicode hex="017F"/>
  <anchor x="435" y="0" name="m.uni0326"/>
  <anchor x="469" y="1552" name="m.uni030F_1"/>
  <outline>
    <contour>
      <point x="184" y="0" type="line"/>
      <point x="184" y="1150" type="line" smooth="yes"/>
      <point x="184" y="1288"/>
      <point x="282" y="1470"/>
      <point x="462" y="1560"/>
      <point x="584" y="1560" type="qcurve" smooth="yes"/>
      <point x="661" y="1560"/>
      <point x="806" y="1536"/>
      <point x="840" y="1528" type="qcurve"/>
      <point x="782" y="1240" type="line"/>
      <point x="760" y="1246"/>
      <point x="703" y="1254"/>
      <point x="680" y="1254" type="qcurve" smooth="yes"/>
      <point x="624" y="1254"/>
      <point x="584" y="1206"/>
      <point x="584" y="1166" type="qcurve" smooth="yes"/>
      <point x="584" y="0" type="line"/>
    </contour>
  </outline>
</glyph>
<glyph name="Bhook" format="2">
  <advance width="1848"/>
  <unicode hex="0181"/>
  <anchor x="1356" y="0" name="m.uni0326"/>
  <anchor x="1368" y="1490" name="m.uni030F_1"/>
  <outline>
    <contour>
      <point x="42" y="1024" type="line"/>
      <point x="42" y="1096" type="line" smooth="yes"/>
      <point x="42" y="1233"/>
      <point x="83" y="1333"/>
      <point x="165" y="1396" type="curve" smooth="yes"/>
      <point x="246" y="1459"/>
      <point x="376" y="1490"/>
      <point x="554" y="1490" type="curve" smooth="yes"/>
      <point x="576" y="1490" type="line"/>
      <point x="576" y="1164" type="line"/>
      <point x="538" y="1164" type="line" smooth="yes"/>
      <point x="443" y="1164"/>
      <point x="396" y="1127"/>
      <point x="396" y="1052" type="curve" smooth="yes"/>
      <point x="396" y="1024" type="line"/>
    </contour>
    <contour>
      <point x="576" y="0" type="line"/>
      <point x="576" y="1490" type="line"/>
      <point x="1222" y="1490" type="line" smooth="yes"/>
      <point x="1335" y="1490"/>
      <point x="1431" y="1475"/>
      <point x="1508" y="1444" type="curve" smooth="yes"/>
      <point x="1663" y="1383"/>
      <point x="1742" y="1269"/>
      <point x="1742" y="1118" type="curve" smooth="yes"/>
      <point x="1742" y="1063"/>
      <point x="1730" y="1013"/>
      <point x="1706" y="968" type="curve" smooth="yes"/>
      <point x="1658" y="877"/>
      <point x="1570" y="815"/>
      <point x="1454" y="792" type="curve"/>
      <point x="1454" y="776" type="line"/>
      <point x="1518" y="774"/>
      <point x="1576" y="758"/>
      <point x="1629" y="729" type="curve" smooth="yes"/>
      <point x="1681" y="699"/>
      <point x="1723" y="658"/>
      <point x="1754" y="606" type="curve" smooth="yes"/>
      <point x="1785" y="553"/>
      <point x="1800" y="492"/>
      <point x="1800" y="422" type="curve" smooth="yes"/>
      <point x="1800" y="341"/>
      <point x="1779" y="268"/>
      <point x="1737" y="205" type="curve" smooth="yes"/>
      <point x="1653" y="77"/>
      <point x="1494" y="0"/>
      <point x="1278" y="0" type="curve" smooth="yes"/>
    </contour>
    <contour>
      <point x="980" y="322" type="line"/>
      <point x="1170" y="322" type="line" smooth="yes"/>
      <point x="1237" y="322"/>
      <point x="1288" y="335"/>
      <point x="1323" y="361" type="curve" smooth="yes"/>
      <point x="1357" y="387"/>
      <point x="1374" y="425"/>
      <point x="1374" y="474" type="curve" smooth="yes"/>
      <point x="1374" y="509"/>
      <point x="1366" y="539"/>
      <point x="1350" y="564" type="curve" smooth="yes"/>
      <point x="1318" y="612"/>
      <point x="1257" y="638"/>
      <point x="1176" y="638" type="curve" smooth="yes"/>
      <point x="980" y="638" type="line"/>
    </contour>
    <contour>
      <point x="980" y="888" type="line"/>
      <point x="1146" y="888" type="line" smooth="yes"/>
      <point x="1181" y="888"/>
      <point x="1213" y="894"/>
      <point x="1240" y="905" type="curve" smooth="yes"/>
      <point x="1294" y="927"/>
      <point x="1326" y="969"/>
      <point x="1326" y="1030" type="curve" smooth="yes"/>
      <point x="1326" y="1075"/>
      <point x="1310" y="1110"/>
      <point x="1277" y="1135" type="curve" smooth="yes"/>
      <point x="1244" y="1160"/>
      <point x="1202" y="1172"/>
      <point x="1152" y="1172" type="curve" smooth="yes"/>
      <point x="980" y="1172" type="line"/>
    </contour>
  </outline>
</glyph>
<glyph name="Btopbar" format="2">
  <advance width="1340"/>
  <unicode hex="0182"/>
  <outline>
    <contour>
      <point x="96" y="0" type="line"/>
      <point x="96" y="1490" type="line"/>
      <point x="1144" y="1490" type="line"/>
      <point x="1144" y="1164" type="line"/>
      <point x="500" y="1164" type="line"/>
      <point x="500" y="990" type="line"/>
      <point x="652" y="990" type="line" smooth="yes"/>
      <point x="777" y="990"/>
      <point x="887" y="970"/>
      <point x="981" y="929" type="curve" smooth="yes"/>
      <point x="1168" y="848"/>
      <point x="1278" y="699"/>
      <point x="1278" y="500" type="curve" smooth="yes"/>
      <point x="1278" y="401"/>
      <point x="1252" y="315"/>
      <point x="1200" y="240" type="curve" smooth="yes"/>
      <point x="1095" y="90"/>
      <point x="903" y="0"/>
      <point x="652" y="0" type="curve" smooth="yes"/>
    </contour>
    <contour>
      <point x="500" y="318" type="line"/>
      <point x="652" y="318" type="line" smooth="yes"/>
      <point x="701" y="318"/>
      <point x="742" y="326"/>
      <point x="775" y="342" type="curve" smooth="yes"/>
      <point x="841" y="374"/>
      <point x="876" y="432"/>
      <point x="876" y="504" type="curve" smooth="yes"/>
      <point x="876" y="555"/>
      <point x="857" y="597"/>
      <point x="819" y="630" type="curve" smooth="yes"/>
      <point x="780" y="663"/>
      <point x="725" y="680"/>
      <point x="652" y="680" type="curve" smooth="yes"/>
      <point x="500" y="680" type="line"/>
    </contour>
  </outline>
</glyph>
<glyph name="Tonesix" format="2">
  <advance width="1702"/>
  <unicode hex="0184"/>
  <outline>
    <contour>
      <point x="712" y="1490" type="line"/>
      <point x="712" y="1164" type="line"/>
      <point x="30" y="1164" type="line"/>
      <point x="30" y="1490" type="line"/>
    </contour>
    <contour>
      <point x="642" y="990" type="line"/>
      <point x="952" y="990" type="line" smooth="yes"/>
      <point x="1077" y="990"/>
      <point x="1187" y="970"/>
      <point x="1280" y="929" type="curve" smooth="yes"/>
      <point x="1467" y="848"/>
      <point x="1576" y="699"/>
      <point x="1576" y="500" type="curve" smooth="yes"/>
      <point x="1576" y="401"/>
      <point x="1550" y="315"/>
      <point x="1498" y="240" type="curve" smooth="yes"/>
      <point x="1394" y="90"/>
      <point x="1203" y="0"/>
      <point x="952" y="0" type="curve" smooth="yes"/>
      <point x="396" y="0" type="line"/>
      <point x="396" y="1490" type="line"/>
      <point x="800" y="1490" type="line"/>
      <point x="800" y="318" type="line"/>
      <point x="952" y="318" type="line" smooth="yes"/>
      <point x="1001" y="318"/>
      <point x="1042" y="326"/>
      <point x="1075" y="342" type="curve" smooth="yes"/>
      <point x="1141" y="374"/>
      <point x="1176" y="432"/>
      <point x="1176" y="504" type="curve" smooth="yes"/>
      <point x="1176" y="555"/>
      <point x="1157" y="597"/>
      <point x="1119" y="630" type="curve" smooth="yes"/>
      <point x="1080" y="663"/>
      <point x="1025" y="680"/>
      <point x="952" y="680" type="curve" smooth="yes"/>
      <point x="642" y="680" type="line"/>
    </contour>
  </outline>
</glyph>
<glyph name="uni0184" format="2">
  <advance width="1702"/>
  <unicode hex="0184"/>
  <outline>
    <contour>
      <point x="712" y="1490" type="line"/>
      <point x="712" y="1164" type="line"/>
      <point x="30" y="1164" type="line"/>
      <point x="30" y="1490" type="line"/>
    </contour>
    <contour>
      <point x="642" y="990" type="line"/>
      <point x="952" y="990" type="line" smooth="yes"/>
      <point x="1140" y="990"/>
      <point x="1420" y="868"/>
      <point x="1576" y="649"/>
      <point x="1576" y="500" type="qcurve" smooth="yes"/>
      <point x="1576" y="352"/>
      <point x="1420" y="127"/>
      <point x="1140" y="0"/>
      <point x="952" y="0" type="qcurve" smooth="yes"/>
      <point x="396" y="0" type="line"/>
      <point x="396" y="1490" type="line"/>
      <point x="800" y="1490" type="line"/>
      <point x="800" y="318" type="line"/>
      <point x="952" y="318" type="line" smooth="yes"/>
      <point x="1025" y="318"/>
      <point x="1124" y="366"/>
      <point x="1176" y="450"/>
      <point x="1176" y="504" type="qcurve" smooth="yes"/>
      <point x="1176" y="580"/>
      <point x="1061" y="680"/>
      <point x="952" y="680" type="qcurve" smooth="yes"/>
      <point x="642" y="680" type="line"/>
    </contour>
  </outline>
</glyph>
<glyph name="tonesix" format="2">
  <advance width="1420"/>
  <unicode hex="0185"/>
  <outline>
    <contour>
      <point x="290" y="1536" type="line"/>
      <point x="346" y="1536" type="line"/>
      <point x="346" y="1048" type="line"/>
      <point x="290" y="1048" type="line"/>
      <point x="82" y="1192" type="line"/>
      <point x="82" y="1384" type="line"/>
    </contour>
    <contour>
      <point x="518" y="1022" type="line"/>
      <point x="690" y="1022" type="line"/>
      <point x="703" y="1055"/>
      <point x="724" y="1079"/>
      <point x="751" y="1095" type="curve"/>
      <point x="778" y="1110"/>
      <point x="808" y="1120"/>
      <point x="840" y="1125" type="curve" smooth="yes"/>
      <point x="872" y="1130"/>
      <point x="901" y="1132"/>
      <point x="928" y="1132" type="curve" smooth="yes"/>
      <point x="1001" y="1132"/>
      <point x="1071" y="1112"/>
      <point x="1138" y="1073" type="curve" smooth="yes"/>
      <point x="1205" y="1034"/>
      <point x="1260" y="972"/>
      <point x="1303" y="888" type="curve" smooth="yes"/>
      <point x="1346" y="803"/>
      <point x="1367" y="693"/>
      <point x="1368" y="558" type="curve" smooth="yes"/>
      <point x="1367" y="429"/>
      <point x="1346" y="322"/>
      <point x="1305" y="237" type="curve" smooth="yes"/>
      <point x="1222" y="68"/>
      <point x="1083" y="-14"/>
      <point x="928" y="-14" type="curve" smooth="yes"/>
      <point x="894" y="-14"/>
      <point x="861" y="-12"/>
      <point x="829" y="-7" type="curve" smooth="yes"/>
      <point x="797" y="-2"/>
      <point x="769" y="8"/>
      <point x="745" y="23" type="curve" smooth="yes"/>
      <point x="720" y="38"/>
      <point x="702" y="60"/>
      <point x="690" y="90" type="curve"/>
      <point x="518" y="90" type="line"/>
    </contour>
    <contour>
      <point x="992" y="558" type="curve" smooth="yes"/>
      <point x="992" y="617"/>
      <point x="985" y="666"/>
      <point x="971" y="705" type="curve" smooth="yes"/>
      <point x="942" y="784"/>
      <point x="885" y="824"/>
      <point x="800" y="824" type="curve" smooth="yes"/>
      <point x="751" y="824"/>
      <point x="715" y="811"/>
      <point x="690" y="786" type="curve" smooth="yes"/>
      <point x="641" y="735"/>
      <point x="628" y="650"/>
      <point x="628" y="558" type="curve" smooth="yes"/>
      <point x="628" y="513"/>
      <point x="632" y="471"/>
      <point x="640" y="431" type="curve" smooth="yes"/>
      <point x="655" y="351"/>
      <point x="700" y="294"/>
      <point x="800" y="294" type="curve" smooth="yes"/>
      <point x="843" y="294"/>
      <point x="878" y="304"/>
      <point x="907" y="324" type="curve" smooth="yes"/>
      <point x="963" y="364"/>
      <point x="992" y="442"/>
    </contour>
    <contour>
      <point x="276" y="1490" type="line"/>
      <point x="678" y="1490" type="line"/>
      <point x="678" y="954" type="line"/>
      <point x="530" y="530" type="line"/>
      <point x="674" y="226" type="line"/>
      <point x="674" y="0" type="line"/>
      <point x="276" y="0" type="line"/>
    </contour>
  </outline>
</glyph>
<glyph name="Oopen" format="2">
  <advance width="1531"/>
  <unicode hex="0186"/>
  <anchor x="758" y="0" name="m.uni030F_1"/>
  <anchor x="774" y="1478" name="m.uni0327_3"/>
  <outline>
    <contour>
      <point x="743" y="1510" type="curve" smooth="yes"/>
      <point x="880" y="1510"/>
      <point x="1002" y="1481"/>
      <point x="1110" y="1422" type="curve" smooth="yes"/>
      <point x="1218" y="1363"/>
      <point x="1304" y="1277"/>
      <point x="1367" y="1164" type="curve" smooth="yes"/>
      <point x="1430" y="1051"/>
      <point x="1461" y="911"/>
      <point x="1461" y="746" type="curve" smooth="yes"/>
      <point x="1461" y="580"/>
      <point x="1429" y="440"/>
      <point x="1365" y="327" type="curve" smooth="yes"/>
      <point x="1301" y="213"/>
      <point x="1215" y="127"/>
      <point x="1107" y="68" type="curve" smooth="yes"/>
      <point x="998" y="9"/>
      <point x="877" y="-20"/>
      <point x="743" y="-20" type="curve" smooth="yes"/>
      <point x="558" y="-20"/>
      <point x="399" y="31"/>
      <point x="280" y="127" type="curve" smooth="yes"/>
      <point x="161" y="223"/>
      <point x="86" y="364"/>
      <point x="67" y="544" type="curve"/>
      <point x="477" y="544" type="line"/>
      <point x="485" y="480"/>
      <point x="511" y="427"/>
      <point x="554" y="390" type="curve" smooth="yes"/>
      <point x="597" y="353"/>
      <point x="656" y="332"/>
      <point x="731" y="332" type="curve" smooth="yes"/>
      <point x="799" y="332"/>
      <point x="856" y="349"/>
      <point x="903" y="382" type="curve" smooth="yes"/>
      <point x="950" y="415"/>
      <point x="985" y="462"/>
      <point x="1009" y="524" type="curve" smooth="yes"/>
      <point x="1033" y="585"/>
      <point x="1045" y="659"/>
      <point x="1045" y="746" type="curve" smooth="yes"/>
      <point x="1045" y="837"/>
      <point x="1033" y="914"/>
      <point x="1009" y="975" type="curve" smooth="yes"/>
      <point x="984" y="1036"/>
      <point x="949" y="1081"/>
      <point x="902" y="1112" type="curve" smooth="yes"/>
      <point x="855" y="1143"/>
      <point x="799" y="1158"/>
      <point x="733" y="1158" type="curve" smooth="yes"/>
      <point x="660" y="1158"/>
      <point x="600" y="1137"/>
      <point x="556" y="1100" type="curve" smooth="yes"/>
      <point x="512" y="1063"/>
      <point x="486" y="1010"/>
      <point x="475" y="946" type="curve"/>
      <point x="65" y="946" type="line"/>
      <point x="76" y="1073"/>
      <point x="135" y="1211"/>
      <point x="248" y="1323" type="curve" smooth="yes"/>
      <point x="360" y="1435"/>
      <point x="524" y="1510"/>
    </contour>
  </outline>
</glyph>
<glyph name="uni0186" format="2">
  <advance width="1531"/>
  <unicode hex="0186"/>
  <anchor x="758" y="0" name="m.uni030F_1"/>
  <anchor x="774" y="1478" name="m.uni0327_3"/>
  <outline>
    <contour>
      <point x="743" y="1510" type="qcurve" smooth="yes"/>
      <point x="948" y="1510"/>
      <point x="1272" y="1334"/>
      <point x="1461" y="994"/>
      <point x="1461" y="746" type="qcurve" smooth="yes"/>
      <point x="1461" y="497"/>
      <point x="1269" y="156"/>
      <point x="944" y="-20"/>
      <point x="743" y="-20" type="qcurve" smooth="yes"/>
      <point x="604" y="-20"/>
      <point x="369" y="55"/>
      <point x="191" y="199"/>
      <point x="81" y="409"/>
      <point x="67" y="544" type="qcurve"/>
      <point x="477" y="544" type="line"/>
      <point x="483" y="496"/>
      <point x="522" y="418"/>
      <point x="586" y="362"/>
      <point x="675" y="332"/>
      <point x="731" y="332" type="qcurve" smooth="yes"/>
      <point x="833" y="332"/>
      <point x="973" y="431"/>
      <point x="1045" y="616"/>
      <point x="1045" y="746" type="qcurve" smooth="yes"/>
      <point x="1045" y="883"/>
      <point x="972" y="1066"/>
      <point x="832" y="1158"/>
      <point x="733" y="1158" type="qcurve" smooth="yes"/>
      <point x="678" y="1158"/>
      <point x="589" y="1128"/>
      <point x="523" y="1072"/>
      <point x="483" y="994"/>
      <point x="475" y="946" type="qcurve"/>
      <point x="65" y="946" type="line"/>
      <point x="73" y="1041"/>
      <point x="163" y="1239"/>
      <point x="332" y="1407"/>
      <point x="579" y="1510"/>
    </contour>
  </outline>
</glyph>
<glyph name="chook" format="2">
  <advance width="1341"/>
  <unicode hex="0188"/>
  <anchor x="688" y="0" name="m.uni0326"/>
  <anchor x="688" y="1118" name="m.uni030F_1"/>
  <anchor x="688" y="0" name="m.uni0327_3"/>
  <outline>
    <contour>
      <point x="855" y="707" type="line"/>
      <point x="831" y="992" type="line" smooth="yes"/>
      <point x="822" y="1103"/>
      <point x="842" y="1185"/>
      <point x="891" y="1236" type="curve" smooth="yes"/>
      <point x="940" y="1287"/>
      <point x="1034" y="1312"/>
      <point x="1175" y="1312" type="curve" smooth="yes"/>
      <point x="1218" y="1312"/>
      <point x="1268" y="1308"/>
      <point x="1309" y="1301" type="curve"/>
      <point x="1301" y="1013" type="line"/>
      <point x="1272" y="1020"/>
      <point x="1243" y="1024"/>
      <point x="1214" y="1024" type="curve" smooth="yes"/>
      <point x="1137" y="1024"/>
      <point x="1120" y="1004"/>
      <point x="1131" y="944" type="curve" smooth="yes"/>
      <point x="1175" y="707" type="line"/>
    </contour>
    <contour>
      <point x="640" y="-20" type="curve" smooth="yes"/>
      <point x="519" y="-20"/>
      <point x="415" y="4"/>
      <point x="329" y="53" type="curve" smooth="yes"/>
      <point x="242" y="101"/>
      <point x="176" y="168"/>
      <point x="131" y="255" type="curve" smooth="yes"/>
      <point x="85" y="341"/>
      <point x="62" y="441"/>
      <point x="62" y="556" type="curve" smooth="yes"/>
      <point x="62" y="671"/>
      <point x="85" y="771"/>
      <point x="131" y="858" type="curve" smooth="yes"/>
      <point x="176" y="944"/>
      <point x="242" y="1011"/>
      <point x="329" y="1060" type="curve" smooth="yes"/>
      <point x="415" y="1108"/>
      <point x="519" y="1132"/>
      <point x="640" y="1132" type="curve" smooth="yes"/>
      <point x="795" y="1132"/>
      <point x="921" y="1091"/>
      <point x="1014" y="1017" type="curve" smooth="yes"/>
      <point x="1106" y="943"/>
      <point x="1162" y="836"/>
      <point x="1175" y="707" type="curve"/>
      <point x="806" y="652" type="line"/>
      <point x="797" y="711"/>
      <point x="779" y="755"/>
      <point x="752" y="786" type="curve" smooth="yes"/>
      <point x="725" y="817"/>
      <point x="690" y="832"/>
      <point x="646" y="832" type="curve" smooth="yes"/>
      <point x="611" y="832"/>
      <point x="580" y="822"/>
      <point x="554" y="802" type="curve" smooth="yes"/>
      <point x="528" y="782"/>
      <point x="508" y="752"/>
      <point x="494" y="711" type="curve" smooth="yes"/>
      <point x="479" y="670"/>
      <point x="472" y="619"/>
      <point x="472" y="558" type="curve" smooth="yes"/>
      <point x="472" y="497"/>
      <point x="479" y="446"/>
      <point x="494" y="405" type="curve" smooth="yes"/>
      <point x="508" y="364"/>
      <point x="528" y="333"/>
      <point x="554" y="312" type="curve" smooth="yes"/>
      <point x="580" y="291"/>
      <point x="611" y="280"/>
      <point x="646" y="280" type="curve" smooth="yes"/>
      <point x="690" y="280"/>
      <point x="725" y="296"/>
      <point x="753" y="328" type="curve" smooth="yes"/>
      <point x="780" y="359"/>
      <point x="798" y="406"/>
      <point x="806" y="466" type="curve"/>
      <point x="1175" y="412" type="line"/>
      <point x="1162" y="279"/>
      <point x="1106" y="172"/>
      <point x="1014" y="97" type="curve" smooth="yes"/>
      <point x="922" y="21"/>
      <point x="795" y="-20"/>
    </contour>
  </outline>
</glyph>
<glyph name="Dhook" format="2">
  <advance width="1960"/>
  <unicode hex="018A"/>
  <anchor x="1430" y="0" name="m.uni0326"/>
  <anchor x="1276" y="1490" name="m.uni030F_1"/>
  <outline>
    <contour>
      <point x="42" y="1024" type="line"/>
      <point x="42" y="1096" type="line" smooth="yes"/>
      <point x="42" y="1233"/>
      <point x="83" y="1333"/>
      <point x="165" y="1396" type="curve" smooth="yes"/>
      <point x="246" y="1459"/>
      <point x="376" y="1490"/>
      <point x="554" y="1490" type="curve" smooth="yes"/>
      <point x="576" y="1490" type="line"/>
      <point x="576" y="1164" type="line"/>
      <point x="538" y="1164" type="line" smooth="yes"/>
      <point x="443" y="1164"/>
      <point x="396" y="1127"/>
      <point x="396" y="1052" type="curve" smooth="yes"/>
      <point x="396" y="1024" type="line"/>
    </contour>
    <contour>
      <point x="1150" y="0" type="curve" smooth="yes"/>
      <point x="742" y="0" type="line"/>
      <point x="742" y="344" type="line"/>
      <point x="1134" y="344" type="line" smooth="yes"/>
      <point x="1208" y="344"/>
      <point x="1271" y="356"/>
      <point x="1324" y="379" type="curve" smooth="yes"/>
      <point x="1428" y="426"/>
      <point x="1484" y="537"/>
      <point x="1484" y="744" type="curve" smooth="yes"/>
      <point x="1484" y="848"/>
      <point x="1470" y="929"/>
      <point x="1443" y="988" type="curve"/>
      <point x="1387" y="1104"/>
      <point x="1278" y="1146"/>
      <point x="1122" y="1146" type="curve" smooth="yes"/>
      <point x="736" y="1146" type="line"/>
      <point x="736" y="1490" type="line"/>
      <point x="1144" y="1490" type="line" smooth="yes"/>
      <point x="1297" y="1490"/>
      <point x="1430" y="1460"/>
      <point x="1541" y="1401" type="curve" smooth="yes"/>
      <point x="1764" y="1281"/>
      <point x="1890" y="1055"/>
      <point x="1890" y="744" type="curve" smooth="yes"/>
      <point x="1890" y="589"/>
      <point x="1860" y="456"/>
      <point x="1800" y="345" type="curve" smooth="yes"/>
      <point x="1679" y="122"/>
      <point x="1453" y="0"/>
    </contour>
    <contour>
      <point x="980" y="1490" type="line"/>
      <point x="980" y="0" type="line"/>
      <point x="576" y="0" type="line"/>
      <point x="576" y="1490" type="line"/>
    </contour>
  </outline>
</glyph>
<glyph name="uni018A" format="2">
  <advance width="1960"/>
  <unicode hex="018A"/>
  <anchor x="1154" y="0" name="m.uni0326"/>
  <anchor x="1074" y="1490" name="t.uni030F_1"/>
  <outline>
    <contour>
      <point x="42" y="1024" type="line"/>
      <point x="42" y="1096" type="line" smooth="yes"/>
      <point x="42" y="1302"/>
      <point x="287" y="1490"/>
      <point x="554" y="1490" type="qcurve" smooth="yes"/>
      <point x="576" y="1490" type="line"/>
      <point x="576" y="1164" type="line"/>
      <point x="538" y="1164" type="line" smooth="yes"/>
      <point x="467" y="1164"/>
      <point x="396" y="1108"/>
      <point x="396" y="1052" type="qcurve" smooth="yes"/>
      <point x="396" y="1024" type="line"/>
    </contour>
    <contour>
      <point x="1150" y="0" type="qcurve" smooth="yes"/>
      <point x="742" y="0" type="line"/>
      <point x="742" y="344" type="line"/>
      <point x="1134" y="344" type="line" smooth="yes"/>
      <point x="1245" y="344"/>
      <point x="1402" y="414"/>
      <point x="1484" y="589"/>
      <point x="1484" y="744" type="qcurve" smooth="yes"/>
      <point x="1484" y="900"/>
      <point x="1401" y="1075"/>
      <point x="1239" y="1146"/>
      <point x="1122" y="1146" type="qcurve" smooth="yes"/>
      <point x="736" y="1146" type="line"/>
      <point x="736" y="1490" type="line"/>
      <point x="1144" y="1490" type="line" smooth="yes"/>
      <point x="1374" y="1490"/>
      <point x="1708" y="1311"/>
      <point x="1890" y="977"/>
      <point x="1890" y="744" type="qcurve" smooth="yes"/>
      <point x="1890" y="512"/>
      <point x="1709" y="178"/>
      <point x="1377" y="0"/>
    </contour>
    <contour>
      <point x="980" y="1490" type="line"/>
      <point x="980" y="0" type="line"/>
      <point x="576" y="0" type="line"/>
      <point x="576" y="1490" type="line"/>
    </contour>
  </outline>
</glyph>
<glyph name="Dtopbar" format="2">
  <advance width="1428"/>
  <unicode hex="018B"/>
  <outline>
    <contour>
      <point x="1306" y="0" type="line"/>
      <point x="750" y="0" type="line" smooth="yes"/>
      <point x="625" y="0"/>
      <point x="516" y="21"/>
      <point x="423" y="64" type="curve" smooth="yes"/>
      <point x="235" y="149"/>
      <point x="126" y="305"/>
      <point x="126" y="500" type="curve" smooth="yes"/>
      <point x="126" y="598"/>
      <point x="152" y="684"/>
      <point x="204" y="757" type="curve" smooth="yes"/>
      <point x="308" y="904"/>
      <point x="501" y="990"/>
      <point x="750" y="990" type="curve" smooth="yes"/>
      <point x="916" y="990" type="line"/>
      <point x="916" y="1184" type="line"/>
      <point x="258" y="1184" type="line"/>
      <point x="258" y="1502" type="line"/>
      <point x="1306" y="1502" type="line"/>
    </contour>
    <contour>
      <point x="916" y="312" type="line"/>
      <point x="916" y="680" type="line"/>
      <point x="750" y="680" type="line"/>
      <point x="676" y="681"/>
      <point x="618" y="664"/>
      <point x="577" y="631" type="curve" smooth="yes"/>
      <point x="535" y="597"/>
      <point x="514" y="555"/>
      <point x="514" y="504" type="curve" smooth="yes"/>
      <point x="514" y="468"/>
      <point x="523" y="436"/>
      <point x="542" y="407" type="curve" smooth="yes"/>
      <point x="579" y="349"/>
      <point x="651" y="312"/>
      <point x="750" y="312" type="curve" smooth="yes"/>
    </contour>
  </outline>
</glyph>
